<mxfile host="app.diagrams.net" modified="2022-02-08T06:43:34.987Z" agent="5.0 (Macintosh; Intel Mac OS X 10_15_7) AppleWebKit/537.36 (KHTML, like Gecko) Chrome/98.0.4758.80 Safari/537.36" etag="4eN317kHEQvJ5emr_0o1" version="16.5.3" type="github">
  <diagram id="nhOvupoI7fVWtUY20aSN" name="Page-1">
    <mxGraphModel dx="1772" dy="1058" grid="0" gridSize="10" guides="1" tooltips="1" connect="1" arrows="1" fold="1" page="1" pageScale="1" pageWidth="827" pageHeight="1169" background="#f8f8f8" math="0" shadow="0">
      <root>
        <mxCell id="0" />
        <mxCell id="1" parent="0" />
        <mxCell id="k-2cysHBCC-xSpzVTrcf-51" value="&lt;div style=&quot;text-align: justify&quot;&gt;&lt;br&gt;&lt;/div&gt;" style="rounded=1;whiteSpace=wrap;html=1;fillColor=none;strokeColor=#CCCCCC;align=left;spacingLeft=40;arcSize=2;" vertex="1" parent="1">
          <mxGeometry x="1052" y="123" width="340" height="469" as="geometry" />
        </mxCell>
        <mxCell id="xtpNrOkgLzYpHderiMOa-36" value="" style="rounded=1;whiteSpace=wrap;html=1;fillColor=default;strokeColor=#CCCCCC;" parent="1" vertex="1">
          <mxGeometry x="42" y="342" width="160" height="45" as="geometry" />
        </mxCell>
        <mxCell id="k-2cysHBCC-xSpzVTrcf-76" value="&lt;div style=&quot;text-align: justify&quot;&gt;&lt;br&gt;&lt;/div&gt;" style="rounded=1;whiteSpace=wrap;html=1;fillColor=none;strokeColor=#CCCCCC;align=left;spacingLeft=40;arcSize=2;" vertex="1" parent="1">
          <mxGeometry x="1074.92" y="311.65" width="187.08" height="80" as="geometry" />
        </mxCell>
        <mxCell id="k-2cysHBCC-xSpzVTrcf-63" value="&lt;div style=&quot;text-align: justify&quot;&gt;&lt;br&gt;&lt;/div&gt;" style="rounded=1;whiteSpace=wrap;html=1;fillColor=none;strokeColor=#CCCCCC;align=left;spacingLeft=40;arcSize=0;" vertex="1" parent="1">
          <mxGeometry x="1075.66" y="162" width="186.34" height="80" as="geometry" />
        </mxCell>
        <mxCell id="xtpNrOkgLzYpHderiMOa-33" value="" style="group" parent="1" vertex="1" connectable="0">
          <mxGeometry x="37" y="542" width="150" height="35" as="geometry" />
        </mxCell>
        <mxCell id="k-2cysHBCC-xSpzVTrcf-1" value="&lt;h1&gt;Vald Insert Flow&lt;/h1&gt;" style="text;html=1;resizable=0;autosize=1;align=center;verticalAlign=middle;points=[];fillColor=none;strokeColor=none;rounded=0;fontColor=#006076;" vertex="1" parent="1">
          <mxGeometry x="52" y="62" width="193" height="50" as="geometry" />
        </mxCell>
        <mxCell id="k-2cysHBCC-xSpzVTrcf-3" value="" style="shape=image;verticalLabelPosition=bottom;labelBackgroundColor=default;verticalAlign=top;aspect=fixed;imageAspect=0;image=data:image/svg+xml,PHN2ZyB4bWxucz0iaHR0cDovL3d3dy53My5vcmcvMjAwMC9zdmciIHdpZHRoPSIzNSIgaGVpZ2h0PSI1MCIgdmlld0JveD0iMCAwIDM1IDUwIiBmaWxsPSJub25lIj4mI3hhOzxlbGxpcHNlIGN4PSIxNy42MTM2IiBjeT0iMTIuNTcxNiIgcng9IjEyLjg0MDkiIHJ5PSIxMi41NzE2IiBmaWxsPSIjMDA2MDc2Ii8+JiN4YTs8cGF0aCBmaWxsLXJ1bGU9ImV2ZW5vZGQiIGNsaXAtcnVsZT0iZXZlbm9kZCIgZD0iTTguMjcyNzIgMjUuMDIxNUMzLjgzNjMxIDI3Ljg2NjQgMC44MTU2NDkgMzIuNzQ0NyAwLjU0OTI4OSAzOC4zNzk3TDAgNTAuMDAwMkgzNUwzNC4wODUzIDM3LjkwNTlDMzMuNjY2IDMyLjM2MTUgMzAuNTg4MSAyNy42MTQyIDI2LjE1NzggMjQuODc1QzIzLjYwOTEgMjYuNjQ5NSAyMC40ODQ0IDI3LjY5NDMgMTcuMTA4MiAyNy42OTQzQzEzLjgyNiAyNy42OTQzIDEwLjc4MTQgMjYuNzA2OSA4LjI3MjcyIDI1LjAyMTVaIiBmaWxsPSIjMDA2MDc2Ii8+JiN4YTs8L3N2Zz4=;" vertex="1" parent="1">
          <mxGeometry x="58" y="151.7" width="23.52" height="33.59" as="geometry" />
        </mxCell>
        <mxCell id="k-2cysHBCC-xSpzVTrcf-5" value="" style="group" vertex="1" connectable="0" parent="1">
          <mxGeometry x="102" y="142" width="133.73000000000002" height="52.99972440944882" as="geometry" />
        </mxCell>
        <mxCell id="xtpNrOkgLzYpHderiMOa-3" value="" style="shape=image;verticalLabelPosition=bottom;labelBackgroundColor=#ffffff;verticalAlign=top;aspect=fixed;imageAspect=0;image=data:image/png,iVBORw0KGgoAAAANSUhEUgAAAEoAAABJCAYAAACaRLDfAAAACXBIWXMAAAsTAAALEwEAmpwYAAAAAXNSR0IArs4c6QAAAARnQU1BAACxjwv8YQUAAARvSURBVHgB7ZvNTupAFIAPtUo0MenOlQmJiSaurjG4lTcAn+DKE3jfQLgPcK88AfAEyBOgW8Vw48boBlYuXAi68BftndN06oD8tLQz0yl8Se0wTBP6ec4wM0xjoAj1ej1DTkXTNDvkXEgmk0cwo5dGo/GTHObj46P5+vpqXl5emhcXF4cw4wsq6enpyaTMZPUxSNJMVh+jJM1k2biRNPWyvEiaWlmTSJo6WX4kTY2sICRFXlaQkiIri4ekyMniKSkyskRIUl6WSEnKypIhSTlZMiUpIysMkkIvK0ySKKGTFUZJlNDICrMkihdZsbOzsx+apv0lZePz8zO7s7PzD3yCksiptLGxAYuLixBm3t7e4Pr6Gt7f33Pb29v5oQ2JzSYu2rfbbZPcYBvFgQ9UiKR+3ESWRtollpeXwTAMWF9fN+bn52uTylIpklgWFhYAPzO599wwWRr7Ymlpicpq2DftGlUlUcbJ0vorbFlYLLmVpbokyihZ2qALUNbm5ibMzc2NlRUVSZRhsrRxF4ySFTVJFFbW+fn5L6zT3FwwSFZUJVHoveu6fkju1dDdXkDGGiUSiomPj48qEZcmb+WiKolCRgR4MvDPWFEIlXV7e5sj46NcPB6H1dVVqz6qkLEV3NzcQLfbzSeTyY4rUQhKSSQSEBStVgtOTk566jKZjDWekw2VRM4oKYd1rkUFDUrKZrM9dQ8PD3BwcAAyGSQJ0UAS5XL5W93x8THIZJgki3q9boqm2WxiL2kdJJ1Nkm7Oa5xzyuDl5cWa75HhQG6QRCkRVa1WnXIqlbL6JkqhUADRjIwkGymijo6+tl+iqN3dXed1fwfPGzeSLESnHi7BgJ1meGAaYrqxddhGBOPSjUV4RPVHEw45cEiAZQqbmrxwHUk2wkWdnp465f39fafM9lOlUgl44lWShcjUq9Vq39KOLD9bx/39fc972JYHXtKNReiAk40UTLd8vneJGus6nY5VxvRj0zEIJookisiIwjETMFEz6sCxVZBMGkkUYX0URgjO7yixWOzbwYKRFdRQwVck2QhLvUql4pTxm65YLA5st7e356QfTnP8pl8QkixEpB6Ok9hpCvm2G9oW3wMm/fxMafymG4uQ1MPJLo0SJJ1OD23LDhP8pF9gkUQREVHk5k3SBznHqCjpjz6SeqZXgowkSgxFkZ+SgSdsJ46MWwD02p4l8EiyEdKZe10ZnXQllZckRNrCXdDwlIREQhRvSYjyokRIQpQWJUoSoqwokZIQJUWJloQoJ0qGJEQpUbIkIcqIkikJUUbU3d0d7twtyZCEKCPq+fkZyNp6GSShjCh7H1YKJKGMqJWVFYjH44dedysHhTKi3Owp5YlSwwOZspQbcFJZ4GEffBAoOYVBWfShAbLcmwIBKDsppk9Y6Lpe8fugkxuUXmZhnt2p8Zal/MIdylpbWzM0TasBR1BUG+dRKmPvd+e671onP4P9vrq6+kNyHUJADCag2+3iUwZ54Ij1wfBZD+D8H+HN1tZWCzjyHwqLimQLEPDVAAAAAElFTkSuQmCC;" parent="k-2cysHBCC-xSpzVTrcf-5" vertex="1">
          <mxGeometry width="53.72574803149607" height="52.999724409448824" as="geometry" />
        </mxCell>
        <mxCell id="xtpNrOkgLzYpHderiMOa-2" value="" style="shape=image;verticalLabelPosition=bottom;labelBackgroundColor=#ffffff;verticalAlign=top;aspect=fixed;imageAspect=0;image=data:image/png,iVBORw0KGgoAAAANSUhEUgAAAEoAAABJCAYAAACaRLDfAAAACXBIWXMAAAsTAAALEwEAmpwYAAAAAXNSR0IArs4c6QAAAARnQU1BAACxjwv8YQUAAAQ6SURBVHgB7ZvPTuJAHMd/VJRoYsLNkwmJiSaeNAavoi+wvMG6T+C+AWUfYNl9Atgn2PAEeBYU9GL0AicPXiAe/It259vtsKXLn0I7nU7hk4zTFprQj7+Z/mY6jZEi1Gq1LKuKhmF0WP0znU7/oDn91Ov1z6wYDw8PxsvLi3F1dWWcn5/naM4/uKTHx0eDM5flYJCkuSwHoyTNZVm4kTTzsiaRNLOyppE0c7K8SJoZWX5IirwsPyVFVpYISZGTJVJSZGQFIUl5WUFKUlaWDEnKyZIpSRlZYZAUellhksQJnawwSuKERlaYJXEmkRU7Ozvb0TStwLaTHx8fX/b39xvkEUhiVWlra4uWl5cpzLy+vtLNzQ29vb3pe3t7+aFfZDabmLRvt9sGu8A2xJEHVIgkJ24iS2PfS62urlIymaTNzc3k4uJiZVpZKkWSnaWlJcJvZteuD5Ol2XdWVla4rLp10a5RVRJnnCzNecCShc2SW1mqS+KMkqUNOgGytre3aWFhYaysqEjiDJOljTthlKyoSeLYZVWr1a84prk5YZCsqEri8GuPx+M5dq3JuNsTWK5RYqGYen9/LzNxn9hHelQlcVhGgCqJP2NFAS7r7u5OZ/mRnkgkaH193TweVVhuRbe3t9TtdvPpdLrjShSAlFQqRV5otVpmGQTyuJ0dT7mub3BJrIYk3TxYq9WMoDg+PkYsjyyZTMYolUqGLJ6fn80snXXiul2e64gKitPTU7N0Oh06OTmhIBkYSRbSRKGpZbNZcxtSGo1GX7PUdT1QUaMkmchqeqy/++9zNDuyNcNms2kEwbDmZmdkHhU0TFTfPqJONGMjySI0otD8WCfe28cdULQot5KAtD4KYg4PD3vb6J9Qc3I5sTO0k0gCUkXh7uYEuVqxWPyvGfrJpJKA1KYXi8X6CkBkIdLy+TyJYBpJQJooRA6bo++Vi4uLvswc6cGgiPPCtJJAaDpzSCoUCn3HLi8vyS+8SAKhSg+cdzl75+4Fr5KA1CGM8Xcao0e5XO7b9zoIB35IAlLvekdHR719DGHsEYToOjg4IC/4JQmELj3goL/yElF+SgKB9lHOdMBZEEXInyqVCrFxIU2L35LM345BMXuUTEGAKBrVQYepT3ISaNNDxIgcv4mSBEKVHnhBpCQQCVGiJQHlRQUhCSgtKihJQFlRQUoCSooKWhJQTpQMSUApUbIkAWVEyZQElBF1f3+PlbslGZKAMqKenp4wZfyLJKGMKGsdVoYkoYyotbU1SiQSuUlXK/uFMqLcrCkViVLpgUxZyiWcXBZNsA7eD5QcwkAWf2mgWq1mKACUHRTzNyzi8fhvry86uUHpaRbbuzsV0bKUn7iDrI2NjaSmaRUSCES1MY5SGWu9u9BVZ3H2WPvb9fX1d9bWKQTEaAq63S4ez4tZJ2Rh/jC860GC/yOi2d3dbZFA/gCruIgQQ8W2KQAAAABJRU5ErkJggg==;" parent="k-2cysHBCC-xSpzVTrcf-5" vertex="1">
          <mxGeometry x="40.00212598425196" width="53.72574803149607" height="52.999724409448824" as="geometry" />
        </mxCell>
        <mxCell id="xtpNrOkgLzYpHderiMOa-1" value="" style="shape=image;verticalLabelPosition=bottom;labelBackgroundColor=#ffffff;verticalAlign=top;aspect=fixed;imageAspect=0;image=data:image/png,iVBORw0KGgoAAAANSUhEUgAAAEoAAABJCAYAAACaRLDfAAAACXBIWXMAAAsTAAALEwEAmpwYAAAAAXNSR0IArs4c6QAAAARnQU1BAACxjwv8YQUAAARLSURBVHgB7ZtLTiJBGIB/2laiiUm7cmUkMdHEFWhwK55guIHODeYGNHOAeZwA5gTjXMDHVjGgG6MLwY0LN6ALn0jN//dQTEN4NHR3VVfDl7TV9COhPv4q/6qujoAiFAqFNBY5xlgNy5/JZPIHTGinWCzu4sYeHx/Z6+sru7i4YGdnZxmY8B8u6enpiXEmsjroJmkiq4N+kiaymjiRNPayhpE0trJGkTR2stxIGhtZXkgKvSwvJYVWlh+SQifLT0mhkSVCkvKyREpSVpYMScrJkilJGVlBkBR4WUGSxAmcrCBK4gRGVpAlcYaRFTk5OYlrmvYd941Go/F5a2urBC4hSVjk19bWYHZ2FoLM29sbXF1dwfv7u7m5uZnteSHaLNOkfbVaZVjBKokDF6gQSZ04iSwNr4vNz8+DYRiwurpqTE9PH44qS6VIsjMzMwP0nbHuZi9Zmv3D3Nwcl1VsVtoxqkriDJKldR5oyqLdvFNZqkvi9JOldbuBZK2vr8PU1NRAWWGRxOklSxt0Qz9ZYZPEscs6PT39Qsc0Jzd0kxVWSRxed13XM1hXQ3d6A+YaeQzF2MfHxx8U9wlPmWGVxMGMgAqD/gwURXBZd3d3JuZHZjQahaWlJet4WMHcCq6vr6Fer2eTyWTNkSiCpMRiMfCaWq0G+/v78PDwYO0vLy9DPB63NllwSViSJNM6WCgUmAzK5TJLpVIU2103/FHY3t4eE83Ly4uVpWMnbtrlOY4oL6lUKrCzs2OV/a6hCBNJ10hqIlxUN0kYWZBOp619/A8Dx8fH1vnd3aEGB67oJ8lCdNPDyrc1sUwm0/W6XC7HRNGruUkVRX0P2Poh2TiSBAMSTq85Ojpqa3KmaYJMBjY3G0JFdXbelArIYhhJhFBRt7e3bZ/9yMucMKwkQqioIDCKJEKoqM6mFqQ8aRBCRXU2tfPzcxCFG0mEUFE0fqO5eU4+nwcRuJVECBVFkhKJROszpQvZbNaazmD/pjRaULPsN8RxiheSiAglnPg8C0RBld/Y2AB8PNY6RpG2vb0NCwsL1vlSqWRtFHFuhjFeSbKQMXtAw5NIJNJz5oBvKIqNitOM2ylS0gOcPoGbmxtrcIzCWpsd6vhHTUg9jaQmUqZZCBJxcHDQamo8VaB+jJriqMmoH5IIaaI4JMSrDN0vSURoMnM/JRGhEOW3JEJ5USIkEUqLEiWJUFaUSEmEkqJESyKUEyVDEqGUKFmSCGVEyZREKCPq/v6eVu7mZUgilBH1/PwMjUbjF0hCGVHNdVgpkIQyohYXFyEajWaGXa3sFcqIcrKm1E+USg9kylIu4eSyYIh18F6g5BCGZPGXBnBOPAUCUHZQzN+w0HX9t9sXnZyg9DSL7d2dQ79lKT9xR7JWVlYMTdMOwUdIVJXGUSrTXO9ugI/o+Kzw6+Xl5Tds6xAAIjAC9XqdHslnwUesL0bveoDPv4jfJBKJCvjIX3lmPhxsx5WYAAAAAElFTkSuQmCC;" parent="k-2cysHBCC-xSpzVTrcf-5" vertex="1">
          <mxGeometry x="80.00425196850395" width="53.72574803149607" height="52.999724409448824" as="geometry" />
        </mxCell>
        <mxCell id="k-2cysHBCC-xSpzVTrcf-11" value="" style="group" vertex="1" connectable="0" parent="1">
          <mxGeometry x="267" y="169.29000000000002" width="110" height="16" as="geometry" />
        </mxCell>
        <mxCell id="xtpNrOkgLzYpHderiMOa-5" value="&lt;font&gt;&lt;b&gt;&amp;nbsp; Insert Request&amp;nbsp;&lt;/b&gt;&lt;/font&gt;" style="endArrow=classic;html=1;rounded=0;strokeColor=#006076;strokeWidth=2;endSize=0;fontColor=#006076;labelBackgroundColor=none;align=center;labelPosition=center;verticalLabelPosition=top;verticalAlign=bottom;spacingTop=0;labelBorderColor=none;spacing=0;spacingLeft=0;spacingBottom=20;startArrow=none;" parent="k-2cysHBCC-xSpzVTrcf-11" edge="1" source="k-2cysHBCC-xSpzVTrcf-7">
          <mxGeometry x="-1" y="-8" width="50" height="50" relative="1" as="geometry">
            <mxPoint y="8" as="sourcePoint" />
            <mxPoint x="110" y="8" as="targetPoint" />
            <mxPoint x="-8" y="-8" as="offset" />
          </mxGeometry>
        </mxCell>
        <mxCell id="k-2cysHBCC-xSpzVTrcf-7" value="&lt;b&gt;&lt;font color=&quot;#ffffff&quot;&gt;1&lt;/font&gt;&lt;/b&gt;" style="ellipse;whiteSpace=wrap;html=1;aspect=fixed;fontColor=#006076;strokeColor=none;fillColor=#006076;" vertex="1" parent="k-2cysHBCC-xSpzVTrcf-11">
          <mxGeometry x="48" width="16" height="16" as="geometry" />
        </mxCell>
        <mxCell id="k-2cysHBCC-xSpzVTrcf-9" value="" style="endArrow=none;html=1;rounded=0;strokeColor=#006076;strokeWidth=2;endSize=0;fontColor=#006076;labelBackgroundColor=none;align=center;labelPosition=center;verticalLabelPosition=top;verticalAlign=bottom;spacingTop=0;labelBorderColor=none;spacing=0;spacingLeft=0;spacingBottom=18;" edge="1" parent="k-2cysHBCC-xSpzVTrcf-11" target="k-2cysHBCC-xSpzVTrcf-7">
          <mxGeometry x="-0.0909" width="50" height="50" relative="1" as="geometry">
            <mxPoint y="8" as="sourcePoint" />
            <mxPoint x="110" y="8" as="targetPoint" />
            <mxPoint as="offset" />
          </mxGeometry>
        </mxCell>
        <mxCell id="k-2cysHBCC-xSpzVTrcf-26" value="" style="group" vertex="1" connectable="0" parent="1">
          <mxGeometry x="703" y="139.85000000000002" width="152" height="36" as="geometry" />
        </mxCell>
        <mxCell id="k-2cysHBCC-xSpzVTrcf-28" value="" style="group" vertex="1" connectable="0" parent="k-2cysHBCC-xSpzVTrcf-26">
          <mxGeometry width="152" height="36" as="geometry" />
        </mxCell>
        <mxCell id="k-2cysHBCC-xSpzVTrcf-20" value="&lt;div style=&quot;text-align: justify&quot;&gt;&lt;b&gt;&lt;span&gt;&lt;/span&gt;&lt;span&gt;&lt;/span&gt;&lt;span&gt;Vald LB Gateway&lt;/span&gt;&lt;/b&gt;&lt;br&gt;&lt;/div&gt;" style="rounded=1;whiteSpace=wrap;html=1;fillColor=default;strokeColor=#CCCCCC;align=left;spacingLeft=40;arcSize=10;" vertex="1" parent="k-2cysHBCC-xSpzVTrcf-28">
          <mxGeometry x="-8" y="11.3" width="152" height="36" as="geometry" />
        </mxCell>
        <mxCell id="k-2cysHBCC-xSpzVTrcf-21" value="" style="sketch=0;html=1;dashed=0;whitespace=wrap;fillColor=#2875E2;strokeColor=#ffffff;points=[[0.005,0.63,0],[0.1,0.2,0],[0.9,0.2,0],[0.5,0,0],[0.995,0.63,0],[0.72,0.99,0],[0.5,1,0],[0.28,0.99,0]];shape=mxgraph.kubernetes.icon;prIcon=pod;fontColor=#006600;" vertex="1" parent="k-2cysHBCC-xSpzVTrcf-28">
          <mxGeometry x="4" y="19.01428571428571" width="20.83" height="20.57142857142857" as="geometry" />
        </mxCell>
        <mxCell id="k-2cysHBCC-xSpzVTrcf-15" value="" style="group" vertex="1" connectable="0" parent="1">
          <mxGeometry x="543" y="169.00000000000003" width="110" height="16" as="geometry" />
        </mxCell>
        <mxCell id="k-2cysHBCC-xSpzVTrcf-16" value="&lt;span&gt;&lt;/span&gt;&lt;span&gt;&lt;/span&gt;&lt;span&gt;&lt;b&gt;Forward Insert request&lt;/b&gt;&lt;/span&gt;" style="endArrow=classic;html=1;rounded=0;strokeColor=#006076;strokeWidth=2;endSize=0;fontColor=#006076;labelBackgroundColor=none;align=center;labelPosition=center;verticalLabelPosition=top;verticalAlign=bottom;spacingTop=0;labelBorderColor=none;spacing=0;spacingLeft=0;spacingBottom=20;startArrow=none;" edge="1" parent="k-2cysHBCC-xSpzVTrcf-15" source="k-2cysHBCC-xSpzVTrcf-17">
          <mxGeometry x="-1" y="-8" width="50" height="50" relative="1" as="geometry">
            <mxPoint y="8" as="sourcePoint" />
            <mxPoint x="110" y="8" as="targetPoint" />
            <mxPoint x="-8" y="-8" as="offset" />
          </mxGeometry>
        </mxCell>
        <mxCell id="k-2cysHBCC-xSpzVTrcf-17" value="&lt;font color=&quot;#ffffff&quot;&gt;&lt;b&gt;2&lt;/b&gt;&lt;/font&gt;" style="ellipse;whiteSpace=wrap;html=1;aspect=fixed;fontColor=#006076;strokeColor=none;fillColor=#006076;" vertex="1" parent="k-2cysHBCC-xSpzVTrcf-15">
          <mxGeometry x="48" width="16" height="16" as="geometry" />
        </mxCell>
        <mxCell id="k-2cysHBCC-xSpzVTrcf-18" value="" style="endArrow=none;html=1;rounded=0;strokeColor=#006076;strokeWidth=2;endSize=0;fontColor=#006076;labelBackgroundColor=none;align=center;labelPosition=center;verticalLabelPosition=top;verticalAlign=bottom;spacingTop=0;labelBorderColor=none;spacing=0;spacingLeft=0;spacingBottom=18;" edge="1" parent="k-2cysHBCC-xSpzVTrcf-15" target="k-2cysHBCC-xSpzVTrcf-17">
          <mxGeometry x="-0.0909" width="50" height="50" relative="1" as="geometry">
            <mxPoint y="8" as="sourcePoint" />
            <mxPoint x="110" y="8" as="targetPoint" />
            <mxPoint as="offset" />
          </mxGeometry>
        </mxCell>
        <mxCell id="k-2cysHBCC-xSpzVTrcf-27" value="" style="group" vertex="1" connectable="0" parent="1">
          <mxGeometry x="390" y="159" width="130" height="36" as="geometry" />
        </mxCell>
        <mxCell id="xtpNrOkgLzYpHderiMOa-27" value="&lt;div style=&quot;text-align: justify&quot;&gt;&lt;b&gt;Vald Ingress&lt;/b&gt;&lt;/div&gt;" style="rounded=1;whiteSpace=wrap;html=1;fillColor=default;strokeColor=#CCCCCC;align=left;spacingLeft=40;arcSize=10;" parent="k-2cysHBCC-xSpzVTrcf-27" vertex="1">
          <mxGeometry width="130" height="36" as="geometry" />
        </mxCell>
        <mxCell id="xtpNrOkgLzYpHderiMOa-28" value="" style="sketch=0;html=1;dashed=0;whitespace=wrap;fillColor=#2875E2;strokeColor=#ffffff;points=[[0.005,0.63,0],[0.1,0.2,0],[0.9,0.2,0],[0.5,0,0],[0.995,0.63,0],[0.72,0.99,0],[0.5,1,0],[0.28,0.99,0]];shape=mxgraph.kubernetes.icon;prIcon=pod;fontColor=#006600;" parent="k-2cysHBCC-xSpzVTrcf-27" vertex="1">
          <mxGeometry x="15" y="7.714285714285708" width="20.83" height="20.57142857142857" as="geometry" />
        </mxCell>
        <mxCell id="k-2cysHBCC-xSpzVTrcf-29" value="" style="group" vertex="1" connectable="0" parent="1">
          <mxGeometry x="713" y="148.85000000000002" width="152" height="36" as="geometry" />
        </mxCell>
        <mxCell id="k-2cysHBCC-xSpzVTrcf-30" value="" style="group" vertex="1" connectable="0" parent="k-2cysHBCC-xSpzVTrcf-29">
          <mxGeometry width="152" height="36" as="geometry" />
        </mxCell>
        <mxCell id="k-2cysHBCC-xSpzVTrcf-31" value="&lt;div style=&quot;text-align: justify&quot;&gt;&lt;b&gt;&lt;span&gt;&lt;/span&gt;&lt;span&gt;&lt;/span&gt;&lt;span&gt;Vald LB Gateway&lt;/span&gt;&lt;/b&gt;&lt;br&gt;&lt;/div&gt;" style="rounded=1;whiteSpace=wrap;html=1;fillColor=default;strokeColor=#CCCCCC;align=left;spacingLeft=40;arcSize=10;" vertex="1" parent="k-2cysHBCC-xSpzVTrcf-30">
          <mxGeometry x="-8" y="11.3" width="152" height="36" as="geometry" />
        </mxCell>
        <mxCell id="k-2cysHBCC-xSpzVTrcf-32" value="" style="sketch=0;html=1;dashed=0;whitespace=wrap;fillColor=#2875E2;strokeColor=#ffffff;points=[[0.005,0.63,0],[0.1,0.2,0],[0.9,0.2,0],[0.5,0,0],[0.995,0.63,0],[0.72,0.99,0],[0.5,1,0],[0.28,0.99,0]];shape=mxgraph.kubernetes.icon;prIcon=pod;fontColor=#006600;" vertex="1" parent="k-2cysHBCC-xSpzVTrcf-30">
          <mxGeometry x="4" y="19.01428571428571" width="20.83" height="20.57142857142857" as="geometry" />
        </mxCell>
        <mxCell id="k-2cysHBCC-xSpzVTrcf-33" value="" style="group" vertex="1" connectable="0" parent="1">
          <mxGeometry x="723" y="157.85" width="152" height="36" as="geometry" />
        </mxCell>
        <mxCell id="k-2cysHBCC-xSpzVTrcf-34" value="" style="group" vertex="1" connectable="0" parent="k-2cysHBCC-xSpzVTrcf-33">
          <mxGeometry width="152" height="36" as="geometry" />
        </mxCell>
        <mxCell id="k-2cysHBCC-xSpzVTrcf-35" value="&lt;div style=&quot;text-align: justify&quot;&gt;&lt;b&gt;&lt;span&gt;&lt;/span&gt;&lt;span&gt;&lt;/span&gt;&lt;span&gt;Vald LB Gateway&lt;/span&gt;&lt;/b&gt;&lt;br&gt;&lt;/div&gt;" style="rounded=1;whiteSpace=wrap;html=1;fillColor=default;strokeColor=#CCCCCC;align=left;spacingLeft=40;arcSize=10;" vertex="1" parent="k-2cysHBCC-xSpzVTrcf-34">
          <mxGeometry x="-8" y="11.3" width="152" height="36" as="geometry" />
        </mxCell>
        <mxCell id="k-2cysHBCC-xSpzVTrcf-36" value="" style="sketch=0;html=1;dashed=0;whitespace=wrap;fillColor=#2875E2;strokeColor=#ffffff;points=[[0.005,0.63,0],[0.1,0.2,0],[0.9,0.2,0],[0.5,0,0],[0.995,0.63,0],[0.72,0.99,0],[0.5,1,0],[0.28,0.99,0]];shape=mxgraph.kubernetes.icon;prIcon=pod;fontColor=#006600;" vertex="1" parent="k-2cysHBCC-xSpzVTrcf-34">
          <mxGeometry x="4" y="19.01428571428571" width="20.83" height="20.57142857142857" as="geometry" />
        </mxCell>
        <mxCell id="k-2cysHBCC-xSpzVTrcf-37" value="&lt;font color=&quot;#ffffff&quot;&gt;&lt;b&gt;3&lt;/b&gt;&lt;/font&gt;" style="ellipse;whiteSpace=wrap;html=1;aspect=fixed;fontColor=#006076;strokeColor=none;fillColor=#006076;" vertex="1" parent="1">
          <mxGeometry x="710" y="112.00000000000003" width="16" height="16" as="geometry" />
        </mxCell>
        <mxCell id="k-2cysHBCC-xSpzVTrcf-38" value="&lt;meta charset=&quot;utf-8&quot;&gt;&lt;b style=&quot;color: rgb(0, 96, 118); font-family: helvetica; font-size: 11px; font-style: normal; letter-spacing: normal; text-align: center; text-indent: 0px; text-transform: none; word-spacing: 0px; background-color: rgb(248, 249, 250);&quot;&gt;Deceide which agent to&lt;br&gt;process request&lt;/b&gt;" style="text;whiteSpace=wrap;html=1;fontSize=10;fontColor=#ffffff;" vertex="1" parent="1">
          <mxGeometry x="731" y="100" width="150" height="40" as="geometry" />
        </mxCell>
        <mxCell id="k-2cysHBCC-xSpzVTrcf-39" value="" style="group" vertex="1" connectable="0" parent="1">
          <mxGeometry x="901" y="153.29000000000002" width="110" height="16" as="geometry" />
        </mxCell>
        <mxCell id="k-2cysHBCC-xSpzVTrcf-40" value="&lt;span&gt;&lt;/span&gt;&lt;span&gt;&lt;/span&gt;&lt;span&gt;&lt;b&gt;Forward insert request&lt;/b&gt;&lt;/span&gt;" style="endArrow=classic;html=1;rounded=0;strokeColor=#006076;strokeWidth=2;endSize=0;fontColor=#006076;labelBackgroundColor=none;align=center;labelPosition=center;verticalLabelPosition=top;verticalAlign=bottom;spacingTop=0;labelBorderColor=none;spacing=0;spacingLeft=0;spacingBottom=20;startArrow=none;" edge="1" parent="k-2cysHBCC-xSpzVTrcf-39" source="k-2cysHBCC-xSpzVTrcf-41">
          <mxGeometry x="-1" y="-8" width="50" height="50" relative="1" as="geometry">
            <mxPoint y="8" as="sourcePoint" />
            <mxPoint x="110" y="8" as="targetPoint" />
            <mxPoint x="-8" y="-8" as="offset" />
          </mxGeometry>
        </mxCell>
        <mxCell id="k-2cysHBCC-xSpzVTrcf-41" value="&lt;font color=&quot;#ffffff&quot;&gt;&lt;b&gt;4&lt;br&gt;&lt;/b&gt;&lt;/font&gt;" style="ellipse;whiteSpace=wrap;html=1;aspect=fixed;fontColor=#006076;strokeColor=none;fillColor=#006076;" vertex="1" parent="k-2cysHBCC-xSpzVTrcf-39">
          <mxGeometry x="48" width="16" height="16" as="geometry" />
        </mxCell>
        <mxCell id="k-2cysHBCC-xSpzVTrcf-42" value="" style="endArrow=none;html=1;rounded=0;strokeColor=#006076;strokeWidth=2;endSize=0;fontColor=#006076;labelBackgroundColor=none;align=center;labelPosition=center;verticalLabelPosition=top;verticalAlign=bottom;spacingTop=0;labelBorderColor=none;spacing=0;spacingLeft=0;spacingBottom=18;" edge="1" parent="k-2cysHBCC-xSpzVTrcf-39" target="k-2cysHBCC-xSpzVTrcf-41">
          <mxGeometry x="-0.0909" width="50" height="50" relative="1" as="geometry">
            <mxPoint y="8" as="sourcePoint" />
            <mxPoint x="110" y="8" as="targetPoint" />
            <mxPoint as="offset" />
          </mxGeometry>
        </mxCell>
        <mxCell id="k-2cysHBCC-xSpzVTrcf-43" value="" style="group;rotation=-180;" vertex="1" connectable="0" parent="1">
          <mxGeometry x="901" y="185.29000000000005" width="110" height="16" as="geometry" />
        </mxCell>
        <mxCell id="k-2cysHBCC-xSpzVTrcf-44" value="&lt;span&gt;&lt;/span&gt;&lt;span&gt;&lt;/span&gt;&lt;span&gt;&lt;b&gt;Forward insert request&lt;/b&gt;&lt;/span&gt;" style="endArrow=classic;html=1;rounded=0;strokeColor=#006076;strokeWidth=2;endSize=0;fontColor=#006076;labelBackgroundColor=none;align=center;labelPosition=center;verticalLabelPosition=top;verticalAlign=bottom;spacingTop=20;labelBorderColor=none;spacing=0;spacingLeft=0;spacingBottom=0;startArrow=none;" edge="1" parent="k-2cysHBCC-xSpzVTrcf-43" source="k-2cysHBCC-xSpzVTrcf-45">
          <mxGeometry x="-1" y="39" width="50" height="50" relative="1" as="geometry">
            <mxPoint x="110" y="8" as="sourcePoint" />
            <mxPoint y="8" as="targetPoint" />
            <mxPoint x="8" y="-1" as="offset" />
          </mxGeometry>
        </mxCell>
        <mxCell id="k-2cysHBCC-xSpzVTrcf-45" value="&lt;font color=&quot;#ffffff&quot;&gt;&lt;b&gt;5&lt;br&gt;&lt;/b&gt;&lt;/font&gt;" style="ellipse;whiteSpace=wrap;html=1;aspect=fixed;fontColor=#006076;strokeColor=none;fillColor=#006076;rotation=0;" vertex="1" parent="k-2cysHBCC-xSpzVTrcf-43">
          <mxGeometry x="46" width="16" height="16" as="geometry" />
        </mxCell>
        <mxCell id="k-2cysHBCC-xSpzVTrcf-46" value="" style="endArrow=none;html=1;rounded=0;strokeColor=#006076;strokeWidth=2;endSize=0;fontColor=#006076;labelBackgroundColor=none;align=center;labelPosition=center;verticalLabelPosition=top;verticalAlign=bottom;spacingTop=0;labelBorderColor=none;spacing=0;spacingLeft=0;spacingBottom=18;" edge="1" parent="k-2cysHBCC-xSpzVTrcf-43" target="k-2cysHBCC-xSpzVTrcf-45">
          <mxGeometry x="-0.0909" width="50" height="50" relative="1" as="geometry">
            <mxPoint x="110" y="8" as="sourcePoint" />
            <mxPoint y="8" as="targetPoint" />
            <mxPoint as="offset" />
          </mxGeometry>
        </mxCell>
        <mxCell id="k-2cysHBCC-xSpzVTrcf-53" value="Vald Agent" style="text;html=1;resizable=0;autosize=1;align=left;verticalAlign=middle;points=[];rounded=0;fontSize=10;fontStyle=1" vertex="1" parent="1">
          <mxGeometry x="1052" y="100" width="70" height="20" as="geometry" />
        </mxCell>
        <mxCell id="k-2cysHBCC-xSpzVTrcf-54" value="" style="shape=image;verticalLabelPosition=bottom;labelBackgroundColor=default;verticalAlign=top;aspect=fixed;imageAspect=0;image=data:image/png,iVBORw0KGgoAAAANSUhEUgAAAKYAAACeCAYAAAC4oXG3AAAACXBIWXMAAAsTAAALEwEAmpwYAAAAAXNSR0IArs4c6QAAAARnQU1BAACxjwv8YQUAADNJSURBVHgB7X0JcBzndebr7pmeG/dFXARAkABvUrwkSqJkyZZkyVJsOb7WzrnOlnOst2prU3GSTe1WspVNZbObbG02m7U3tpN1HDleX4ocybJlXdZBiRRJ8T5AEASI+xhgzp6+9n1/T4MDECABEAQGwHxVj0M05kL31+9/1/8eUQFzgm3bMstBlj9jOWfPHe+y/AleSwXMGRIVMCuYTAo/NLB8gOVzLOtZKll8WZkL0iwayzDLWZZvsrwmSdI1KmBWeKiAKWAy4mbFebmLZRPLNpbtLDtYilm8eBqLkdTswdGYYUwkbIqlbcXnlcygj+zioEcui0gBr0cq5+f5cyTIYrG08+ec4MfzLGeYpDYVMAUFjZkFlmpyiFfFUsfyUZZ7WNpYItmnGZpuZ8YTlt43ZnqvDmSuXh4w9eFxSxqLWZ6gT9aLwpJVX+7xNlYqRbXlnvLqEsUIByWvV5GgYd3z3c9yjOVdluezP4+wxAskdVAgZhZMTJDvQywPs/w8OQSd+hyiia4B49oLR1KJb7+eaB1PWUW2RfJM7+dRJKOuQu77Nz9X3LN1vVpdUSTDJPDO8NQLLP/A8hzLCSamTgWsbWIyGbG8VrN8jBwywoYMk6MhFfEcokxas8feu5y+8szLyabL/UY4odlKPG2ps5HShcLkjPgloygk6e113uhH7gn07mkNtPo8VCxJk2YUiAgbFFrzKsu3Wb7LMsokNWiNYk0SkwlZRM4yvZcc+7GdpYUlxCLIZtk02jOkx49c1OX3LmXCV4f09LURKzyRsAKW4xTNGYosGWx7ZhqrPBMbaz2BvRsDsT0bVamqRC7JfiYAgiZYOlhOspxieZvlGBM0SWsMa4aYWe1YxlLPso9lDznkBCFV8Rz2oONJKzMSs7T3Lmhy56ARP3pRUzv6jArDmnEZnjcCPindVucZu2ujz2yu9kR2NKvpqhIlrHokfAf3M+Isl8mxQ99ggaMEbQotmqE1gLVEzAp+OMDyCMu/IoeMU5Zi06KR/jFr9Pl3EyNffn5ir2WRYpN0R84RbFBe0rXffDJy9KFdwXq2Qav4k8LTnmayQFt+jeWHLIeZmOO0BrCqiclkxDIJjfjb5JByA2Vtx+vPIZ097cvf/llq9Ptvxpu7Bo1KPjavpfp24VFI39qo9jy0OzjwqUPBGq8itPr0UB6WejhK/8zyP1gGmaQarVKsSmIyIeHEYKl+kOVulkYW2HPQkuJvTmfsvrPdmfixjoz16imtvn/ENMaTVkg3hP24pOeFCWYF2AYtDSt6ZUTyHNoeuLavzSdtqvcWe2SqyD4N8U8s8QjUIzh/mOUVcmzQXlplWDXEzGrHWnIcGmhHBMc3k+Npi7+Tl+a0btkTb53R6Fy3bp/r0a0rg4bUPWhUU56cC17O7aZqT39LjUdqb/AqWxrVzN6NPq8sU5EsiSA9gCW+k+UMOVr0PXIcpYHV4iit+MwPExLZFDcwDlL+C3K0ZNB9DnvYGmtIaSxupcfiZvQfX0/Q2at63QRrSMozsBkhdfYb61jsd85ryb2bfH0lYdnPISe1LKRIqlciJiiC9a3kmCYgIrQnNP1xPh/d/Jhe6cv8itaY2fThR1g+Sw4pN8zwNKs/ah797s+Svh+/l6q4OmTU0gpEc7W355G9vuGP3ROWK4vlHbM87TTLmyxfY2K+RSsYK46YWTJuIcd+fIyc0E+AHA3prgDGRNLuf+9Seux7b6WKz3RlqjXDllKa7bFuERTPV3As1GQ71IwE5Mz+Nn/P0weDess6T1XQJ2GlcK+jkZUxcsJM3yMnm3SaVhhWBDGzZEQ2ppkc+3ErXQ+Mr3Ofxks28thDb55Jh64MGPr5Ht04fVUPRONWKa0SgKDVpfIw259me72qcCxU3rPJlyoKSjWSEwd1ryningjSo1DkfXJioh1M0jitAOQ1MbOFFfBK4Zwg7ANSInWIIgvXhjQ1nZLxlGXxMm2xU9P3rdfiVaMxK5RI2wFaxSgOKePrqzxjH94biLU1eFo4UG+VhmXJ75VwbtyVAXFPZJN+xPKz7P+HWMbyuWAkb4mZ1ZI4wU+wfJycmsjKG59HiUu9+oUXj6XkH7yZrOesTTmtQdSWK30fORDqe2iHT95Y50U0YqZ6UXjyL7J8n+UnLGa+kjPviJn1srFEw6n5dXLSiGruczhXnRgct/pPdmZ6/vMz4zsTmh02TLtQW8pANqmiWBn5D58tudTeoLaF/BLit9NJiuJlFI18leUHLGfzraopL4jJZASpsOyi5OxeliaWjeTEIkFKhEIM1o6pS72ZocPnM6H3r2R8/aNm+sI1vcwwycO/W5FOzWIDwXq/SsjHx9ZXeZW2eq++r82baK5W6yQnzITzhGA9wkxY1hELRdEIqutfYNHyQYsuKzGZkCAjAuDIzCDUgzz2bnIcGldLJjneqF0d0q2OPlN5v1MfOd6hlfQMm8UFLXlz+Jig9eXe8V0tvvHdG7zVm+o86aoSjy8SFDaoe35TLFfIcZJ+kH0cYOlZzoKRJSdm1qGBoPQMQeIPkhMQx6NwVmzc0TZZ6QwZwxNm4uI1ffDVkynzhffSG03DVu1CgfO8IFKeXkrdt9XX9djeoGd7s1oW9EthdpJwY+emYEdZXmJ5neVlFqQ64TxZS61Fl4OYCN00sfwyOVka/DylaIJjjRMc4un7h9cSw88dTmweGrdKCkv14sDjkTIN5croJ+4PXvjI/lATE7SCl/jgtKfB3sRWj39k+WtytGeMlhBLQszsbkMs2Q+x3EdODBKB4drsdxDfI6PbV49czKTf68iob51JVQ5P2MZ40gjphrTkhRWrFXwSbU5r6qVhJVlXIanbm3zD9231p7c3eyMeWXJjwrBBkdIEOVEXeomcgP2Plmp35x292ExIhG4QFAcRkaHBjkM4NSCl0ICGZU9MJOwkOzHmG6fTPrYjM91DeqBv1CwpLNl3FookmTXlcnTDOm+mqcrjO9DuS22q83pLQnJAlic34KFgZJCcYhEE6V/L/r/rTgbrF/3CZz1saDgUVsCrvp/lSXLsyMnPsyw7M5GyJHZsBq70m7FnDyf1l0+kd1ABywFblsh+YIf/1OP7Aj725CNFQaU85JNkJqhbVQ8bEyR9lhw7FNVMPSzjd6Jg5E4QE4SEhvwdll3kbGWYAqQORyaMs3/+3Zjy7sV0/WjMLqEC8gIou1tXJo88tCtw5fOPRPwcB22TZWn6thKQFFVM2PLxRyznFtsGXTRiZotzUVSBHYe5zQHcP8oaiRlnXz6uWa+fzkTOdmu1rC0l0yJlpRZWrFZ4FNnwyrYZDkoyCkbu3xbQDm5WQ0zShpyn6VmJsvyUnJ2dLzNBo7QIuG1iMiFBPNiOv5V9RE57suo6lbGinKUZfuFIqqSj15A7BzLSYNRWObcdoQLyHmURZaK6RDFb1nn09nqP9fj+oBb0SWWqR8L+pNwGDigYgQ36F/gZISq6DdxWgJpJiUwCUoaPkqMpEZsUoZ+MYU+Mxizq6NdTJzr0zHOHk+Zo3CzRjanpxQLyG6Mxs4iFrgxktAs93sGAj8NNlV69tkxJ1pQqxDYoiq1ryFkh4dUfZ/kJc2OEyWnSAnFbGjO7fO9n+QZNLbmiayPm2195IVb+2sl05XjCKtiQqwj1FUrf4/uC0c89HLbYQdqa8ysQEXuSUHhz9na2eSyYmFlt+RssXyQnYC4Os5aMPvdO6uR///74ISpg1ULKevJ/82/L39hQq+4IqlJxzq+Rc/9TJubLtEDcjtOBnPZOul6oS/2j1sDzR5KDz7ySKIR9VjkQYzZtkv7w78e3HzmvDaU0ezDn1+iUt42VVw0tELdDTKjwJsqWVCGNeKZbM948k1EHokZh6V4bkC4PGMU/PpbydvTpWMbdog8kUFAHsZ4WiAURM1vEuzP3g0diVu9b5zXP2+fTC/4yBaxAsNZ89VS6/PCFjFcz7NxQETJ8u2mBWKjGhKODYt4698AP3komT102dCoUW6w5JFJ2+OxVPX6uW+/MOYy+ottpgVgoiXA3wNhFuAlZgDRryobeEaOMCliTuNJv+H/yXjrXAcI2mMaskzxvLJSYsC9FgJVZaaYz9mD/qBlJaNaq3vxVwOwYGjcjZ7ozFbYtqpKgrMAPKKoGWgAWSkxkeEQNH38Ra2jCHEhpllSomVy7iKet4NCYVcIp5jHmARwhd8v1ZloAboeYomWeYdrWpWtGwrQLvcPXOKS0blnRuIl6TTfjA44syM5cKDERpxIak5dx+fUzybCu24XayTWOjEnW6S4joWPboAPYnHfRAjAvYmLzGAtiVBAYtTaiV+9fNmtQJUQFrGmYvGwevaT5DWsyowjlhUC7lA0xzhnzLeKAakbg1Nk0ZlM6lbEzfWNGOS/pa46YkYBEpWGFikMyFbHwOUDRA8InNJawiLMhtJaQMUg5flmrSGlhOegTPETBDupxkXBBf/k577qcLzFRPbTR/cGyKaFpZiyt2U20xoAG2NUlCm1uVGljvZe2r/dSkol48kqGLvbodLbbYGKuraETrDGVzn6zGjcoOZ45VmRoTeztgu15x4iJJfxe94do3Ipf6jORI22iVQyQ0O+VqL3BS1vXq7SjWaXtTV4qL5LR5GrKc+9ud8J2Jps4/WMmHb+coQvXdDrFhD3TrRPbX2SvUkWK/DlHZ0LjCbOjoliu4HPjxjXBmVfIKSqeE+ZLTHzQZJnTYNSQOOK/Kp0ePrFUV+6hDes81LLOS638GAnIFOblO+SXWaQbSJkLSXbeY3+bSjtbvPTY3gBNJC26MmhQZ59Ol/sNBKWRyqXVBNxzfVFzoqbMEykKivODfxDFeX8+7zNnYmY3mWEPeKN7bChmqZf79bzryjtfgF+wE8sjMpWEZfH/unKFqkoVaqry0LoyD2oQBRHnOsMC7+ljLVtZ7JjeYvgka8vqEpkaK/C+BvU1mNQ3YgpyRtkmHWfhVYhWukK92m8Y7Q0+MUwpC5h/8+LJfDQmbAVsmXA78poDo2bwQq++4oLqiuyQxqOIsSYUZg24qc5D7Y1eaqr20Fa2G6tKFteXA5+9Honf3yvknmzYmTNmYqk/fTVDnaxBz/fANrVIZztNY4tMZ0PeWmFK9VSX4dvbZinVxZPUQF1FOTzzuXb0mA8xm8jZIy4+DXMV+6OmOhS1qmiFoaaMnRa2FyEbeJnes9FHAVW6QxN9bv1dIIe2+4XtmdbZgYJd2qvT+50ZdqZ0NpkWvENhWXCiU6sdiAZDmxsm6YWKM9RmQonOaU7RfIjZnBWB0Zg1EI2Z+KC8XsqxpEITbqhhe7GWtVWVlzbVe4SmFFozqz2lPLCUXSdrxwaVtjap9JEDQdKYqNCkl/sMushkvcTa9Rx7/VYer/ejcbt0bMKImZaqsfmDUBHOblNWTszlPeZDTDewLjA8burRhJ1X8RD3wq5j+7A8ogh7DktyfaWHKtiDhr1XGpYn7b58hPs3OJuenbtFZRMAEQCYGbtaVLo6ZKBogq+BBQVBPcOG0LT54u0jbDSetJPpDGVCfnKLxtEVes6r65yImY3aw7acbF7AnqU8MmHlhUeOCxfggC527a3jZbG9XhXOS3MNOxk1XrFMr2TgZoJsrBWxY0qmLeoeMqmLCdrNco7DUL3DTFQO7sOBMvPAJuUbJjEQNbWWmkmKYQtO41xfP1eNCRUDUla7By72mcHBcWtBtXaLDWjDPa0+euqeIN3Vurp3B8M0CXPYanMjxOklAefopRMpevbtJJ1kuzSWWn7VeW3EsK4OmWYOMUHKdXN9/VyJidgljFeXiKmzV7Xa4aiRF41Te9mz7X0nSc8fTdJ6Du/sb/MRTkgbOzdtdV5hT64WYLlGkB725nm2NTvY9nznvMbLu0nZjEte4EKPXnz0ohZ8cPuk7oIDtAH1FuyZp271+rkSq4mc4LoA58f7UzrVmHlWf4llDh7sW2c1Ot2l0+un0lRd6hEkrWRbs4Hjh1juoXFWEhK8dPPqRFc5OH+N7Uk4Q6Nxx75E0H54wkSTMson8Pcq6h8z0EIGJERthdtoDSvvxVu9fq7ERIB0Ml46MGZiuyZimnmhikA2OA3IVcPGiqUcn0wEudUMNbPTAIenkZ2g6lIneF4WuV58URzML6LGkjZNpCwamTBEwL131BLOjiDmCGeMBgzWmjTpmePvLOXkAFaGdMY5B8uNuGYH2EGWtIw94lMlkBFcATHRQmjRiNlCORqza8hMpjU7b4JrzawRA6pM/VGDSWlNBqRx4VDhc+aq0/9JdIjlf9rqvcI+284hmY0cQipqkPMiXATgu3N8mJdojmNyPBOxTISHZvO48b0RuG9hJw9hr3HWoLAzlx02SRldMuJpezBLTMAl5i0xV2JiG+bkjJ2XjqdDfEfnTczl4BY/Hdzso0a2L+NMzBMdboDaCVJjuQNwbXGBz3brQr77RhK9d4TG3MYk3cGyiUmL3HZkiZb7MdaIF3oynC3R+dGgw2wvxnnpno2I+L4lrOW3rVf5O3NMtu56guDwOY1ePZnOD2IyWEmY73VosQ/tntwKBud5z1xee1NisqEKFxddgUFKpCTF6TrRodWxxsw791dMrOKw0bZmlVr5gh3aZjFROUA94CyBcBSwHHYNXg+/ggDQsqj+wRLpPyaJQg0s/24RRzNrIyz/t6tVocH7R/k7sJ3YNWCK73Geb5AkpyATaVsQEubIdFLW8mfX4rsgScCZqg21Hgr7ZAoFnHRqviQIpoN9EfnIpUwwh5gwB9vnkpq8lcYEGd0EPKqQNcuW4mzvlGZM20t5Blwc2FmlYfcqKeIi11cqbK95aUezyY+mqOwZYmcCjhLHYomNdKG5IO77dDNpKtgufb9TFg4UHCc4ULBVKzkHXMWP+KzZCIHPzbD3jFw4iobxWSiDQ9EG7EU4M/gubK9PFm3grRReh+oq3ASBwgkCmRrYNkaA3flZ4fCYkpdEnI5k2vSduKRBS+LE4huDR1ByFcyl6M2GXs2VmOJ5hsW2tWkPcZqsnVYIcAEdMiminhIAQZDiO9udESTF8oigNQonOFshwi7DE5aQc90o+tAEMaCtEH6CFm1vVAllXV6kNlUntenkujnzgZbJnIlBxdDZqxnW0iZdYpvxDC/XOJbrQOcWlOC9ImxWbGZzopk/A5+FdCqIuBKRMch7bdgEEbGlFycfPAKnYHOion3BxATDYROIYBQv3+nuYRMDMlcMMWcCvHjIwS0+QSbko4Wjwcs5YoOwTRGCcYFMymAUWk8ToSjX4UCxMGy91lqv+L+oYGf77qKoFuI4Iz/eqjIIWnDLescRg724i/PkXiU/l+b5gm9AmZfzADug51WvVMM3IZwfPzmcQrPXWdsU3oqYxZRDTI6dSW+f11ZVYbCUrZt0CyegNeHJX+o1hGcMokKQn3ZtPzfIfeqKLtKBqNP0q44Nicp1EN0w6QZS4rMQsmpnjbgJlU011wtKkB9XslpzNZDSBU4Zr07D7JiWRpzCYRATOydfudnrZiVmtoU1jFW492It4biU78gFbdW1gZleOFHM6wRy741Vikhxwg7lvC/1cHYFThSclj62HWFDamIx4rjjtHsflwA5fBCxku1EZKRgKzo2olOMDIGHvdpxojPN8eKgHQkKGoFzqGgPMccwtW3G19xMY8KVAgnF5DKM0YvxKtY1YKz6scs4VSU5pIHmg8d8ZQCOky7sU2jTMZF9MdlutIUGBUDoENuc5WzTlonCC69wZrA9A7ZpUTB/YqZLhXPdZmB7s+VtqBTEdIeRQem5A1dvwM2ICaO1mdxxejYlRsYNmR2HalpjgHMEQu1ohngFUaEtsdEMhRPvXcoITxtoqPBwXFGlR+8KsO2oiteuMR7egBOdmdqH7wq4MSOsS3B+oOBwLDHTa262jqAaZJv7w0TKHhwetwaoAEE2P2tF7IhEFgkeuwvUTO7ELkoWpUBKgZ5ho2ZozND4hnZ3SeK0oDCofrbX3IyYYPRk/8vRCdNkYq6sGv9lQqGJ043g1GScPXR3xB+IiS5ws5qFNyMmlvLJ7sDslSrdw0ahDcx02DQlUzO51b+AKWATMMUJhdxyNzjVs1a0z0hM9pb82Re5qta+NmwE+M0L/S+nYSYiFnh5I/pGnUhGDppYqmbraTSbxkR/IlQb+7M/6x19ZnnfiFFJBdyAAhFvDY5ohM/36rnT8LAaY7vOjKnt2YiJNOSk981ptr5YykxxBiQvKtYLWHngTFpJz5BejEZs2UPgUu6qPAWzEbOdctb/wTFjLJa0jML88DmgoD5nRFq3/eNJ2+Ss2Ej2ELgHjjXN9PybacxJYl7u03W8KRVwI6bVqCGbUSDnDOAkTzJlayMJczjnKDjWPNPTb6YxJ+3JU1cz6kTCLHjkM8CmqTyc/nMB1zGetPSr/UY659DciInGWSwwSOH4uIaqfeJypjaacFpbFzAV073yAilnx1jc9hzt0HJ5BJ61ZjsOT3nudI0JrYh2T6gmki3bzpiWPTQ0bkXSuuWnAmaEPe2HAjlnRjRuhE5fMaAl3fw4SAonG1vDp3BxOjHhKSFUJEjIJDYSaXskmbblwqiUmWHP+WABmk7eoahRbNmUzI5cAd+wMsMzn7JVZzrZoCm3kVuxbkqZayPmsGnT6uouupiwadV2CF5sINyY0EjJ6HYvOVXtAIrRMXJlSihyOjGhKdGWWBQGTyQt6fVTaSmztlqJzx+5NmZhKb8pNMM2L1zL9HP4yN3KiWL0g3S9y4vAJDHZ+IR9CfYihymi8fGU5T1yMVPBDC8E1meBPcdjBThAGdCxSxmFzUM3Jg7OodLIn+sA5WpM5MFhiE7OiIylLKl7UC83bbtgX94E9iz/L+BGaLqlnO4ywlpmklPgXUP2cZJnuYRDpfomyhYGM3lTSc1KD45bFbZVcHxmxUxLd4Gds8JiLp29mqlmMxE8w5nC6oywEeLmk0VCuYTDNorJuX8pzRofjFrYyVZIQxawaDAsUvrGzJqxhJVi5Zdbn7mFHA4K5BITRZuTo1KGx03jSr+eH71G8hj2DD8XFObNgfMzMKajMdtE9pA7cmUqMbM1cfCO1ru/GI3ZypUhc3V3QV0k2AUjc94YiNo6pyhz6y+Qmpxs3OZqTISJ0FZwsjC4d8z0XxkwI1TAzTG9SNjt3FXATdE5oMtD42aumYjETplbOOwSE/lxpIXcPKbeP2qGrw0XCoNvjZnKOAq4FTr7jHDfqJmb5hbEpGyg3SUm8uOTVR7s+PSMxcy4aeZfR7d8gz2DUVmg5q1xdchY1zNshPn8uRkgcA1hI2FOusQEKSd3RLK2HB+LW+lCYfDccEPZW4GZt4Ruknc8Yac4q+gWDoNr4KBQkLnEbHBf1NFvGKPxlVMYjC4Y+jI1xr/BK19GUuIcGCvkqqE7zHjcTEUTRu6kNHCwCf/JtTEn7clL/bpnJLZyCoM5mzDZoiUfsFzfBN1BUpmVU28TTdr6UNTScg6hJE7MAnILg/FDhfvbw2e1xr4RY8XUX375+Tg9/06a7tvmp1/6UIjKIjLJS9QgCBpyOQdGoJdnz7BJ3/hpXLS67h1dOTtg2LlWj13OBNBmPAts6dkGzxweELI9rjdumRYNcgyzSNMpL4ZLzQUgB6aCvXoyRRd6M3TfFr/oM4l+6j7P0prJ9hJF2NEqEY1nT3bp9PLxFF9kE218aCVhaMIqOt+jQwG6HYfdRm51ICayPSjcwJ1vjMWswXTGKjMte0Xt8UHT1JRminaBKXbbLvUZtLXRS1sg69XJiRUrGaJjMS/VGB2NMdKYxtHZr9OFa8aKdLhSaSvAsUyZoz+jsiyV8fVxC4c3uRXrQjvyH2cxi8dZa67IwmAxrJ5XMnTzRWvpU10eemR3gMqLFDHVAU3/F3tK2kxe+J3giMH243jSFr3cXzuVptdOp0Wf+JXi7MwEtkIUtBhP6zQS9IlhqPB5QMxWEHMXZYdLwV653K+beh6Nflso0FD1Sr/B9meMXnwvRR/Y6aeHdviF9lxpgA2LcSs/PpaiF4+maTS+enZS66ZkRBPWmF+VTUWS3B7tO/EfBDTF1ULfx4ExU87nWdgLAZyDb72aoDdOa6J56q8+GhEjSkQX4UXGYp47zCfC8IK/+VFMTLuAmZLWaVXBMMhiYurVJYp75mBzChsTFcQiDQQbTPVK9mqLqhvZ+F7PiEEJzWKSxqmtXhXT0RorFQr5b6/c1L7Fz/MFRu6h5ztsyNNdGTELKJ62RW/31QZZJsnnlXI7XuNihD3Z/0weri5SsnbY6jsJSb64ybRJ3/lZkjbV6XSg3UfbmzEiRRUhJjRjna+DNKMXvoBTh8kYGMOCjmgXenQ61pGhdy9kRGvt1QyPYivFQcXP593VDrgCMoiJmjgs5YpHIam1zuORV3m9OniDUScdfNGL35XpyQNB+sR9QfIqfFMuILxk39Agc/6At435Q8+wyQGbGJPS1kJqU/WQpzhMZTnERA3wCIh5mOV+lkrWlN6mGs/mkpBsxpKWzstf3k0/W0xgecdEiq//OE7feSMpnKN7t/rowR0B0aZ6IXAU6NwZlcrY9PKJNL1wxOnljp/XCiqLleEdLf6kqkgtOYdR1X4cxDxK1wdPirFqh7YFLr92Ml3eOaBX0RoBNBaa/UNrYdb5B3f5aV2ZR4xbvhnsBWyTxGs45SuC4s8fSYnxLJhjmcmjtOpSoLXWox9o82nTDo+yvANivsLyOGUHmWIe0yO7fXIsaWp9Y0YqnbHXRBdhzP/uyg6qx/ApDB7FpLJWtj/XVyk3nWk+pbroFtzCCJZO9rQv9up0kW3JFzlro2VWTvHFYqGmRB7d0+ozdzR7c3sZYfhEJ8sJEPNtlnfJKRSGSpXaG9XGfcNGjNNdo5d69XVrqT2MYTna7NuvJ6m2TKHdrSp96K6AGM2HyV4ca7vBQbpV2RtCSMhMpdmrPtGh0Y84FnmCtXPuWMC1BDYZjf1t/pF9m/yhSECuzR7GyTjJ8ia76IMe/sdi4/2r5KztXyIndBR4eFcgHQnK2u9+dSzGoYrIWuxdhIKI3ndS9FO2Ae/l/PvT9wZpc4NXzPxxMZfc+CgTEGYCyI5Zk9oaW7JzAVJyLLn70w+EKjbVe0I5vxpj+RbL/xPPyx68zPIyOQ0Pfg0HZEmKbGnw2f/+06XX/st3oy3D4xbSlmuycBjL/NGLGl0bMsVA0v1tqhiQGlDlG3dF5sybxKRdDLaHdkRue3DMWtOkZIfSLAtLqd/5ZLHdUOVRs7lxnBBoy//J8jo5CtINrEsJ1prv0/XJqNv4RWpRUAqxl1ryxhlf/1vnMuWccF+Tm9MQoB+Lc646kaHRhEn9UYM62VnBnMmxmDVl6UY6t48dqNc5l41YJKb6Yv4k5qOvaUhkN1Qqycf2hka3rfeWsuITrS5ZUMH+Jss/sVxjLopOWZM9ifjAMJMToaOfkFOfWcLk9AV8Uu3H7g0eH4ha/mjcCvCJX7N9jGArYvD98LgpluSJZJBJZ4rguItYyhazJvvZDHiJHRvdLGy1AAJeMtobfKlP3BdKKbK0PnsY2YMulm+zXGAOug0Qpi7N2a2TYDLWemhOdx+QzbG2jm++kuBYm9ZKBRQwT3z0ntC5z34gRC3rPLmz7o+zfIsJ+SfTnz/FoeEn4N5GXOn3WZ5hmZz9x0t67SfvDxZvqPV2UgEFzAOP3OU//pH9/rL11Z4NOYc7yOHY3830mhs87Sw5L7H8kOX75KhbW/VIvrtafepvPhmRQ34pwct8oZlrATcFpxsz1aXy0C8+HC7fWKeG2PlBJhH8wga0v2V5kZzY5Q2YMQTE5MRkgVMs/8xygQUzAJWyiKzev9Uf3NbkHQ8H5ExhB3UBswGKqzgk6/ds9sfaG9RyVmbuHjJ44EdYXmM5z1ybMZgrz/7G0hA/vMHyl+QQEx8WkCWq/KNfKOuvq1A0PlDQmgXMCL9XSm+q86W+9MkS5CSCLNiqA76gzfUfshxnjiVne/2c4pLsFP0xP3ycnP6ZAme6Mie+8kK8+LVT6SYqoIAcKKwtv/B4pOvj94cyrDXbcn6FsNBfMiH/4VbvMddszv9leZ4c116gZZ3a8siegHyw3XeOCiggB0/fG7rwgV1+hc29hpzDp8kxDV+cy3vMNSZ5npxiD4SPRLGHX6Xwtkavlkr702e69ehEyiqyCp2H1zSQbqwplUce2eunyhJPETs7boEGHJxXWV5jbTkyp/eay5Oy+fSXyMkModBjNw5zWqkkFJD9717M9Lx6Ku3PZGxfod/R2oQskxX0UfqpA4Gutjp1Ozs7qEqDdwy78i2W72Qf54R5kYjJCW2JWNQr5PTOlvkYdgT0/+KfDfmuDJjBdMYujPZbg6gskkd2bPBF//RXS912luCWqEZn2ccydjNnZzrmu/RiG8YZlj9j6cYBbCOSZaniC08UR+/Z7Iux116Y0rvGwGnr5AM7A+ZvPBHCigoBKaEpEQ//jyyYuJuieWBeeW/mILJCGmtJ5DbXZ19fh+Li/W1qUSJlatGYOXjssr6OClgwPn5fUFQu9WXz7fkMVkTW/dv84x/c5Zcaq1T0J3A7uBxjgfn3QpY388KCCjL4g04wOX9ATtcE1NSV+DxS1YF2f39Gt8a7R8zA8LhVQgXMG1A1H783ROURmY5eyuQ9MZurlbGn7wlqu1rUIiapW32GGDg88H9mrlylBeB2vGikK59lmQwXlYblmoNbgtVPHwydpAJWPXATfemTZae2NqklXo/kTpyAw4N09g+ZlG/TAnE7xIQtCWKi4AP2pqijqyiWiz73cHjHtvXei5GgFKMCViXWlSsjHz0YPLK9xXvAp0rh7GEs2djc+BfkpLQXjAUTM1vsgXJ4BE7/PPt/kFMK+aTwF54o8t61wa/xEp+mAlYVikPS+N1tvsynHwjWeBXyK04lOmwOKCg4xldY5uyBz4TbKvpFAp5tTXhciFHdw7KXnLbZyt3tvuKxmJmOpYzEsQ5dXe49Q0FV4rvcQ1saPMQ2sOiUVhSSqaZU4RMtiw1maF8ottWy0zE6MXsZADrHoXNHHb8fXyTRJAHLGpoUoBsbtlSgoHi2PkZVJQpVFStYXSjok0Q3ZPS2xB73K/16XgeCfV4ptW+TLwVnp7VWdbtQY/WESYfCDNiW8aziWjBuuxo9Wx1ylQmK/Cc8smbnOJU+tNPfMxo3Eyc79SLdXF5igoT8fegLT0ToucNJ+tHRFK2v8hB7lGIfj4ct975Rp1/Qs4dTTMzZHUkOj9D2ZpWe2BeglhqvIDYaJHQPm3T4fFq0dmHnj6wZuubxx9CGdYpoqrB3o08094qlLLrQY9D7nRn6+5H8nsEdCUjxD+wM2Pvb/Aigu819wQHYk19lPiyK+baoNyeT81F++DzLz7vHxuPmwBtnta4/+LvoflpGQDOiFQyIebwjw9qOCZG2xNaIM106lRfJtHuDSg0VHpJ5bfrtr4zS+R5ddFjLBa8E9NF7gmJLL/b7nLySoZ5hNCsgQXIQDVt10VXjD/52TOwXyqXnbz5ZRA/zDVLJGnOMNetPjqXE1ouWGg81VXvEvvOGKoVsVthHLmbo974+RnkC2+uRjRf+U9UZzuo0eJVJZwf4U5ZnmJTHaJGw2Pt3UGeHACtinIj2UyigFO/a4Nv04X2B9986q7VE41aYlhmttR6xc/HVUxod69BE22iVl+M3z6ZpV7OPPvtQmH7x4TB94+W4aKFtZrlZz6Td1+ajnawth8ZN+qt/itG5a7ogos3r9ivvp+hTh8K0sd5Dm9lkeGRPQLTfjvMyDS3bUOkRuyuxfL9+OiWae/WD+EzMcECmCr452DYXZkcmzxQn39iJzzwYuhQJyK2s9XObYCCm/RzLRVpELDYx0d4D5PweC/Z2BDxsHHO6yvPE/qDaO2xOZHRd4Qu5rN09fBy8hqYDObFxzAVsQ2iqB3cGaBOTq46JWMLL9EjW3mypUaiZtRk06vudGr1zQRNNC9wuGgiIv3VOE13jOAtG+zapguxgHl9Qtm+9VFvqoY4+p5Pb+/wd9OzHK7LJZJfpAhO9kU2M2zTRFhXFQSmxpdGbYFMowCaLq1jwh+F6I2zYkbuRbDGwqHZf1uDFKOn/RY63DseIlwBJuafd1/rY3qDGF3tCkaVlTVvGkiadYHvuysDUFn/oS9k5YNIRJhx6ZqJ35rrS663o2+q9gqwg8IvvpUVj1dzWLnB2YGPCVoSNBBsSwwngWEX8ktC2HlYFp7t1OnVFnyQlgJ2WcJ7QyyiTR30wvYqttzWoox/eExytLfe4tZW4UxE4h7ODjYt9tMhYdIcEzhALNrF9gZwN7Ejk4zp5PnEoWPLkgQB7tNIoLSPQpTcan7lfUEqzRHMCAJ5zVQ4xRZOtsCz6Gp1ibTdTI1U4PX1jToPYmjJFaEq2x1hLS7SB7UiV365nyBR26XSgqdbZrvzq1LF5vf/y0/eGlId2+3N3x+L6oa7yi9nrvehf+E56ymdZ/orl7ym7OYjZWcK2pvR7ny6JshbNSMu0aQhOizFLLAf7wKMxZ+lWvZIQAP9iiebvLcI7eI/ZwkHo/x5NOL+EbellLemRUcQqiT84nXH6GE0HnCC0IUSTLXOZN61gVSsvUoZ/++lI+N4tPizfrtmHJfz/sPxvIppTbeVCcMeIyXcR1A4KjFFOf9Q9XByUQ+0N3qLH9gR6WIssy5IO7SXPEpBAM2X8HjAxxiMn5AMPG2SUZUcDzhbSEO/hnfoaiGE4dyJIOlP/Tcn9nbK8Ra1QGOygGR8/GJhghy3McVu3YgiATYm6yh7pDu75uqOxRf7isD0Q30KjJKh/g+/EUHlEKf61x8KJpkpPnEMPS54ZQmjIp84898fLGrKqxDktac2x+wD8G+fwErQZPHgEyWcazQKNGmT7tCggiaUeHjtGocBsiCZMoRX5b+bfz8zM0ogztGA5uzoHfLK+o0kd+4UPRmyOFoTRLogcTYmtNV9heTtrrt0xLMWfj/pN7CFG+xnUc0Jb+NmJ2P7zh0IX+AKP0xKjkcM2CM94ZvjrkdXZVOeMXBlhj3s0fl0pDEUt4SBxylU4Qp4ZRnSVhZ2wT8CnCHsTxIR5gKW7e8hpJwNbNdd2dQFHaWOdF8soLSc4Ozb2xY9GullrbsjubgQGyema8VO0CaQ7jDtOzKxhjD/ksyw/JkdzCnzsYPCuTz8QSm9rUi/REgIOyVMcbN/dOnUqIYLjaJT1KMcfR9iGRDjn4rXrnvvPzmh0joPu69ip+fxjYfHozenZjuX5k4eC9NjegHCinn07KRwlACGnf+KMUpI17oM7ffTwLr+4CVyA5JWcovx1TgBwdoWWC5yEOPH5D0eirbXefTmH0Q0Q8crfpyXCUjXIAjkT5DhCiGE+Qk4gXuGQSpCDyWnOXUfHk0tTw4nOwQiyP84pxU11Hurl7E8o4GjBDZxiBC1AKnT+tXKsKKQs4Y3jtU1VXvqXj0boHKcwhyZMMXECsysRIgr5ZLo8YNAbTGQ9y2sQtJPDU8cvaeJ5Bzf7hTOFeCrODkwDxC/hmUO7GsswBKypSuk5tN1X3bLOm9t7H4oEG8mwS3bJfIIlIWZWa2Y4ZYkGCuggW8zyAH7F+eoIXyC5Z8gY//briYhlTx3vcieAcA1imdCcCIQnODMT4UA6CjPwwW+eS9OLnEufXoiBDM7xyzoTKsW5blssu+g6jFw3lmiO84le7mhjfZQJePFaZtK7xiO05kvH0xyn5Hx5rZcObfcLswJevpq1K948k+bvERSkXSooHPLhyEHm6ftCqS0Nak15RMaeHTEBkZwqdJDyTWkJo/5L2lKQ/7BRJifuPvyBh5xD5GdtYf3WU0VD338rmWGN4cOQdbqDGIubU4o4DrSrwpGBRsQcymffTokMzEzo6NPF60d5qX98v1PEwcue8KRhQyK4jqzOm2e1GUM+yI2DyB/Y4ae9m3xi1lAs6RRxIOj/zZcT9BBnnu7E1LbZAFIWh5SJzzwQKuKIA+wbt2uGGxpC14wlLaVfFmOGyYkl+9+x/BY52lOgo9d443e/PraNL34xLTJyizhQXfS1H8fFpIi1Dr6h9Id2BaJ/8JmSQXbqtmYPu37BF1mem8/uxsXCcgUlcCei7/sr5KQwBeorlW1P3R3ov2uDr4sKWBLct8U/8OlDoSg7Yk05h5FuRBnjy8tBSmBZugOjmxxrzU7+7zfImcqGIuMSn1cqfnBHgE+EpPeO6kP9Y1YlFXDHsG292sOZOHNjrbeMI1Ruo340vUIq+TvZxmrLgmUL42YNaWxaQgC+hxybhuorlKp9m3yh3a3qmKJIhbX2DgDpRlWx9Q/uUod3NKshDviXZ3+F840uv8jsvEnLiGWtKs8a1F9mQTc5t/JZ2VTvCf/rnysuryuX+wp7hhYfQZXSe9sCZ5+8O7yxukTJLfhFvPK/snxdWuYWk8u+vYSXdNwcGA2I6WxId8nOYcr0DBtd7AxVXbhmhM3bHEqA/DYC10gHYgovYoXpNTS30UXIL8fvbvemvvSpMow2qSDHA0d8EgrgKXIydYPSMheELnt3tuydiSoVZIXQRAE5WNQReDkuWP25h8LD2xq9t52XtSxbpBMRTEc95VokJUyjPa2e9JN3h7TSsITIiJtuRCUYwkLYGjG63KQE8qJtIJ8InQVbPzHrBbvtomiJxCm+4rvbfMqejWqSg9+LWiG9FsEp1PiB9qB2oN2PRKpbMYRaBRDy+yjMwLWgPEC+9bP8OsuPKGf/SElYbubcs8WxtiXNp69GfOqBYPeje/zs+Ii5oS5eYfkeE/JVyiPk3RZmNi6RS4etgz7dbmttq2fEnPjrH8YuvXw8tZ3tQx8VMGeEA1L6iz9X8vZDO327SsNybj0Cho1hxs5P82H5zkU+dgBGgTFCFn9DTjcH2KByZbHi/+ShYCXbneMFT33uKAopse3Nvr57Nqsbgz7ZvaFx/hCv/DuWc/lGSiDviOk2UCCnLxL2lYgwks9D6vYmteKJ/UG9ucaT8KkFct4KpWFlfEujN/bU3UEUm9T4vMKuxI1+jZxKdDicA5SHyMu5kIhv8pKOtOR/IyeXfoAlyHZH6Jc+GMLvtOePpEwME02mTX+hu/YUiLmL4aCs7WxRow/vCtAju/2wKV0PHBEOhITQ+GrEHSqab8j7K8okRIHxr7A8PHmMKHG53xx46Viy98vPx+6909VIKwkY/KR6JO2Pf6X08N5W31a2L0vpugKCtvwmy18xIefcD305sBKIibv9Uyy/zLIre9hMaraWSFv6xV5dvzpoDvWPmpneUVMZjZnqmhrYxlfQ45Gs8ois15d77NoKj7++XKnZVOexgj4pxLFLD12/zmh4hdE4aKg6QXmMvB/xzCewPzsxI5CVFhYvn/Rg0KdgY1msvd4umkjaxljckBOardjW2tKgIGbEL5llEc5uBRU1EpBRGOPPeYrbtxLbI97Kd1ICK+ICZtOWmJaBJf1JlnpybM/CEn5zwH5EPQKSFl9j+QGTspdWAFbMhc2SE3tRULz6GZbttAI0/jIDmhHVW19jQj5DKwj/HxozwUG/W+/7AAAAAElFTkSuQmCC;" vertex="1" parent="1">
          <mxGeometry x="1075.66" y="145.15" width="13.66" height="13" as="geometry" />
        </mxCell>
        <mxCell id="k-2cysHBCC-xSpzVTrcf-56" value="" style="shape=image;verticalLabelPosition=bottom;labelBackgroundColor=#ffffff;verticalAlign=top;aspect=fixed;imageAspect=0;image=data:image/png,iVBORw0KGgoAAAANSUhEUgAAAEoAAABJCAYAAACaRLDfAAAACXBIWXMAAAsTAAALEwEAmpwYAAAAAXNSR0IArs4c6QAAAARnQU1BAACxjwv8YQUAAARvSURBVHgB7ZvNTupAFIAPtUo0MenOlQmJiSaurjG4lTcAn+DKE3jfQLgPcK88AfAEyBOgW8Vw48boBlYuXAi68BftndN06oD8tLQz0yl8Se0wTBP6ec4wM0xjoAj1ej1DTkXTNDvkXEgmk0cwo5dGo/GTHObj46P5+vpqXl5emhcXF4cw4wsq6enpyaTMZPUxSNJMVh+jJM1k2biRNPWyvEiaWlmTSJo6WX4kTY2sICRFXlaQkiIri4ekyMniKSkyskRIUl6WSEnKypIhSTlZMiUpIysMkkIvK0ySKKGTFUZJlNDICrMkihdZsbOzsx+apv0lZePz8zO7s7PzD3yCksiptLGxAYuLixBm3t7e4Pr6Gt7f33Pb29v5oQ2JzSYu2rfbbZPcYBvFgQ9UiKR+3ESWRtollpeXwTAMWF9fN+bn52uTylIpklgWFhYAPzO599wwWRr7Ymlpicpq2DftGlUlUcbJ0vorbFlYLLmVpbokyihZ2qALUNbm5ibMzc2NlRUVSZRhsrRxF4ySFTVJFFbW+fn5L6zT3FwwSFZUJVHoveu6fkju1dDdXkDGGiUSiomPj48qEZcmb+WiKolCRgR4MvDPWFEIlXV7e5sj46NcPB6H1dVVqz6qkLEV3NzcQLfbzSeTyY4rUQhKSSQSEBStVgtOTk566jKZjDWekw2VRM4oKYd1rkUFDUrKZrM9dQ8PD3BwcAAyGSQJ0UAS5XL5W93x8THIZJgki3q9boqm2WxiL2kdJJ1Nkm7Oa5xzyuDl5cWa75HhQG6QRCkRVa1WnXIqlbL6JkqhUADRjIwkGymijo6+tl+iqN3dXed1fwfPGzeSLESnHi7BgJ1meGAaYrqxddhGBOPSjUV4RPVHEw45cEiAZQqbmrxwHUk2wkWdnp465f39fafM9lOlUgl44lWShcjUq9Vq39KOLD9bx/39fc972JYHXtKNReiAk40UTLd8vneJGus6nY5VxvRj0zEIJookisiIwjETMFEz6sCxVZBMGkkUYX0URgjO7yixWOzbwYKRFdRQwVck2QhLvUql4pTxm65YLA5st7e356QfTnP8pl8QkixEpB6Ok9hpCvm2G9oW3wMm/fxMafymG4uQ1MPJLo0SJJ1OD23LDhP8pF9gkUQREVHk5k3SBznHqCjpjz6SeqZXgowkSgxFkZ+SgSdsJ46MWwD02p4l8EiyEdKZe10ZnXQllZckRNrCXdDwlIREQhRvSYjyokRIQpQWJUoSoqwokZIQJUWJloQoJ0qGJEQpUbIkIcqIkikJUUbU3d0d7twtyZCEKCPq+fkZyNp6GSShjCh7H1YKJKGMqJWVFYjH44dedysHhTKi3Owp5YlSwwOZspQbcFJZ4GEffBAoOYVBWfShAbLcmwIBKDsppk9Y6Lpe8fugkxuUXmZhnt2p8Zal/MIdylpbWzM0TasBR1BUG+dRKmPvd+e671onP4P9vrq6+kNyHUJADCag2+3iUwZ54Ij1wfBZD+D8H+HN1tZWCzjyHwqLimQLEPDVAAAAAElFTkSuQmCC;" vertex="1" parent="1">
          <mxGeometry x="1091.66" y="175.85" width="53.72574803149607" height="52.999724409448824" as="geometry" />
        </mxCell>
        <mxCell id="k-2cysHBCC-xSpzVTrcf-57" value="" style="shape=image;verticalLabelPosition=bottom;labelBackgroundColor=#ffffff;verticalAlign=top;aspect=fixed;imageAspect=0;image=data:image/png,iVBORw0KGgoAAAANSUhEUgAAAEoAAABJCAYAAACaRLDfAAAACXBIWXMAAAsTAAALEwEAmpwYAAAAAXNSR0IArs4c6QAAAARnQU1BAACxjwv8YQUAAAQ6SURBVHgB7ZvPTuJAHMd/VJRoYsLNkwmJiSaeNAavoi+wvMG6T+C+AWUfYNl9Atgn2PAEeBYU9GL0AicPXiAe/It259vtsKXLn0I7nU7hk4zTFprQj7+Z/mY6jZEi1Gq1LKuKhmF0WP0znU7/oDn91Ov1z6wYDw8PxsvLi3F1dWWcn5/naM4/uKTHx0eDM5flYJCkuSwHoyTNZVm4kTTzsiaRNLOyppE0c7K8SJoZWX5IirwsPyVFVpYISZGTJVJSZGQFIUl5WUFKUlaWDEnKyZIpSRlZYZAUellhksQJnawwSuKERlaYJXEmkRU7Ozvb0TStwLaTHx8fX/b39xvkEUhiVWlra4uWl5cpzLy+vtLNzQ29vb3pe3t7+aFfZDabmLRvt9sGu8A2xJEHVIgkJ24iS2PfS62urlIymaTNzc3k4uJiZVpZKkWSnaWlJcJvZteuD5Ol2XdWVla4rLp10a5RVRJnnCzNecCShc2SW1mqS+KMkqUNOgGytre3aWFhYaysqEjiDJOljTthlKyoSeLYZVWr1a84prk5YZCsqEri8GuPx+M5dq3JuNsTWK5RYqGYen9/LzNxn9hHelQlcVhGgCqJP2NFAS7r7u5OZ/mRnkgkaH193TweVVhuRbe3t9TtdvPpdLrjShSAlFQqRV5otVpmGQTyuJ0dT7mub3BJrIYk3TxYq9WMoDg+PkYsjyyZTMYolUqGLJ6fn80snXXiul2e64gKitPTU7N0Oh06OTmhIBkYSRbSRKGpZbNZcxtSGo1GX7PUdT1QUaMkmchqeqy/++9zNDuyNcNms2kEwbDmZmdkHhU0TFTfPqJONGMjySI0otD8WCfe28cdULQot5KAtD4KYg4PD3vb6J9Qc3I5sTO0k0gCUkXh7uYEuVqxWPyvGfrJpJKA1KYXi8X6CkBkIdLy+TyJYBpJQJooRA6bo++Vi4uLvswc6cGgiPPCtJJAaDpzSCoUCn3HLi8vyS+8SAKhSg+cdzl75+4Fr5KA1CGM8Xcao0e5XO7b9zoIB35IAlLvekdHR719DGHsEYToOjg4IC/4JQmELj3goL/yElF+SgKB9lHOdMBZEEXInyqVCrFxIU2L35LM345BMXuUTEGAKBrVQYepT3ISaNNDxIgcv4mSBEKVHnhBpCQQCVGiJQHlRQUhCSgtKihJQFlRQUoCSooKWhJQTpQMSUApUbIkAWVEyZQElBF1f3+PlbslGZKAMqKenp4wZfyLJKGMKGsdVoYkoYyotbU1SiQSuUlXK/uFMqLcrCkViVLpgUxZyiWcXBZNsA7eD5QcwkAWf2mgWq1mKACUHRTzNyzi8fhvry86uUHpaRbbuzsV0bKUn7iDrI2NjaSmaRUSCES1MY5SGWu9u9BVZ3H2WPvb9fX1d9bWKQTEaAq63S4ez4tZJ2Rh/jC860GC/yOi2d3dbZFA/gCruIgQQ8W2KQAAAABJRU5ErkJggg==;" vertex="1" parent="1">
          <mxGeometry x="1156.002125984252" y="327" width="53.72574803149607" height="52.999724409448824" as="geometry" />
        </mxCell>
        <mxCell id="k-2cysHBCC-xSpzVTrcf-58" value="" style="shape=image;verticalLabelPosition=bottom;labelBackgroundColor=#ffffff;verticalAlign=top;aspect=fixed;imageAspect=0;image=data:image/png,iVBORw0KGgoAAAANSUhEUgAAAEoAAABJCAYAAACaRLDfAAAACXBIWXMAAAsTAAALEwEAmpwYAAAAAXNSR0IArs4c6QAAAARnQU1BAACxjwv8YQUAAARLSURBVHgB7ZtLTiJBGIB/2laiiUm7cmUkMdHEFWhwK55guIHODeYGNHOAeZwA5gTjXMDHVjGgG6MLwY0LN6ALn0jN//dQTEN4NHR3VVfDl7TV9COhPv4q/6qujoAiFAqFNBY5xlgNy5/JZPIHTGinWCzu4sYeHx/Z6+sru7i4YGdnZxmY8B8u6enpiXEmsjroJmkiq4N+kiaymjiRNPayhpE0trJGkTR2stxIGhtZXkgKvSwvJYVWlh+SQifLT0mhkSVCkvKyREpSVpYMScrJkilJGVlBkBR4WUGSxAmcrCBK4gRGVpAlcYaRFTk5OYlrmvYd941Go/F5a2urBC4hSVjk19bWYHZ2FoLM29sbXF1dwfv7u7m5uZnteSHaLNOkfbVaZVjBKokDF6gQSZ04iSwNr4vNz8+DYRiwurpqTE9PH44qS6VIsjMzMwP0nbHuZi9Zmv3D3Nwcl1VsVtoxqkriDJKldR5oyqLdvFNZqkvi9JOldbuBZK2vr8PU1NRAWWGRxOklSxt0Qz9ZYZPEscs6PT39Qsc0Jzd0kxVWSRxed13XM1hXQ3d6A+YaeQzF2MfHxx8U9wlPmWGVxMGMgAqD/gwURXBZd3d3JuZHZjQahaWlJet4WMHcCq6vr6Fer2eTyWTNkSiCpMRiMfCaWq0G+/v78PDwYO0vLy9DPB63NllwSViSJNM6WCgUmAzK5TJLpVIU2103/FHY3t4eE83Ly4uVpWMnbtrlOY4oL6lUKrCzs2OV/a6hCBNJ10hqIlxUN0kYWZBOp619/A8Dx8fH1vnd3aEGB67oJ8lCdNPDyrc1sUwm0/W6XC7HRNGruUkVRX0P2Poh2TiSBAMSTq85Ojpqa3KmaYJMBjY3G0JFdXbelArIYhhJhFBRt7e3bZ/9yMucMKwkQqioIDCKJEKoqM6mFqQ8aRBCRXU2tfPzcxCFG0mEUFE0fqO5eU4+nwcRuJVECBVFkhKJROszpQvZbNaazmD/pjRaULPsN8RxiheSiAglnPg8C0RBld/Y2AB8PNY6RpG2vb0NCwsL1vlSqWRtFHFuhjFeSbKQMXtAw5NIJNJz5oBvKIqNitOM2ylS0gOcPoGbmxtrcIzCWpsd6vhHTUg9jaQmUqZZCBJxcHDQamo8VaB+jJriqMmoH5IIaaI4JMSrDN0vSURoMnM/JRGhEOW3JEJ5USIkEUqLEiWJUFaUSEmEkqJESyKUEyVDEqGUKFmSCGVEyZREKCPq/v6eVu7mZUgilBH1/PwMjUbjF0hCGVHNdVgpkIQyohYXFyEajWaGXa3sFcqIcrKm1E+USg9kylIu4eSyYIh18F6g5BCGZPGXBnBOPAUCUHZQzN+w0HX9t9sXnZyg9DSL7d2dQ79lKT9xR7JWVlYMTdMOwUdIVJXGUSrTXO9ugI/o+Kzw6+Xl5Tds6xAAIjAC9XqdHslnwUesL0bveoDPv4jfJBKJCvjIX3lmPhxsx5WYAAAAAElFTkSuQmCC;" vertex="1" parent="1">
          <mxGeometry x="1155.724251968504" y="175.85" width="53.72574803149607" height="52.999724409448824" as="geometry" />
        </mxCell>
        <mxCell id="k-2cysHBCC-xSpzVTrcf-59" value="" style="shape=image;verticalLabelPosition=bottom;labelBackgroundColor=#ffffff;verticalAlign=top;aspect=fixed;imageAspect=0;image=data:image/png,iVBORw0KGgoAAAANSUhEUgAAAEoAAABJCAYAAACaRLDfAAAACXBIWXMAAAsTAAALEwEAmpwYAAAAAXNSR0IArs4c6QAAAARnQU1BAACxjwv8YQUAAARvSURBVHgB7ZvNTupAFIAPtUo0MenOlQmJiSaurjG4lTcAn+DKE3jfQLgPcK88AfAEyBOgW8Vw48boBlYuXAi68BftndN06oD8tLQz0yl8Se0wTBP6ec4wM0xjoAj1ej1DTkXTNDvkXEgmk0cwo5dGo/GTHObj46P5+vpqXl5emhcXF4cw4wsq6enpyaTMZPUxSNJMVh+jJM1k2biRNPWyvEiaWlmTSJo6WX4kTY2sICRFXlaQkiIri4ekyMniKSkyskRIUl6WSEnKypIhSTlZMiUpIysMkkIvK0ySKKGTFUZJlNDICrMkihdZsbOzsx+apv0lZePz8zO7s7PzD3yCksiptLGxAYuLixBm3t7e4Pr6Gt7f33Pb29v5oQ2JzSYu2rfbbZPcYBvFgQ9UiKR+3ESWRtollpeXwTAMWF9fN+bn52uTylIpklgWFhYAPzO599wwWRr7Ymlpicpq2DftGlUlUcbJ0vorbFlYLLmVpbokyihZ2qALUNbm5ibMzc2NlRUVSZRhsrRxF4ySFTVJFFbW+fn5L6zT3FwwSFZUJVHoveu6fkju1dDdXkDGGiUSiomPj48qEZcmb+WiKolCRgR4MvDPWFEIlXV7e5sj46NcPB6H1dVVqz6qkLEV3NzcQLfbzSeTyY4rUQhKSSQSEBStVgtOTk566jKZjDWekw2VRM4oKYd1rkUFDUrKZrM9dQ8PD3BwcAAyGSQJ0UAS5XL5W93x8THIZJgki3q9boqm2WxiL2kdJJ1Nkm7Oa5xzyuDl5cWa75HhQG6QRCkRVa1WnXIqlbL6JkqhUADRjIwkGymijo6+tl+iqN3dXed1fwfPGzeSLESnHi7BgJ1meGAaYrqxddhGBOPSjUV4RPVHEw45cEiAZQqbmrxwHUk2wkWdnp465f39fafM9lOlUgl44lWShcjUq9Vq39KOLD9bx/39fc972JYHXtKNReiAk40UTLd8vneJGus6nY5VxvRj0zEIJookisiIwjETMFEz6sCxVZBMGkkUYX0URgjO7yixWOzbwYKRFdRQwVck2QhLvUql4pTxm65YLA5st7e356QfTnP8pl8QkixEpB6Ok9hpCvm2G9oW3wMm/fxMafymG4uQ1MPJLo0SJJ1OD23LDhP8pF9gkUQREVHk5k3SBznHqCjpjz6SeqZXgowkSgxFkZ+SgSdsJ46MWwD02p4l8EiyEdKZe10ZnXQllZckRNrCXdDwlIREQhRvSYjyokRIQpQWJUoSoqwokZIQJUWJloQoJ0qGJEQpUbIkIcqIkikJUUbU3d0d7twtyZCEKCPq+fkZyNp6GSShjCh7H1YKJKGMqJWVFYjH44dedysHhTKi3Owp5YlSwwOZspQbcFJZ4GEffBAoOYVBWfShAbLcmwIBKDsppk9Y6Lpe8fugkxuUXmZhnt2p8Zal/MIdylpbWzM0TasBR1BUG+dRKmPvd+e671onP4P9vrq6+kNyHUJADCag2+3iUwZ54Ij1wfBZD+D8H+HN1tZWCzjyHwqLimQLEPDVAAAAAElFTkSuQmCC;" vertex="1" parent="1">
          <mxGeometry x="1092" y="326.99999999999994" width="53.72574803149607" height="52.999724409448824" as="geometry" />
        </mxCell>
        <mxCell id="k-2cysHBCC-xSpzVTrcf-60" value="" style="shape=image;verticalLabelPosition=bottom;labelBackgroundColor=#ffffff;verticalAlign=top;aspect=fixed;imageAspect=0;image=data:image/png,iVBORw0KGgoAAAANSUhEUgAAAEoAAABJCAYAAACaRLDfAAAACXBIWXMAAAsTAAALEwEAmpwYAAAAAXNSR0IArs4c6QAAAARnQU1BAACxjwv8YQUAAAQ6SURBVHgB7ZvPTuJAHMd/VJRoYsLNkwmJiSaeNAavoi+wvMG6T+C+AWUfYNl9Atgn2PAEeBYU9GL0AicPXiAe/It259vtsKXLn0I7nU7hk4zTFprQj7+Z/mY6jZEi1Gq1LKuKhmF0WP0znU7/oDn91Ov1z6wYDw8PxsvLi3F1dWWcn5/naM4/uKTHx0eDM5flYJCkuSwHoyTNZVm4kTTzsiaRNLOyppE0c7K8SJoZWX5IirwsPyVFVpYISZGTJVJSZGQFIUl5WUFKUlaWDEnKyZIpSRlZYZAUellhksQJnawwSuKERlaYJXEmkRU7Ozvb0TStwLaTHx8fX/b39xvkEUhiVWlra4uWl5cpzLy+vtLNzQ29vb3pe3t7+aFfZDabmLRvt9sGu8A2xJEHVIgkJ24iS2PfS62urlIymaTNzc3k4uJiZVpZKkWSnaWlJcJvZteuD5Ol2XdWVla4rLp10a5RVRJnnCzNecCShc2SW1mqS+KMkqUNOgGytre3aWFhYaysqEjiDJOljTthlKyoSeLYZVWr1a84prk5YZCsqEri8GuPx+M5dq3JuNsTWK5RYqGYen9/LzNxn9hHelQlcVhGgCqJP2NFAS7r7u5OZ/mRnkgkaH193TweVVhuRbe3t9TtdvPpdLrjShSAlFQqRV5otVpmGQTyuJ0dT7mub3BJrIYk3TxYq9WMoDg+PkYsjyyZTMYolUqGLJ6fn80snXXiul2e64gKitPTU7N0Oh06OTmhIBkYSRbSRKGpZbNZcxtSGo1GX7PUdT1QUaMkmchqeqy/++9zNDuyNcNms2kEwbDmZmdkHhU0TFTfPqJONGMjySI0otD8WCfe28cdULQot5KAtD4KYg4PD3vb6J9Qc3I5sTO0k0gCUkXh7uYEuVqxWPyvGfrJpJKA1KYXi8X6CkBkIdLy+TyJYBpJQJooRA6bo++Vi4uLvswc6cGgiPPCtJJAaDpzSCoUCn3HLi8vyS+8SAKhSg+cdzl75+4Fr5KA1CGM8Xcao0e5XO7b9zoIB35IAlLvekdHR719DGHsEYToOjg4IC/4JQmELj3goL/yElF+SgKB9lHOdMBZEEXInyqVCrFxIU2L35LM345BMXuUTEGAKBrVQYepT3ISaNNDxIgcv4mSBEKVHnhBpCQQCVGiJQHlRQUhCSgtKihJQFlRQUoCSooKWhJQTpQMSUApUbIkAWVEyZQElBF1f3+PlbslGZKAMqKenp4wZfyLJKGMKGsdVoYkoYyotbU1SiQSuUlXK/uFMqLcrCkViVLpgUxZyiWcXBZNsA7eD5QcwkAWf2mgWq1mKACUHRTzNyzi8fhvry86uUHpaRbbuzsV0bKUn7iDrI2NjaSmaRUSCES1MY5SGWu9u9BVZ3H2WPvb9fX1d9bWKQTEaAq63S4ez4tZJ2Rh/jC860GC/yOi2d3dbZFA/gCruIgQQ8W2KQAAAABJRU5ErkJggg==;" vertex="1" parent="1">
          <mxGeometry x="1089.322125984252" y="480" width="53.72574803149607" height="52.999724409448824" as="geometry" />
        </mxCell>
        <mxCell id="k-2cysHBCC-xSpzVTrcf-61" value="" style="shape=image;verticalLabelPosition=bottom;labelBackgroundColor=#ffffff;verticalAlign=top;aspect=fixed;imageAspect=0;image=data:image/png,iVBORw0KGgoAAAANSUhEUgAAAEoAAABJCAYAAACaRLDfAAAACXBIWXMAAAsTAAALEwEAmpwYAAAAAXNSR0IArs4c6QAAAARnQU1BAACxjwv8YQUAAARLSURBVHgB7ZtLTiJBGIB/2laiiUm7cmUkMdHEFWhwK55guIHODeYGNHOAeZwA5gTjXMDHVjGgG6MLwY0LN6ALn0jN//dQTEN4NHR3VVfDl7TV9COhPv4q/6qujoAiFAqFNBY5xlgNy5/JZPIHTGinWCzu4sYeHx/Z6+sru7i4YGdnZxmY8B8u6enpiXEmsjroJmkiq4N+kiaymjiRNPayhpE0trJGkTR2stxIGhtZXkgKvSwvJYVWlh+SQifLT0mhkSVCkvKyREpSVpYMScrJkilJGVlBkBR4WUGSxAmcrCBK4gRGVpAlcYaRFTk5OYlrmvYd941Go/F5a2urBC4hSVjk19bWYHZ2FoLM29sbXF1dwfv7u7m5uZnteSHaLNOkfbVaZVjBKokDF6gQSZ04iSwNr4vNz8+DYRiwurpqTE9PH44qS6VIsjMzMwP0nbHuZi9Zmv3D3Nwcl1VsVtoxqkriDJKldR5oyqLdvFNZqkvi9JOldbuBZK2vr8PU1NRAWWGRxOklSxt0Qz9ZYZPEscs6PT39Qsc0Jzd0kxVWSRxed13XM1hXQ3d6A+YaeQzF2MfHxx8U9wlPmWGVxMGMgAqD/gwURXBZd3d3JuZHZjQahaWlJet4WMHcCq6vr6Fer2eTyWTNkSiCpMRiMfCaWq0G+/v78PDwYO0vLy9DPB63NllwSViSJNM6WCgUmAzK5TJLpVIU2103/FHY3t4eE83Ly4uVpWMnbtrlOY4oL6lUKrCzs2OV/a6hCBNJ10hqIlxUN0kYWZBOp619/A8Dx8fH1vnd3aEGB67oJ8lCdNPDyrc1sUwm0/W6XC7HRNGruUkVRX0P2Poh2TiSBAMSTq85Ojpqa3KmaYJMBjY3G0JFdXbelArIYhhJhFBRt7e3bZ/9yMucMKwkQqioIDCKJEKoqM6mFqQ8aRBCRXU2tfPzcxCFG0mEUFE0fqO5eU4+nwcRuJVECBVFkhKJROszpQvZbNaazmD/pjRaULPsN8RxiheSiAglnPg8C0RBld/Y2AB8PNY6RpG2vb0NCwsL1vlSqWRtFHFuhjFeSbKQMXtAw5NIJNJz5oBvKIqNitOM2ylS0gOcPoGbmxtrcIzCWpsd6vhHTUg9jaQmUqZZCBJxcHDQamo8VaB+jJriqMmoH5IIaaI4JMSrDN0vSURoMnM/JRGhEOW3JEJ5USIkEUqLEiWJUFaUSEmEkqJESyKUEyVDEqGUKFmSCGVEyZREKCPq/v6eVu7mZUgilBH1/PwMjUbjF0hCGVHNdVgpkIQyohYXFyEajWaGXa3sFcqIcrKm1E+USg9kylIu4eSyYIh18F6g5BCGZPGXBnBOPAUCUHZQzN+w0HX9t9sXnZyg9DSL7d2dQ79lKT9xR7JWVlYMTdMOwUdIVJXGUSrTXO9ugI/o+Kzw6+Xl5Tds6xAAIjAC9XqdHslnwUesL0bveoDPv4jfJBKJCvjIX3lmPhxsx5WYAAAAAElFTkSuQmCC;" vertex="1" parent="1">
          <mxGeometry x="1153.3242519685039" y="480" width="53.72574803149607" height="52.999724409448824" as="geometry" />
        </mxCell>
        <mxCell id="k-2cysHBCC-xSpzVTrcf-62" value="Agent 1" style="text;html=1;resizable=0;autosize=1;align=left;verticalAlign=middle;points=[];rounded=0;fontSize=10;fontStyle=1" vertex="1" parent="1">
          <mxGeometry x="1091.66" y="142" width="50" height="20" as="geometry" />
        </mxCell>
        <mxCell id="k-2cysHBCC-xSpzVTrcf-64" value="" style="ellipse;whiteSpace=wrap;html=1;fontSize=10;fontColor=#ffffff;fillColor=none;strokeColor=#CCCCCC;" vertex="1" parent="1">
          <mxGeometry x="1262" y="132.35" width="96" height="40" as="geometry" />
        </mxCell>
        <mxCell id="k-2cysHBCC-xSpzVTrcf-65" value="Index 1" style="text;html=1;resizable=0;autosize=1;align=left;verticalAlign=middle;points=[];rounded=0;fontSize=10;fontStyle=1" vertex="1" parent="1">
          <mxGeometry x="1285.5" y="142" width="50" height="20" as="geometry" />
        </mxCell>
        <mxCell id="k-2cysHBCC-xSpzVTrcf-66" value="" style="ellipse;whiteSpace=wrap;html=1;fontSize=10;fontColor=#ffffff;fillColor=none;strokeColor=#CCCCCC;" vertex="1" parent="1">
          <mxGeometry x="1262" y="232.35000000000002" width="96" height="40" as="geometry" />
        </mxCell>
        <mxCell id="k-2cysHBCC-xSpzVTrcf-67" value="" style="endArrow=none;html=1;rounded=0;labelBackgroundColor=none;labelBorderColor=none;fontSize=10;fontColor=#ffffff;strokeColor=#CCCCCC;exitX=0;exitY=0.5;exitDx=0;exitDy=0;entryX=0.001;entryY=0.454;entryDx=0;entryDy=0;entryPerimeter=0;" edge="1" parent="1" source="k-2cysHBCC-xSpzVTrcf-66" target="k-2cysHBCC-xSpzVTrcf-64">
          <mxGeometry width="50" height="50" relative="1" as="geometry">
            <mxPoint x="1242" y="232.35000000000002" as="sourcePoint" />
            <mxPoint x="1292" y="182.35" as="targetPoint" />
          </mxGeometry>
        </mxCell>
        <mxCell id="k-2cysHBCC-xSpzVTrcf-72" value="" style="endArrow=none;html=1;rounded=0;labelBackgroundColor=none;labelBorderColor=none;fontSize=10;fontColor=#ffffff;strokeColor=#CCCCCC;exitX=1;exitY=0.5;exitDx=0;exitDy=0;entryX=1;entryY=0.5;entryDx=0;entryDy=0;" edge="1" parent="1" source="k-2cysHBCC-xSpzVTrcf-66" target="k-2cysHBCC-xSpzVTrcf-64">
          <mxGeometry width="50" height="50" relative="1" as="geometry">
            <mxPoint x="1272" y="262.35" as="sourcePoint" />
            <mxPoint x="1272.096" y="160.50999999999996" as="targetPoint" />
          </mxGeometry>
        </mxCell>
        <mxCell id="k-2cysHBCC-xSpzVTrcf-74" value="" style="shape=image;verticalLabelPosition=bottom;labelBackgroundColor=#ffffff;verticalAlign=top;aspect=fixed;imageAspect=0;image=data:image/png,iVBORw0KGgoAAAANSUhEUgAAAEoAAABJCAYAAACaRLDfAAAACXBIWXMAAAsTAAALEwEAmpwYAAAAAXNSR0IArs4c6QAAAARnQU1BAACxjwv8YQUAAARvSURBVHgB7ZvNTupAFIAPtUo0MenOlQmJiSaurjG4lTcAn+DKE3jfQLgPcK88AfAEyBOgW8Vw48boBlYuXAi68BftndN06oD8tLQz0yl8Se0wTBP6ec4wM0xjoAj1ej1DTkXTNDvkXEgmk0cwo5dGo/GTHObj46P5+vpqXl5emhcXF4cw4wsq6enpyaTMZPUxSNJMVh+jJM1k2biRNPWyvEiaWlmTSJo6WX4kTY2sICRFXlaQkiIri4ekyMniKSkyskRIUl6WSEnKypIhSTlZMiUpIysMkkIvK0ySKKGTFUZJlNDICrMkihdZsbOzsx+apv0lZePz8zO7s7PzD3yCksiptLGxAYuLixBm3t7e4Pr6Gt7f33Pb29v5oQ2JzSYu2rfbbZPcYBvFgQ9UiKR+3ESWRtollpeXwTAMWF9fN+bn52uTylIpklgWFhYAPzO599wwWRr7Ymlpicpq2DftGlUlUcbJ0vorbFlYLLmVpbokyihZ2qALUNbm5ibMzc2NlRUVSZRhsrRxF4ySFTVJFFbW+fn5L6zT3FwwSFZUJVHoveu6fkju1dDdXkDGGiUSiomPj48qEZcmb+WiKolCRgR4MvDPWFEIlXV7e5sj46NcPB6H1dVVqz6qkLEV3NzcQLfbzSeTyY4rUQhKSSQSEBStVgtOTk566jKZjDWekw2VRM4oKYd1rkUFDUrKZrM9dQ8PD3BwcAAyGSQJ0UAS5XL5W93x8THIZJgki3q9boqm2WxiL2kdJJ1Nkm7Oa5xzyuDl5cWa75HhQG6QRCkRVa1WnXIqlbL6JkqhUADRjIwkGymijo6+tl+iqN3dXed1fwfPGzeSLESnHi7BgJ1meGAaYrqxddhGBOPSjUV4RPVHEw45cEiAZQqbmrxwHUk2wkWdnp465f39fafM9lOlUgl44lWShcjUq9Vq39KOLD9bx/39fc972JYHXtKNReiAk40UTLd8vneJGus6nY5VxvRj0zEIJookisiIwjETMFEz6sCxVZBMGkkUYX0URgjO7yixWOzbwYKRFdRQwVck2QhLvUql4pTxm65YLA5st7e356QfTnP8pl8QkixEpB6Ok9hpCvm2G9oW3wMm/fxMafymG4uQ1MPJLo0SJJ1OD23LDhP8pF9gkUQREVHk5k3SBznHqCjpjz6SeqZXgowkSgxFkZ+SgSdsJ46MWwD02p4l8EiyEdKZe10ZnXQllZckRNrCXdDwlIREQhRvSYjyokRIQpQWJUoSoqwokZIQJUWJloQoJ0qGJEQpUbIkIcqIkikJUUbU3d0d7twtyZCEKCPq+fkZyNp6GSShjCh7H1YKJKGMqJWVFYjH44dedysHhTKi3Owp5YlSwwOZspQbcFJZ4GEffBAoOYVBWfShAbLcmwIBKDsppk9Y6Lpe8fugkxuUXmZhnt2p8Zal/MIdylpbWzM0TasBR1BUG+dRKmPvd+e671onP4P9vrq6+kNyHUJADCag2+3iUwZ54Ij1wfBZD+D8H+HN1tZWCzjyHwqLimQLEPDVAAAAAElFTkSuQmCC;" vertex="1" parent="1">
          <mxGeometry x="1278.84" y="191.85000000000002" width="37.51" height="37" as="geometry" />
        </mxCell>
        <mxCell id="k-2cysHBCC-xSpzVTrcf-75" value="" style="shape=image;verticalLabelPosition=bottom;labelBackgroundColor=#ffffff;verticalAlign=top;aspect=fixed;imageAspect=0;image=data:image/png,iVBORw0KGgoAAAANSUhEUgAAAEoAAABJCAYAAACaRLDfAAAACXBIWXMAAAsTAAALEwEAmpwYAAAAAXNSR0IArs4c6QAAAARnQU1BAACxjwv8YQUAAARLSURBVHgB7ZtLTiJBGIB/2laiiUm7cmUkMdHEFWhwK55guIHODeYGNHOAeZwA5gTjXMDHVjGgG6MLwY0LN6ALn0jN//dQTEN4NHR3VVfDl7TV9COhPv4q/6qujoAiFAqFNBY5xlgNy5/JZPIHTGinWCzu4sYeHx/Z6+sru7i4YGdnZxmY8B8u6enpiXEmsjroJmkiq4N+kiaymjiRNPayhpE0trJGkTR2stxIGhtZXkgKvSwvJYVWlh+SQifLT0mhkSVCkvKyREpSVpYMScrJkilJGVlBkBR4WUGSxAmcrCBK4gRGVpAlcYaRFTk5OYlrmvYd941Go/F5a2urBC4hSVjk19bWYHZ2FoLM29sbXF1dwfv7u7m5uZnteSHaLNOkfbVaZVjBKokDF6gQSZ04iSwNr4vNz8+DYRiwurpqTE9PH44qS6VIsjMzMwP0nbHuZi9Zmv3D3Nwcl1VsVtoxqkriDJKldR5oyqLdvFNZqkvi9JOldbuBZK2vr8PU1NRAWWGRxOklSxt0Qz9ZYZPEscs6PT39Qsc0Jzd0kxVWSRxed13XM1hXQ3d6A+YaeQzF2MfHxx8U9wlPmWGVxMGMgAqD/gwURXBZd3d3JuZHZjQahaWlJet4WMHcCq6vr6Fer2eTyWTNkSiCpMRiMfCaWq0G+/v78PDwYO0vLy9DPB63NllwSViSJNM6WCgUmAzK5TJLpVIU2103/FHY3t4eE83Ly4uVpWMnbtrlOY4oL6lUKrCzs2OV/a6hCBNJ10hqIlxUN0kYWZBOp619/A8Dx8fH1vnd3aEGB67oJ8lCdNPDyrc1sUwm0/W6XC7HRNGruUkVRX0P2Poh2TiSBAMSTq85Ojpqa3KmaYJMBjY3G0JFdXbelArIYhhJhFBRt7e3bZ/9yMucMKwkQqioIDCKJEKoqM6mFqQ8aRBCRXU2tfPzcxCFG0mEUFE0fqO5eU4+nwcRuJVECBVFkhKJROszpQvZbNaazmD/pjRaULPsN8RxiheSiAglnPg8C0RBld/Y2AB8PNY6RpG2vb0NCwsL1vlSqWRtFHFuhjFeSbKQMXtAw5NIJNJz5oBvKIqNitOM2ylS0gOcPoGbmxtrcIzCWpsd6vhHTUg9jaQmUqZZCBJxcHDQamo8VaB+jJriqMmoH5IIaaI4JMSrDN0vSURoMnM/JRGhEOW3JEJ5USIkEUqLEiWJUFaUSEmEkqJESyKUEyVDEqGUKFmSCGVEyZREKCPq/v6eVu7mZUgilBH1/PwMjUbjF0hCGVHNdVgpkIQyohYXFyEajWaGXa3sFcqIcrKm1E+USg9kylIu4eSyYIh18F6g5BCGZPGXBnBOPAUCUHZQzN+w0HX9t9sXnZyg9DSL7d2dQ79lKT9xR7JWVlYMTdMOwUdIVJXGUSrTXO9ugI/o+Kzw6+Xl5Tds6xAAIjAC9XqdHslnwUesL0bveoDPv4jfJBKJCvjIX3lmPhxsx5WYAAAAAElFTkSuQmCC;" vertex="1" parent="1">
          <mxGeometry x="1312.5" y="191.85000000000002" width="37.35" height="36.85" as="geometry" />
        </mxCell>
        <mxCell id="k-2cysHBCC-xSpzVTrcf-77" value="" style="shape=image;verticalLabelPosition=bottom;labelBackgroundColor=default;verticalAlign=top;aspect=fixed;imageAspect=0;image=data:image/png,iVBORw0KGgoAAAANSUhEUgAAAKYAAACeCAYAAAC4oXG3AAAACXBIWXMAAAsTAAALEwEAmpwYAAAAAXNSR0IArs4c6QAAAARnQU1BAACxjwv8YQUAADNJSURBVHgB7X0JcBzndebr7pmeG/dFXARAkABvUrwkSqJkyZZkyVJsOb7WzrnOlnOst2prU3GSTe1WspVNZbObbG02m7U3tpN1HDleX4ocybJlXdZBiRRJ8T5AEASI+xhgzp6+9n1/T4MDECABEAQGwHxVj0M05kL31+9/1/8eUQFzgm3bMstBlj9jOWfPHe+y/AleSwXMGRIVMCuYTAo/NLB8gOVzLOtZKll8WZkL0iwayzDLWZZvsrwmSdI1KmBWeKiAKWAy4mbFebmLZRPLNpbtLDtYilm8eBqLkdTswdGYYUwkbIqlbcXnlcygj+zioEcui0gBr0cq5+f5cyTIYrG08+ec4MfzLGeYpDYVMAUFjZkFlmpyiFfFUsfyUZZ7WNpYItmnGZpuZ8YTlt43ZnqvDmSuXh4w9eFxSxqLWZ6gT9aLwpJVX+7xNlYqRbXlnvLqEsUIByWvV5GgYd3z3c9yjOVdluezP4+wxAskdVAgZhZMTJDvQywPs/w8OQSd+hyiia4B49oLR1KJb7+eaB1PWUW2RfJM7+dRJKOuQu77Nz9X3LN1vVpdUSTDJPDO8NQLLP/A8hzLCSamTgWsbWIyGbG8VrN8jBwywoYMk6MhFfEcokxas8feu5y+8szLyabL/UY4odlKPG2ps5HShcLkjPgloygk6e113uhH7gn07mkNtPo8VCxJk2YUiAgbFFrzKsu3Wb7LMsokNWiNYk0SkwlZRM4yvZcc+7GdpYUlxCLIZtk02jOkx49c1OX3LmXCV4f09LURKzyRsAKW4xTNGYosGWx7ZhqrPBMbaz2BvRsDsT0bVamqRC7JfiYAgiZYOlhOspxieZvlGBM0SWsMa4aYWe1YxlLPso9lDznkBCFV8Rz2oONJKzMSs7T3Lmhy56ARP3pRUzv6jArDmnEZnjcCPindVucZu2ujz2yu9kR2NKvpqhIlrHokfAf3M+Isl8mxQ99ggaMEbQotmqE1gLVEzAp+OMDyCMu/IoeMU5Zi06KR/jFr9Pl3EyNffn5ir2WRYpN0R84RbFBe0rXffDJy9KFdwXq2Qav4k8LTnmayQFt+jeWHLIeZmOO0BrCqiclkxDIJjfjb5JByA2Vtx+vPIZ097cvf/llq9Ptvxpu7Bo1KPjavpfp24VFI39qo9jy0OzjwqUPBGq8itPr0UB6WejhK/8zyP1gGmaQarVKsSmIyIeHEYKl+kOVulkYW2HPQkuJvTmfsvrPdmfixjoz16imtvn/ENMaTVkg3hP24pOeFCWYF2AYtDSt6ZUTyHNoeuLavzSdtqvcWe2SqyD4N8U8s8QjUIzh/mOUVcmzQXlplWDXEzGrHWnIcGmhHBMc3k+Npi7+Tl+a0btkTb53R6Fy3bp/r0a0rg4bUPWhUU56cC17O7aZqT39LjUdqb/AqWxrVzN6NPq8sU5EsiSA9gCW+k+UMOVr0PXIcpYHV4iit+MwPExLZFDcwDlL+C3K0ZNB9DnvYGmtIaSxupcfiZvQfX0/Q2at63QRrSMozsBkhdfYb61jsd85ryb2bfH0lYdnPISe1LKRIqlciJiiC9a3kmCYgIrQnNP1xPh/d/Jhe6cv8itaY2fThR1g+Sw4pN8zwNKs/ah797s+Svh+/l6q4OmTU0gpEc7W355G9vuGP3ROWK4vlHbM87TTLmyxfY2K+RSsYK46YWTJuIcd+fIyc0E+AHA3prgDGRNLuf+9Seux7b6WKz3RlqjXDllKa7bFuERTPV3As1GQ71IwE5Mz+Nn/P0weDess6T1XQJ2GlcK+jkZUxcsJM3yMnm3SaVhhWBDGzZEQ2ppkc+3ErXQ+Mr3Ofxks28thDb55Jh64MGPr5Ht04fVUPRONWKa0SgKDVpfIw259me72qcCxU3rPJlyoKSjWSEwd1ryningjSo1DkfXJioh1M0jitAOQ1MbOFFfBK4Zwg7ANSInWIIgvXhjQ1nZLxlGXxMm2xU9P3rdfiVaMxK5RI2wFaxSgOKePrqzxjH94biLU1eFo4UG+VhmXJ75VwbtyVAXFPZJN+xPKz7P+HWMbyuWAkb4mZ1ZI4wU+wfJycmsjKG59HiUu9+oUXj6XkH7yZrOesTTmtQdSWK30fORDqe2iHT95Y50U0YqZ6UXjyL7J8n+UnLGa+kjPviJn1srFEw6n5dXLSiGruczhXnRgct/pPdmZ6/vMz4zsTmh02TLtQW8pANqmiWBn5D58tudTeoLaF/BLit9NJiuJlFI18leUHLGfzraopL4jJZASpsOyi5OxeliaWjeTEIkFKhEIM1o6pS72ZocPnM6H3r2R8/aNm+sI1vcwwycO/W5FOzWIDwXq/SsjHx9ZXeZW2eq++r82baK5W6yQnzITzhGA9wkxY1hELRdEIqutfYNHyQYsuKzGZkCAjAuDIzCDUgzz2bnIcGldLJjneqF0d0q2OPlN5v1MfOd6hlfQMm8UFLXlz+Jig9eXe8V0tvvHdG7zVm+o86aoSjy8SFDaoe35TLFfIcZJ+kH0cYOlZzoKRJSdm1qGBoPQMQeIPkhMQx6NwVmzc0TZZ6QwZwxNm4uI1ffDVkynzhffSG03DVu1CgfO8IFKeXkrdt9XX9djeoGd7s1oW9EthdpJwY+emYEdZXmJ5neVlFqQ64TxZS61Fl4OYCN00sfwyOVka/DylaIJjjRMc4un7h9cSw88dTmweGrdKCkv14sDjkTIN5croJ+4PXvjI/lATE7SCl/jgtKfB3sRWj39k+WtytGeMlhBLQszsbkMs2Q+x3EdODBKB4drsdxDfI6PbV49czKTf68iob51JVQ5P2MZ40gjphrTkhRWrFXwSbU5r6qVhJVlXIanbm3zD9231p7c3eyMeWXJjwrBBkdIEOVEXeomcgP2Plmp35x292ExIhG4QFAcRkaHBjkM4NSCl0ICGZU9MJOwkOzHmG6fTPrYjM91DeqBv1CwpLNl3FookmTXlcnTDOm+mqcrjO9DuS22q83pLQnJAlic34KFgZJCcYhEE6V/L/r/rTgbrF/3CZz1saDgUVsCrvp/lSXLsyMnPsyw7M5GyJHZsBq70m7FnDyf1l0+kd1ABywFblsh+YIf/1OP7Aj725CNFQaU85JNkJqhbVQ8bEyR9lhw7FNVMPSzjd6Jg5E4QE4SEhvwdll3kbGWYAqQORyaMs3/+3Zjy7sV0/WjMLqEC8gIou1tXJo88tCtw5fOPRPwcB22TZWn6thKQFFVM2PLxRyznFtsGXTRiZotzUVSBHYe5zQHcP8oaiRlnXz6uWa+fzkTOdmu1rC0l0yJlpRZWrFZ4FNnwyrYZDkoyCkbu3xbQDm5WQ0zShpyn6VmJsvyUnJ2dLzNBo7QIuG1iMiFBPNiOv5V9RE57suo6lbGinKUZfuFIqqSj15A7BzLSYNRWObcdoQLyHmURZaK6RDFb1nn09nqP9fj+oBb0SWWqR8L+pNwGDigYgQ36F/gZISq6DdxWgJpJiUwCUoaPkqMpEZsUoZ+MYU+Mxizq6NdTJzr0zHOHk+Zo3CzRjanpxQLyG6Mxs4iFrgxktAs93sGAj8NNlV69tkxJ1pQqxDYoiq1ryFkh4dUfZ/kJc2OEyWnSAnFbGjO7fO9n+QZNLbmiayPm2195IVb+2sl05XjCKtiQqwj1FUrf4/uC0c89HLbYQdqa8ysQEXuSUHhz9na2eSyYmFlt+RssXyQnYC4Os5aMPvdO6uR///74ISpg1ULKevJ/82/L39hQq+4IqlJxzq+Rc/9TJubLtEDcjtOBnPZOul6oS/2j1sDzR5KDz7ySKIR9VjkQYzZtkv7w78e3HzmvDaU0ezDn1+iUt42VVw0tELdDTKjwJsqWVCGNeKZbM948k1EHokZh6V4bkC4PGMU/PpbydvTpWMbdog8kUFAHsZ4WiAURM1vEuzP3g0diVu9b5zXP2+fTC/4yBaxAsNZ89VS6/PCFjFcz7NxQETJ8u2mBWKjGhKODYt4698AP3komT102dCoUW6w5JFJ2+OxVPX6uW+/MOYy+ottpgVgoiXA3wNhFuAlZgDRryobeEaOMCliTuNJv+H/yXjrXAcI2mMaskzxvLJSYsC9FgJVZaaYz9mD/qBlJaNaq3vxVwOwYGjcjZ7ozFbYtqpKgrMAPKKoGWgAWSkxkeEQNH38Ra2jCHEhpllSomVy7iKet4NCYVcIp5jHmARwhd8v1ZloAboeYomWeYdrWpWtGwrQLvcPXOKS0blnRuIl6TTfjA44syM5cKDERpxIak5dx+fUzybCu24XayTWOjEnW6S4joWPboAPYnHfRAjAvYmLzGAtiVBAYtTaiV+9fNmtQJUQFrGmYvGwevaT5DWsyowjlhUC7lA0xzhnzLeKAakbg1Nk0ZlM6lbEzfWNGOS/pa46YkYBEpWGFikMyFbHwOUDRA8InNJawiLMhtJaQMUg5flmrSGlhOegTPETBDupxkXBBf/k577qcLzFRPbTR/cGyKaFpZiyt2U20xoAG2NUlCm1uVGljvZe2r/dSkol48kqGLvbodLbbYGKuraETrDGVzn6zGjcoOZ45VmRoTeztgu15x4iJJfxe94do3Ipf6jORI22iVQyQ0O+VqL3BS1vXq7SjWaXtTV4qL5LR5GrKc+9ud8J2Jps4/WMmHb+coQvXdDrFhD3TrRPbX2SvUkWK/DlHZ0LjCbOjoliu4HPjxjXBmVfIKSqeE+ZLTHzQZJnTYNSQOOK/Kp0ePrFUV+6hDes81LLOS638GAnIFOblO+SXWaQbSJkLSXbeY3+bSjtbvPTY3gBNJC26MmhQZ59Ol/sNBKWRyqXVBNxzfVFzoqbMEykKivODfxDFeX8+7zNnYmY3mWEPeKN7bChmqZf79bzryjtfgF+wE8sjMpWEZfH/unKFqkoVaqry0LoyD2oQBRHnOsMC7+ljLVtZ7JjeYvgka8vqEpkaK/C+BvU1mNQ3YgpyRtkmHWfhVYhWukK92m8Y7Q0+MUwpC5h/8+LJfDQmbAVsmXA78poDo2bwQq++4oLqiuyQxqOIsSYUZg24qc5D7Y1eaqr20Fa2G6tKFteXA5+9Honf3yvknmzYmTNmYqk/fTVDnaxBz/fANrVIZztNY4tMZ0PeWmFK9VSX4dvbZinVxZPUQF1FOTzzuXb0mA8xm8jZIy4+DXMV+6OmOhS1qmiFoaaMnRa2FyEbeJnes9FHAVW6QxN9bv1dIIe2+4XtmdbZgYJd2qvT+50ZdqZ0NpkWvENhWXCiU6sdiAZDmxsm6YWKM9RmQonOaU7RfIjZnBWB0Zg1EI2Z+KC8XsqxpEITbqhhe7GWtVWVlzbVe4SmFFozqz2lPLCUXSdrxwaVtjap9JEDQdKYqNCkl/sMushkvcTa9Rx7/VYer/ejcbt0bMKImZaqsfmDUBHOblNWTszlPeZDTDewLjA8burRhJ1X8RD3wq5j+7A8ogh7DktyfaWHKtiDhr1XGpYn7b58hPs3OJuenbtFZRMAEQCYGbtaVLo6ZKBogq+BBQVBPcOG0LT54u0jbDSetJPpDGVCfnKLxtEVes6r65yImY3aw7acbF7AnqU8MmHlhUeOCxfggC527a3jZbG9XhXOS3MNOxk1XrFMr2TgZoJsrBWxY0qmLeoeMqmLCdrNco7DUL3DTFQO7sOBMvPAJuUbJjEQNbWWmkmKYQtO41xfP1eNCRUDUla7By72mcHBcWtBtXaLDWjDPa0+euqeIN3Vurp3B8M0CXPYanMjxOklAefopRMpevbtJJ1kuzSWWn7VeW3EsK4OmWYOMUHKdXN9/VyJidgljFeXiKmzV7Xa4aiRF41Te9mz7X0nSc8fTdJ6Du/sb/MRTkgbOzdtdV5hT64WYLlGkB725nm2NTvY9nznvMbLu0nZjEte4EKPXnz0ohZ8cPuk7oIDtAH1FuyZp271+rkSq4mc4LoA58f7UzrVmHlWf4llDh7sW2c1Ot2l0+un0lRd6hEkrWRbs4Hjh1juoXFWEhK8dPPqRFc5OH+N7Uk4Q6Nxx75E0H54wkSTMson8Pcq6h8z0EIGJERthdtoDSvvxVu9fq7ERIB0Ml46MGZiuyZimnmhikA2OA3IVcPGiqUcn0wEudUMNbPTAIenkZ2g6lIneF4WuV58URzML6LGkjZNpCwamTBEwL131BLOjiDmCGeMBgzWmjTpmePvLOXkAFaGdMY5B8uNuGYH2EGWtIw94lMlkBFcATHRQmjRiNlCORqza8hMpjU7b4JrzawRA6pM/VGDSWlNBqRx4VDhc+aq0/9JdIjlf9rqvcI+284hmY0cQipqkPMiXATgu3N8mJdojmNyPBOxTISHZvO48b0RuG9hJw9hr3HWoLAzlx02SRldMuJpezBLTMAl5i0xV2JiG+bkjJ2XjqdDfEfnTczl4BY/Hdzso0a2L+NMzBMdboDaCVJjuQNwbXGBz3brQr77RhK9d4TG3MYk3cGyiUmL3HZkiZb7MdaIF3oynC3R+dGgw2wvxnnpno2I+L4lrOW3rVf5O3NMtu56guDwOY1ePZnOD2IyWEmY73VosQ/tntwKBud5z1xee1NisqEKFxddgUFKpCTF6TrRodWxxsw791dMrOKw0bZmlVr5gh3aZjFROUA94CyBcBSwHHYNXg+/ggDQsqj+wRLpPyaJQg0s/24RRzNrIyz/t6tVocH7R/k7sJ3YNWCK73Geb5AkpyATaVsQEubIdFLW8mfX4rsgScCZqg21Hgr7ZAoFnHRqviQIpoN9EfnIpUwwh5gwB9vnkpq8lcYEGd0EPKqQNcuW4mzvlGZM20t5Blwc2FmlYfcqKeIi11cqbK95aUezyY+mqOwZYmcCjhLHYomNdKG5IO77dDNpKtgufb9TFg4UHCc4ULBVKzkHXMWP+KzZCIHPzbD3jFw4iobxWSiDQ9EG7EU4M/gubK9PFm3grRReh+oq3ASBwgkCmRrYNkaA3flZ4fCYkpdEnI5k2vSduKRBS+LE4huDR1ByFcyl6M2GXs2VmOJ5hsW2tWkPcZqsnVYIcAEdMiminhIAQZDiO9udESTF8oigNQonOFshwi7DE5aQc90o+tAEMaCtEH6CFm1vVAllXV6kNlUntenkujnzgZbJnIlBxdDZqxnW0iZdYpvxDC/XOJbrQOcWlOC9ImxWbGZzopk/A5+FdCqIuBKRMch7bdgEEbGlFycfPAKnYHOion3BxATDYROIYBQv3+nuYRMDMlcMMWcCvHjIwS0+QSbko4Wjwcs5YoOwTRGCcYFMymAUWk8ToSjX4UCxMGy91lqv+L+oYGf77qKoFuI4Iz/eqjIIWnDLescRg724i/PkXiU/l+b5gm9AmZfzADug51WvVMM3IZwfPzmcQrPXWdsU3oqYxZRDTI6dSW+f11ZVYbCUrZt0CyegNeHJX+o1hGcMokKQn3ZtPzfIfeqKLtKBqNP0q44Nicp1EN0w6QZS4rMQsmpnjbgJlU011wtKkB9XslpzNZDSBU4Zr07D7JiWRpzCYRATOydfudnrZiVmtoU1jFW492It4biU78gFbdW1gZleOFHM6wRy741Vikhxwg7lvC/1cHYFThSclj62HWFDamIx4rjjtHsflwA5fBCxku1EZKRgKzo2olOMDIGHvdpxojPN8eKgHQkKGoFzqGgPMccwtW3G19xMY8KVAgnF5DKM0YvxKtY1YKz6scs4VSU5pIHmg8d8ZQCOky7sU2jTMZF9MdlutIUGBUDoENuc5WzTlonCC69wZrA9A7ZpUTB/YqZLhXPdZmB7s+VtqBTEdIeRQem5A1dvwM2ICaO1mdxxejYlRsYNmR2HalpjgHMEQu1ohngFUaEtsdEMhRPvXcoITxtoqPBwXFGlR+8KsO2oiteuMR7egBOdmdqH7wq4MSOsS3B+oOBwLDHTa262jqAaZJv7w0TKHhwetwaoAEE2P2tF7IhEFgkeuwvUTO7ELkoWpUBKgZ5ho2ZozND4hnZ3SeK0oDCofrbX3IyYYPRk/8vRCdNkYq6sGv9lQqGJ043g1GScPXR3xB+IiS5ws5qFNyMmlvLJ7sDslSrdw0ahDcx02DQlUzO51b+AKWATMMUJhdxyNzjVs1a0z0hM9pb82Re5qta+NmwE+M0L/S+nYSYiFnh5I/pGnUhGDppYqmbraTSbxkR/IlQb+7M/6x19ZnnfiFFJBdyAAhFvDY5ohM/36rnT8LAaY7vOjKnt2YiJNOSk981ptr5YykxxBiQvKtYLWHngTFpJz5BejEZs2UPgUu6qPAWzEbOdctb/wTFjLJa0jML88DmgoD5nRFq3/eNJ2+Ss2Ej2ELgHjjXN9PybacxJYl7u03W8KRVwI6bVqCGbUSDnDOAkTzJlayMJczjnKDjWPNPTb6YxJ+3JU1cz6kTCLHjkM8CmqTyc/nMB1zGetPSr/UY659DciInGWSwwSOH4uIaqfeJypjaacFpbFzAV073yAilnx1jc9hzt0HJ5BJ61ZjsOT3nudI0JrYh2T6gmki3bzpiWPTQ0bkXSuuWnAmaEPe2HAjlnRjRuhE5fMaAl3fw4SAonG1vDp3BxOjHhKSFUJEjIJDYSaXskmbblwqiUmWHP+WABmk7eoahRbNmUzI5cAd+wMsMzn7JVZzrZoCm3kVuxbkqZayPmsGnT6uouupiwadV2CF5sINyY0EjJ6HYvOVXtAIrRMXJlSihyOjGhKdGWWBQGTyQt6fVTaSmztlqJzx+5NmZhKb8pNMM2L1zL9HP4yN3KiWL0g3S9y4vAJDHZ+IR9CfYihymi8fGU5T1yMVPBDC8E1meBPcdjBThAGdCxSxmFzUM3Jg7OodLIn+sA5WpM5MFhiE7OiIylLKl7UC83bbtgX94E9iz/L+BGaLqlnO4ywlpmklPgXUP2cZJnuYRDpfomyhYGM3lTSc1KD45bFbZVcHxmxUxLd4Gds8JiLp29mqlmMxE8w5nC6oywEeLmk0VCuYTDNorJuX8pzRofjFrYyVZIQxawaDAsUvrGzJqxhJVi5Zdbn7mFHA4K5BITRZuTo1KGx03jSr+eH71G8hj2DD8XFObNgfMzMKajMdtE9pA7cmUqMbM1cfCO1ru/GI3ZypUhc3V3QV0k2AUjc94YiNo6pyhz6y+Qmpxs3OZqTISJ0FZwsjC4d8z0XxkwI1TAzTG9SNjt3FXATdE5oMtD42aumYjETplbOOwSE/lxpIXcPKbeP2qGrw0XCoNvjZnKOAq4FTr7jHDfqJmb5hbEpGyg3SUm8uOTVR7s+PSMxcy4aeZfR7d8gz2DUVmg5q1xdchY1zNshPn8uRkgcA1hI2FOusQEKSd3RLK2HB+LW+lCYfDccEPZW4GZt4Ruknc8Yac4q+gWDoNr4KBQkLnEbHBf1NFvGKPxlVMYjC4Y+jI1xr/BK19GUuIcGCvkqqE7zHjcTEUTRu6kNHCwCf/JtTEn7clL/bpnJLZyCoM5mzDZoiUfsFzfBN1BUpmVU28TTdr6UNTScg6hJE7MAnILg/FDhfvbw2e1xr4RY8XUX375+Tg9/06a7tvmp1/6UIjKIjLJS9QgCBpyOQdGoJdnz7BJ3/hpXLS67h1dOTtg2LlWj13OBNBmPAts6dkGzxweELI9rjdumRYNcgyzSNMpL4ZLzQUgB6aCvXoyRRd6M3TfFr/oM4l+6j7P0prJ9hJF2NEqEY1nT3bp9PLxFF9kE218aCVhaMIqOt+jQwG6HYfdRm51ICayPSjcwJ1vjMWswXTGKjMte0Xt8UHT1JRminaBKXbbLvUZtLXRS1sg69XJiRUrGaJjMS/VGB2NMdKYxtHZr9OFa8aKdLhSaSvAsUyZoz+jsiyV8fVxC4c3uRXrQjvyH2cxi8dZa67IwmAxrJ5XMnTzRWvpU10eemR3gMqLFDHVAU3/F3tK2kxe+J3giMH243jSFr3cXzuVptdOp0Wf+JXi7MwEtkIUtBhP6zQS9IlhqPB5QMxWEHMXZYdLwV653K+beh6Nflso0FD1Sr/B9meMXnwvRR/Y6aeHdviF9lxpgA2LcSs/PpaiF4+maTS+enZS66ZkRBPWmF+VTUWS3B7tO/EfBDTF1ULfx4ExU87nWdgLAZyDb72aoDdOa6J56q8+GhEjSkQX4UXGYp47zCfC8IK/+VFMTLuAmZLWaVXBMMhiYurVJYp75mBzChsTFcQiDQQbTPVK9mqLqhvZ+F7PiEEJzWKSxqmtXhXT0RorFQr5b6/c1L7Fz/MFRu6h5ztsyNNdGTELKJ62RW/31QZZJsnnlXI7XuNihD3Z/0weri5SsnbY6jsJSb64ybRJ3/lZkjbV6XSg3UfbmzEiRRUhJjRjna+DNKMXvoBTh8kYGMOCjmgXenQ61pGhdy9kRGvt1QyPYivFQcXP593VDrgCMoiJmjgs5YpHIam1zuORV3m9OniDUScdfNGL35XpyQNB+sR9QfIqfFMuILxk39Agc/6At435Q8+wyQGbGJPS1kJqU/WQpzhMZTnERA3wCIh5mOV+lkrWlN6mGs/mkpBsxpKWzstf3k0/W0xgecdEiq//OE7feSMpnKN7t/rowR0B0aZ6IXAU6NwZlcrY9PKJNL1wxOnljp/XCiqLleEdLf6kqkgtOYdR1X4cxDxK1wdPirFqh7YFLr92Ml3eOaBX0RoBNBaa/UNrYdb5B3f5aV2ZR4xbvhnsBWyTxGs45SuC4s8fSYnxLJhjmcmjtOpSoLXWox9o82nTDo+yvANivsLyOGUHmWIe0yO7fXIsaWp9Y0YqnbHXRBdhzP/uyg6qx/ApDB7FpLJWtj/XVyk3nWk+pbroFtzCCJZO9rQv9up0kW3JFzlro2VWTvHFYqGmRB7d0+ozdzR7c3sZYfhEJ8sJEPNtlnfJKRSGSpXaG9XGfcNGjNNdo5d69XVrqT2MYTna7NuvJ6m2TKHdrSp96K6AGM2HyV4ca7vBQbpV2RtCSMhMpdmrPtGh0Y84FnmCtXPuWMC1BDYZjf1t/pF9m/yhSECuzR7GyTjJ8ia76IMe/sdi4/2r5KztXyIndBR4eFcgHQnK2u9+dSzGoYrIWuxdhIKI3ndS9FO2Ae/l/PvT9wZpc4NXzPxxMZfc+CgTEGYCyI5Zk9oaW7JzAVJyLLn70w+EKjbVe0I5vxpj+RbL/xPPyx68zPIyOQ0Pfg0HZEmKbGnw2f/+06XX/st3oy3D4xbSlmuycBjL/NGLGl0bMsVA0v1tqhiQGlDlG3dF5sybxKRdDLaHdkRue3DMWtOkZIfSLAtLqd/5ZLHdUOVRs7lxnBBoy//J8jo5CtINrEsJ1prv0/XJqNv4RWpRUAqxl1ryxhlf/1vnMuWccF+Tm9MQoB+Lc646kaHRhEn9UYM62VnBnMmxmDVl6UY6t48dqNc5l41YJKb6Yv4k5qOvaUhkN1Qqycf2hka3rfeWsuITrS5ZUMH+Jss/sVxjLopOWZM9ifjAMJMToaOfkFOfWcLk9AV8Uu3H7g0eH4ha/mjcCvCJX7N9jGArYvD98LgpluSJZJBJZ4rguItYyhazJvvZDHiJHRvdLGy1AAJeMtobfKlP3BdKKbK0PnsY2YMulm+zXGAOug0Qpi7N2a2TYDLWemhOdx+QzbG2jm++kuBYm9ZKBRQwT3z0ntC5z34gRC3rPLmz7o+zfIsJ+SfTnz/FoeEn4N5GXOn3WZ5hmZz9x0t67SfvDxZvqPV2UgEFzAOP3OU//pH9/rL11Z4NOYc7yOHY3830mhs87Sw5L7H8kOX75KhbW/VIvrtafepvPhmRQ34pwct8oZlrATcFpxsz1aXy0C8+HC7fWKeG2PlBJhH8wga0v2V5kZzY5Q2YMQTE5MRkgVMs/8xygQUzAJWyiKzev9Uf3NbkHQ8H5ExhB3UBswGKqzgk6/ds9sfaG9RyVmbuHjJ44EdYXmM5z1ybMZgrz/7G0hA/vMHyl+QQEx8WkCWq/KNfKOuvq1A0PlDQmgXMCL9XSm+q86W+9MkS5CSCLNiqA76gzfUfshxnjiVne/2c4pLsFP0xP3ycnP6ZAme6Mie+8kK8+LVT6SYqoIAcKKwtv/B4pOvj94cyrDXbcn6FsNBfMiH/4VbvMddszv9leZ4c116gZZ3a8siegHyw3XeOCiggB0/fG7rwgV1+hc29hpzDp8kxDV+cy3vMNSZ5npxiD4SPRLGHX6Xwtkavlkr702e69ehEyiqyCp2H1zSQbqwplUce2eunyhJPETs7boEGHJxXWV5jbTkyp/eay5Oy+fSXyMkModBjNw5zWqkkFJD9717M9Lx6Ku3PZGxfod/R2oQskxX0UfqpA4Gutjp1Ozs7qEqDdwy78i2W72Qf54R5kYjJCW2JWNQr5PTOlvkYdgT0/+KfDfmuDJjBdMYujPZbg6gskkd2bPBF//RXS912luCWqEZn2ccydjNnZzrmu/RiG8YZlj9j6cYBbCOSZaniC08UR+/Z7Iux116Y0rvGwGnr5AM7A+ZvPBHCigoBKaEpEQ//jyyYuJuieWBeeW/mILJCGmtJ5DbXZ19fh+Li/W1qUSJlatGYOXjssr6OClgwPn5fUFQu9WXz7fkMVkTW/dv84x/c5Zcaq1T0J3A7uBxjgfn3QpY388KCCjL4g04wOX9ATtcE1NSV+DxS1YF2f39Gt8a7R8zA8LhVQgXMG1A1H783ROURmY5eyuQ9MZurlbGn7wlqu1rUIiapW32GGDg88H9mrlylBeB2vGikK59lmQwXlYblmoNbgtVPHwydpAJWPXATfemTZae2NqklXo/kTpyAw4N09g+ZlG/TAnE7xIQtCWKi4AP2pqijqyiWiz73cHjHtvXei5GgFKMCViXWlSsjHz0YPLK9xXvAp0rh7GEs2djc+BfkpLQXjAUTM1vsgXJ4BE7/PPt/kFMK+aTwF54o8t61wa/xEp+mAlYVikPS+N1tvsynHwjWeBXyK04lOmwOKCg4xldY5uyBz4TbKvpFAp5tTXhciFHdw7KXnLbZyt3tvuKxmJmOpYzEsQ5dXe49Q0FV4rvcQ1saPMQ2sOiUVhSSqaZU4RMtiw1maF8ottWy0zE6MXsZADrHoXNHHb8fXyTRJAHLGpoUoBsbtlSgoHi2PkZVJQpVFStYXSjok0Q3ZPS2xB73K/16XgeCfV4ptW+TLwVnp7VWdbtQY/WESYfCDNiW8aziWjBuuxo9Wx1ylQmK/Cc8smbnOJU+tNPfMxo3Eyc79SLdXF5igoT8fegLT0ToucNJ+tHRFK2v8hB7lGIfj4ct975Rp1/Qs4dTTMzZHUkOj9D2ZpWe2BeglhqvIDYaJHQPm3T4fFq0dmHnj6wZuubxx9CGdYpoqrB3o08094qlLLrQY9D7nRn6+5H8nsEdCUjxD+wM2Pvb/Aigu819wQHYk19lPiyK+baoNyeT81F++DzLz7vHxuPmwBtnta4/+LvoflpGQDOiFQyIebwjw9qOCZG2xNaIM106lRfJtHuDSg0VHpJ5bfrtr4zS+R5ddFjLBa8E9NF7gmJLL/b7nLySoZ5hNCsgQXIQDVt10VXjD/52TOwXyqXnbz5ZRA/zDVLJGnOMNetPjqXE1ouWGg81VXvEvvOGKoVsVthHLmbo974+RnkC2+uRjRf+U9UZzuo0eJVJZwf4U5ZnmJTHaJGw2Pt3UGeHACtinIj2UyigFO/a4Nv04X2B9986q7VE41aYlhmttR6xc/HVUxod69BE22iVl+M3z6ZpV7OPPvtQmH7x4TB94+W4aKFtZrlZz6Td1+ajnawth8ZN+qt/itG5a7ogos3r9ivvp+hTh8K0sd5Dm9lkeGRPQLTfjvMyDS3bUOkRuyuxfL9+OiWae/WD+EzMcECmCr452DYXZkcmzxQn39iJzzwYuhQJyK2s9XObYCCm/RzLRVpELDYx0d4D5PweC/Z2BDxsHHO6yvPE/qDaO2xOZHRd4Qu5rN09fBy8hqYDObFxzAVsQ2iqB3cGaBOTq46JWMLL9EjW3mypUaiZtRk06vudGr1zQRNNC9wuGgiIv3VOE13jOAtG+zapguxgHl9Qtm+9VFvqoY4+p5Pb+/wd9OzHK7LJZJfpAhO9kU2M2zTRFhXFQSmxpdGbYFMowCaLq1jwh+F6I2zYkbuRbDGwqHZf1uDFKOn/RY63DseIlwBJuafd1/rY3qDGF3tCkaVlTVvGkiadYHvuysDUFn/oS9k5YNIRJhx6ZqJ35rrS663o2+q9gqwg8IvvpUVj1dzWLnB2YGPCVoSNBBsSwwngWEX8ktC2HlYFp7t1OnVFnyQlgJ2WcJ7QyyiTR30wvYqttzWoox/eExytLfe4tZW4UxE4h7ODjYt9tMhYdIcEzhALNrF9gZwN7Ejk4zp5PnEoWPLkgQB7tNIoLSPQpTcan7lfUEqzRHMCAJ5zVQ4xRZOtsCz6Gp1ibTdTI1U4PX1jToPYmjJFaEq2x1hLS7SB7UiV365nyBR26XSgqdbZrvzq1LF5vf/y0/eGlId2+3N3x+L6oa7yi9nrvehf+E56ymdZ/orl7ym7OYjZWcK2pvR7ny6JshbNSMu0aQhOizFLLAf7wKMxZ+lWvZIQAP9iiebvLcI7eI/ZwkHo/x5NOL+EbellLemRUcQqiT84nXH6GE0HnCC0IUSTLXOZN61gVSsvUoZ/++lI+N4tPizfrtmHJfz/sPxvIppTbeVCcMeIyXcR1A4KjFFOf9Q9XByUQ+0N3qLH9gR6WIssy5IO7SXPEpBAM2X8HjAxxiMn5AMPG2SUZUcDzhbSEO/hnfoaiGE4dyJIOlP/Tcn9nbK8Ra1QGOygGR8/GJhghy3McVu3YgiATYm6yh7pDu75uqOxRf7isD0Q30KjJKh/g+/EUHlEKf61x8KJpkpPnEMPS54ZQmjIp84898fLGrKqxDktac2x+wD8G+fwErQZPHgEyWcazQKNGmT7tCggiaUeHjtGocBsiCZMoRX5b+bfz8zM0ogztGA5uzoHfLK+o0kd+4UPRmyOFoTRLogcTYmtNV9heTtrrt0xLMWfj/pN7CFG+xnUc0Jb+NmJ2P7zh0IX+AKP0xKjkcM2CM94ZvjrkdXZVOeMXBlhj3s0fl0pDEUt4SBxylU4Qp4ZRnSVhZ2wT8CnCHsTxIR5gKW7e8hpJwNbNdd2dQFHaWOdF8soLSc4Ozb2xY9GullrbsjubgQGyema8VO0CaQ7jDtOzKxhjD/ksyw/JkdzCnzsYPCuTz8QSm9rUi/REgIOyVMcbN/dOnUqIYLjaJT1KMcfR9iGRDjn4rXrnvvPzmh0joPu69ip+fxjYfHozenZjuX5k4eC9NjegHCinn07KRwlACGnf+KMUpI17oM7ffTwLr+4CVyA5JWcovx1TgBwdoWWC5yEOPH5D0eirbXefTmH0Q0Q8crfpyXCUjXIAjkT5DhCiGE+Qk4gXuGQSpCDyWnOXUfHk0tTw4nOwQiyP84pxU11Hurl7E8o4GjBDZxiBC1AKnT+tXKsKKQs4Y3jtU1VXvqXj0boHKcwhyZMMXECsysRIgr5ZLo8YNAbTGQ9y2sQtJPDU8cvaeJ5Bzf7hTOFeCrODkwDxC/hmUO7GsswBKypSuk5tN1X3bLOm9t7H4oEG8mwS3bJfIIlIWZWa2Y4ZYkGCuggW8zyAH7F+eoIXyC5Z8gY//briYhlTx3vcieAcA1imdCcCIQnODMT4UA6CjPwwW+eS9OLnEufXoiBDM7xyzoTKsW5blssu+g6jFw3lmiO84le7mhjfZQJePFaZtK7xiO05kvH0xyn5Hx5rZcObfcLswJevpq1K948k+bvERSkXSooHPLhyEHm6ftCqS0Nak15RMaeHTEBkZwqdJDyTWkJo/5L2lKQ/7BRJifuPvyBh5xD5GdtYf3WU0VD338rmWGN4cOQdbqDGIubU4o4DrSrwpGBRsQcymffTokMzEzo6NPF60d5qX98v1PEwcue8KRhQyK4jqzOm2e1GUM+yI2DyB/Y4ae9m3xi1lAs6RRxIOj/zZcT9BBnnu7E1LbZAFIWh5SJzzwQKuKIA+wbt2uGGxpC14wlLaVfFmOGyYkl+9+x/BY52lOgo9d443e/PraNL34xLTJyizhQXfS1H8fFpIi1Dr6h9Id2BaJ/8JmSQXbqtmYPu37BF1mem8/uxsXCcgUlcCei7/sr5KQwBeorlW1P3R3ov2uDr4sKWBLct8U/8OlDoSg7Yk05h5FuRBnjy8tBSmBZugOjmxxrzU7+7zfImcqGIuMSn1cqfnBHgE+EpPeO6kP9Y1YlFXDHsG292sOZOHNjrbeMI1Ruo340vUIq+TvZxmrLgmUL42YNaWxaQgC+hxybhuorlKp9m3yh3a3qmKJIhbX2DgDpRlWx9Q/uUod3NKshDviXZ3+F840uv8jsvEnLiGWtKs8a1F9mQTc5t/JZ2VTvCf/rnysuryuX+wp7hhYfQZXSe9sCZ5+8O7yxukTJLfhFvPK/snxdWuYWk8u+vYSXdNwcGA2I6WxId8nOYcr0DBtd7AxVXbhmhM3bHEqA/DYC10gHYgovYoXpNTS30UXIL8fvbvemvvSpMow2qSDHA0d8EgrgKXIydYPSMheELnt3tuydiSoVZIXQRAE5WNQReDkuWP25h8LD2xq9t52XtSxbpBMRTEc95VokJUyjPa2e9JN3h7TSsITIiJtuRCUYwkLYGjG63KQE8qJtIJ8InQVbPzHrBbvtomiJxCm+4rvbfMqejWqSg9+LWiG9FsEp1PiB9qB2oN2PRKpbMYRaBRDy+yjMwLWgPEC+9bP8OsuPKGf/SElYbubcs8WxtiXNp69GfOqBYPeje/zs+Ii5oS5eYfkeE/JVyiPk3RZmNi6RS4etgz7dbmttq2fEnPjrH8YuvXw8tZ3tQx8VMGeEA1L6iz9X8vZDO327SsNybj0Cho1hxs5P82H5zkU+dgBGgTFCFn9DTjcH2KByZbHi/+ShYCXbneMFT33uKAopse3Nvr57Nqsbgz7ZvaFx/hCv/DuWc/lGSiDviOk2UCCnLxL2lYgwks9D6vYmteKJ/UG9ucaT8KkFct4KpWFlfEujN/bU3UEUm9T4vMKuxI1+jZxKdDicA5SHyMu5kIhv8pKOtOR/IyeXfoAlyHZH6Jc+GMLvtOePpEwME02mTX+hu/YUiLmL4aCs7WxRow/vCtAju/2wKV0PHBEOhITQ+GrEHSqab8j7K8okRIHxr7A8PHmMKHG53xx46Viy98vPx+6909VIKwkY/KR6JO2Pf6X08N5W31a2L0vpugKCtvwmy18xIefcD305sBKIibv9Uyy/zLIre9hMaraWSFv6xV5dvzpoDvWPmpneUVMZjZnqmhrYxlfQ45Gs8ois15d77NoKj7++XKnZVOexgj4pxLFLD12/zmh4hdE4aKg6QXmMvB/xzCewPzsxI5CVFhYvn/Rg0KdgY1msvd4umkjaxljckBOardjW2tKgIGbEL5llEc5uBRU1EpBRGOPPeYrbtxLbI97Kd1ICK+ICZtOWmJaBJf1JlnpybM/CEn5zwH5EPQKSFl9j+QGTspdWAFbMhc2SE3tRULz6GZbttAI0/jIDmhHVW19jQj5DKwj/HxozwUG/W+/7AAAAAElFTkSuQmCC;" vertex="1" parent="1">
          <mxGeometry x="1074.92" y="294.8" width="13.66" height="13" as="geometry" />
        </mxCell>
        <mxCell id="k-2cysHBCC-xSpzVTrcf-78" value="Agent 2" style="text;html=1;resizable=0;autosize=1;align=left;verticalAlign=middle;points=[];rounded=0;fontSize=10;fontStyle=1" vertex="1" parent="1">
          <mxGeometry x="1090.92" y="291.65" width="50" height="20" as="geometry" />
        </mxCell>
        <mxCell id="k-2cysHBCC-xSpzVTrcf-79" value="" style="ellipse;whiteSpace=wrap;html=1;fontSize=10;fontColor=#ffffff;fillColor=none;strokeColor=#CCCCCC;" vertex="1" parent="1">
          <mxGeometry x="1262" y="282" width="96" height="40" as="geometry" />
        </mxCell>
        <mxCell id="k-2cysHBCC-xSpzVTrcf-80" value="" style="ellipse;whiteSpace=wrap;html=1;fontSize=10;fontColor=#ffffff;fillColor=none;strokeColor=#CCCCCC;" vertex="1" parent="1">
          <mxGeometry x="1262" y="382" width="96" height="40" as="geometry" />
        </mxCell>
        <mxCell id="k-2cysHBCC-xSpzVTrcf-81" value="" style="endArrow=none;html=1;rounded=0;labelBackgroundColor=none;labelBorderColor=none;fontSize=10;fontColor=#ffffff;strokeColor=#CCCCCC;exitX=0;exitY=0.5;exitDx=0;exitDy=0;entryX=0.001;entryY=0.454;entryDx=0;entryDy=0;entryPerimeter=0;" edge="1" parent="1" source="k-2cysHBCC-xSpzVTrcf-80" target="k-2cysHBCC-xSpzVTrcf-79">
          <mxGeometry width="50" height="50" relative="1" as="geometry">
            <mxPoint x="1242" y="382" as="sourcePoint" />
            <mxPoint x="1292" y="332" as="targetPoint" />
          </mxGeometry>
        </mxCell>
        <mxCell id="k-2cysHBCC-xSpzVTrcf-82" value="" style="endArrow=none;html=1;rounded=0;labelBackgroundColor=none;labelBorderColor=none;fontSize=10;fontColor=#ffffff;strokeColor=#CCCCCC;exitX=1;exitY=0.5;exitDx=0;exitDy=0;entryX=1;entryY=0.5;entryDx=0;entryDy=0;" edge="1" parent="1" source="k-2cysHBCC-xSpzVTrcf-80" target="k-2cysHBCC-xSpzVTrcf-79">
          <mxGeometry width="50" height="50" relative="1" as="geometry">
            <mxPoint x="1272" y="412" as="sourcePoint" />
            <mxPoint x="1272.096" y="310.15999999999997" as="targetPoint" />
          </mxGeometry>
        </mxCell>
        <mxCell id="k-2cysHBCC-xSpzVTrcf-83" value="&lt;div style=&quot;text-align: justify&quot;&gt;&lt;br&gt;&lt;/div&gt;" style="rounded=1;whiteSpace=wrap;html=1;fillColor=none;strokeColor=#CCCCCC;align=left;spacingLeft=40;arcSize=2;" vertex="1" parent="1">
          <mxGeometry x="1075.66" y="466.65" width="186.34" height="80" as="geometry" />
        </mxCell>
        <mxCell id="k-2cysHBCC-xSpzVTrcf-84" value="" style="shape=image;verticalLabelPosition=bottom;labelBackgroundColor=default;verticalAlign=top;aspect=fixed;imageAspect=0;image=data:image/png,iVBORw0KGgoAAAANSUhEUgAAAKYAAACeCAYAAAC4oXG3AAAACXBIWXMAAAsTAAALEwEAmpwYAAAAAXNSR0IArs4c6QAAAARnQU1BAACxjwv8YQUAADNJSURBVHgB7X0JcBzndebr7pmeG/dFXARAkABvUrwkSqJkyZZkyVJsOb7WzrnOlnOst2prU3GSTe1WspVNZbObbG02m7U3tpN1HDleX4ocybJlXdZBiRRJ8T5AEASI+xhgzp6+9n1/T4MDECABEAQGwHxVj0M05kL31+9/1/8eUQFzgm3bMstBlj9jOWfPHe+y/AleSwXMGRIVMCuYTAo/NLB8gOVzLOtZKll8WZkL0iwayzDLWZZvsrwmSdI1KmBWeKiAKWAy4mbFebmLZRPLNpbtLDtYilm8eBqLkdTswdGYYUwkbIqlbcXnlcygj+zioEcui0gBr0cq5+f5cyTIYrG08+ec4MfzLGeYpDYVMAUFjZkFlmpyiFfFUsfyUZZ7WNpYItmnGZpuZ8YTlt43ZnqvDmSuXh4w9eFxSxqLWZ6gT9aLwpJVX+7xNlYqRbXlnvLqEsUIByWvV5GgYd3z3c9yjOVdluezP4+wxAskdVAgZhZMTJDvQywPs/w8OQSd+hyiia4B49oLR1KJb7+eaB1PWUW2RfJM7+dRJKOuQu77Nz9X3LN1vVpdUSTDJPDO8NQLLP/A8hzLCSamTgWsbWIyGbG8VrN8jBwywoYMk6MhFfEcokxas8feu5y+8szLyabL/UY4odlKPG2ps5HShcLkjPgloygk6e113uhH7gn07mkNtPo8VCxJk2YUiAgbFFrzKsu3Wb7LMsokNWiNYk0SkwlZRM4yvZcc+7GdpYUlxCLIZtk02jOkx49c1OX3LmXCV4f09LURKzyRsAKW4xTNGYosGWx7ZhqrPBMbaz2BvRsDsT0bVamqRC7JfiYAgiZYOlhOspxieZvlGBM0SWsMa4aYWe1YxlLPso9lDznkBCFV8Rz2oONJKzMSs7T3Lmhy56ARP3pRUzv6jArDmnEZnjcCPindVucZu2ujz2yu9kR2NKvpqhIlrHokfAf3M+Isl8mxQ99ggaMEbQotmqE1gLVEzAp+OMDyCMu/IoeMU5Zi06KR/jFr9Pl3EyNffn5ir2WRYpN0R84RbFBe0rXffDJy9KFdwXq2Qav4k8LTnmayQFt+jeWHLIeZmOO0BrCqiclkxDIJjfjb5JByA2Vtx+vPIZ097cvf/llq9Ptvxpu7Bo1KPjavpfp24VFI39qo9jy0OzjwqUPBGq8itPr0UB6WejhK/8zyP1gGmaQarVKsSmIyIeHEYKl+kOVulkYW2HPQkuJvTmfsvrPdmfixjoz16imtvn/ENMaTVkg3hP24pOeFCWYF2AYtDSt6ZUTyHNoeuLavzSdtqvcWe2SqyD4N8U8s8QjUIzh/mOUVcmzQXlplWDXEzGrHWnIcGmhHBMc3k+Npi7+Tl+a0btkTb53R6Fy3bp/r0a0rg4bUPWhUU56cC17O7aZqT39LjUdqb/AqWxrVzN6NPq8sU5EsiSA9gCW+k+UMOVr0PXIcpYHV4iit+MwPExLZFDcwDlL+C3K0ZNB9DnvYGmtIaSxupcfiZvQfX0/Q2at63QRrSMozsBkhdfYb61jsd85ryb2bfH0lYdnPISe1LKRIqlciJiiC9a3kmCYgIrQnNP1xPh/d/Jhe6cv8itaY2fThR1g+Sw4pN8zwNKs/ah797s+Svh+/l6q4OmTU0gpEc7W355G9vuGP3ROWK4vlHbM87TTLmyxfY2K+RSsYK46YWTJuIcd+fIyc0E+AHA3prgDGRNLuf+9Seux7b6WKz3RlqjXDllKa7bFuERTPV3As1GQ71IwE5Mz+Nn/P0weDess6T1XQJ2GlcK+jkZUxcsJM3yMnm3SaVhhWBDGzZEQ2ppkc+3ErXQ+Mr3Ofxks28thDb55Jh64MGPr5Ht04fVUPRONWKa0SgKDVpfIw259me72qcCxU3rPJlyoKSjWSEwd1ryningjSo1DkfXJioh1M0jitAOQ1MbOFFfBK4Zwg7ANSInWIIgvXhjQ1nZLxlGXxMm2xU9P3rdfiVaMxK5RI2wFaxSgOKePrqzxjH94biLU1eFo4UG+VhmXJ75VwbtyVAXFPZJN+xPKz7P+HWMbyuWAkb4mZ1ZI4wU+wfJycmsjKG59HiUu9+oUXj6XkH7yZrOesTTmtQdSWK30fORDqe2iHT95Y50U0YqZ6UXjyL7J8n+UnLGa+kjPviJn1srFEw6n5dXLSiGruczhXnRgct/pPdmZ6/vMz4zsTmh02TLtQW8pANqmiWBn5D58tudTeoLaF/BLit9NJiuJlFI18leUHLGfzraopL4jJZASpsOyi5OxeliaWjeTEIkFKhEIM1o6pS72ZocPnM6H3r2R8/aNm+sI1vcwwycO/W5FOzWIDwXq/SsjHx9ZXeZW2eq++r82baK5W6yQnzITzhGA9wkxY1hELRdEIqutfYNHyQYsuKzGZkCAjAuDIzCDUgzz2bnIcGldLJjneqF0d0q2OPlN5v1MfOd6hlfQMm8UFLXlz+Jig9eXe8V0tvvHdG7zVm+o86aoSjy8SFDaoe35TLFfIcZJ+kH0cYOlZzoKRJSdm1qGBoPQMQeIPkhMQx6NwVmzc0TZZ6QwZwxNm4uI1ffDVkynzhffSG03DVu1CgfO8IFKeXkrdt9XX9djeoGd7s1oW9EthdpJwY+emYEdZXmJ5neVlFqQ64TxZS61Fl4OYCN00sfwyOVka/DylaIJjjRMc4un7h9cSw88dTmweGrdKCkv14sDjkTIN5croJ+4PXvjI/lATE7SCl/jgtKfB3sRWj39k+WtytGeMlhBLQszsbkMs2Q+x3EdODBKB4drsdxDfI6PbV49czKTf68iob51JVQ5P2MZ40gjphrTkhRWrFXwSbU5r6qVhJVlXIanbm3zD9231p7c3eyMeWXJjwrBBkdIEOVEXeomcgP2Plmp35x292ExIhG4QFAcRkaHBjkM4NSCl0ICGZU9MJOwkOzHmG6fTPrYjM91DeqBv1CwpLNl3FookmTXlcnTDOm+mqcrjO9DuS22q83pLQnJAlic34KFgZJCcYhEE6V/L/r/rTgbrF/3CZz1saDgUVsCrvp/lSXLsyMnPsyw7M5GyJHZsBq70m7FnDyf1l0+kd1ABywFblsh+YIf/1OP7Aj725CNFQaU85JNkJqhbVQ8bEyR9lhw7FNVMPSzjd6Jg5E4QE4SEhvwdll3kbGWYAqQORyaMs3/+3Zjy7sV0/WjMLqEC8gIou1tXJo88tCtw5fOPRPwcB22TZWn6thKQFFVM2PLxRyznFtsGXTRiZotzUVSBHYe5zQHcP8oaiRlnXz6uWa+fzkTOdmu1rC0l0yJlpRZWrFZ4FNnwyrYZDkoyCkbu3xbQDm5WQ0zShpyn6VmJsvyUnJ2dLzNBo7QIuG1iMiFBPNiOv5V9RE57suo6lbGinKUZfuFIqqSj15A7BzLSYNRWObcdoQLyHmURZaK6RDFb1nn09nqP9fj+oBb0SWWqR8L+pNwGDigYgQ36F/gZISq6DdxWgJpJiUwCUoaPkqMpEZsUoZ+MYU+Mxizq6NdTJzr0zHOHk+Zo3CzRjanpxQLyG6Mxs4iFrgxktAs93sGAj8NNlV69tkxJ1pQqxDYoiq1ryFkh4dUfZ/kJc2OEyWnSAnFbGjO7fO9n+QZNLbmiayPm2195IVb+2sl05XjCKtiQqwj1FUrf4/uC0c89HLbYQdqa8ysQEXuSUHhz9na2eSyYmFlt+RssXyQnYC4Os5aMPvdO6uR///74ISpg1ULKevJ/82/L39hQq+4IqlJxzq+Rc/9TJubLtEDcjtOBnPZOul6oS/2j1sDzR5KDz7ySKIR9VjkQYzZtkv7w78e3HzmvDaU0ezDn1+iUt42VVw0tELdDTKjwJsqWVCGNeKZbM948k1EHokZh6V4bkC4PGMU/PpbydvTpWMbdog8kUFAHsZ4WiAURM1vEuzP3g0diVu9b5zXP2+fTC/4yBaxAsNZ89VS6/PCFjFcz7NxQETJ8u2mBWKjGhKODYt4698AP3komT102dCoUW6w5JFJ2+OxVPX6uW+/MOYy+ottpgVgoiXA3wNhFuAlZgDRryobeEaOMCliTuNJv+H/yXjrXAcI2mMaskzxvLJSYsC9FgJVZaaYz9mD/qBlJaNaq3vxVwOwYGjcjZ7ozFbYtqpKgrMAPKKoGWgAWSkxkeEQNH38Ra2jCHEhpllSomVy7iKet4NCYVcIp5jHmARwhd8v1ZloAboeYomWeYdrWpWtGwrQLvcPXOKS0blnRuIl6TTfjA44syM5cKDERpxIak5dx+fUzybCu24XayTWOjEnW6S4joWPboAPYnHfRAjAvYmLzGAtiVBAYtTaiV+9fNmtQJUQFrGmYvGwevaT5DWsyowjlhUC7lA0xzhnzLeKAakbg1Nk0ZlM6lbEzfWNGOS/pa46YkYBEpWGFikMyFbHwOUDRA8InNJawiLMhtJaQMUg5flmrSGlhOegTPETBDupxkXBBf/k577qcLzFRPbTR/cGyKaFpZiyt2U20xoAG2NUlCm1uVGljvZe2r/dSkol48kqGLvbodLbbYGKuraETrDGVzn6zGjcoOZ45VmRoTeztgu15x4iJJfxe94do3Ipf6jORI22iVQyQ0O+VqL3BS1vXq7SjWaXtTV4qL5LR5GrKc+9ud8J2Jps4/WMmHb+coQvXdDrFhD3TrRPbX2SvUkWK/DlHZ0LjCbOjoliu4HPjxjXBmVfIKSqeE+ZLTHzQZJnTYNSQOOK/Kp0ePrFUV+6hDes81LLOS638GAnIFOblO+SXWaQbSJkLSXbeY3+bSjtbvPTY3gBNJC26MmhQZ59Ol/sNBKWRyqXVBNxzfVFzoqbMEykKivODfxDFeX8+7zNnYmY3mWEPeKN7bChmqZf79bzryjtfgF+wE8sjMpWEZfH/unKFqkoVaqry0LoyD2oQBRHnOsMC7+ljLVtZ7JjeYvgka8vqEpkaK/C+BvU1mNQ3YgpyRtkmHWfhVYhWukK92m8Y7Q0+MUwpC5h/8+LJfDQmbAVsmXA78poDo2bwQq++4oLqiuyQxqOIsSYUZg24qc5D7Y1eaqr20Fa2G6tKFteXA5+9Honf3yvknmzYmTNmYqk/fTVDnaxBz/fANrVIZztNY4tMZ0PeWmFK9VSX4dvbZinVxZPUQF1FOTzzuXb0mA8xm8jZIy4+DXMV+6OmOhS1qmiFoaaMnRa2FyEbeJnes9FHAVW6QxN9bv1dIIe2+4XtmdbZgYJd2qvT+50ZdqZ0NpkWvENhWXCiU6sdiAZDmxsm6YWKM9RmQonOaU7RfIjZnBWB0Zg1EI2Z+KC8XsqxpEITbqhhe7GWtVWVlzbVe4SmFFozqz2lPLCUXSdrxwaVtjap9JEDQdKYqNCkl/sMushkvcTa9Rx7/VYer/ejcbt0bMKImZaqsfmDUBHOblNWTszlPeZDTDewLjA8burRhJ1X8RD3wq5j+7A8ogh7DktyfaWHKtiDhr1XGpYn7b58hPs3OJuenbtFZRMAEQCYGbtaVLo6ZKBogq+BBQVBPcOG0LT54u0jbDSetJPpDGVCfnKLxtEVes6r65yImY3aw7acbF7AnqU8MmHlhUeOCxfggC527a3jZbG9XhXOS3MNOxk1XrFMr2TgZoJsrBWxY0qmLeoeMqmLCdrNco7DUL3DTFQO7sOBMvPAJuUbJjEQNbWWmkmKYQtO41xfP1eNCRUDUla7By72mcHBcWtBtXaLDWjDPa0+euqeIN3Vurp3B8M0CXPYanMjxOklAefopRMpevbtJJ1kuzSWWn7VeW3EsK4OmWYOMUHKdXN9/VyJidgljFeXiKmzV7Xa4aiRF41Te9mz7X0nSc8fTdJ6Du/sb/MRTkgbOzdtdV5hT64WYLlGkB725nm2NTvY9nznvMbLu0nZjEte4EKPXnz0ohZ8cPuk7oIDtAH1FuyZp271+rkSq4mc4LoA58f7UzrVmHlWf4llDh7sW2c1Ot2l0+un0lRd6hEkrWRbs4Hjh1juoXFWEhK8dPPqRFc5OH+N7Uk4Q6Nxx75E0H54wkSTMson8Pcq6h8z0EIGJERthdtoDSvvxVu9fq7ERIB0Ml46MGZiuyZimnmhikA2OA3IVcPGiqUcn0wEudUMNbPTAIenkZ2g6lIneF4WuV58URzML6LGkjZNpCwamTBEwL131BLOjiDmCGeMBgzWmjTpmePvLOXkAFaGdMY5B8uNuGYH2EGWtIw94lMlkBFcATHRQmjRiNlCORqza8hMpjU7b4JrzawRA6pM/VGDSWlNBqRx4VDhc+aq0/9JdIjlf9rqvcI+284hmY0cQipqkPMiXATgu3N8mJdojmNyPBOxTISHZvO48b0RuG9hJw9hr3HWoLAzlx02SRldMuJpezBLTMAl5i0xV2JiG+bkjJ2XjqdDfEfnTczl4BY/Hdzso0a2L+NMzBMdboDaCVJjuQNwbXGBz3brQr77RhK9d4TG3MYk3cGyiUmL3HZkiZb7MdaIF3oynC3R+dGgw2wvxnnpno2I+L4lrOW3rVf5O3NMtu56guDwOY1ePZnOD2IyWEmY73VosQ/tntwKBud5z1xee1NisqEKFxddgUFKpCTF6TrRodWxxsw791dMrOKw0bZmlVr5gh3aZjFROUA94CyBcBSwHHYNXg+/ggDQsqj+wRLpPyaJQg0s/24RRzNrIyz/t6tVocH7R/k7sJ3YNWCK73Geb5AkpyATaVsQEubIdFLW8mfX4rsgScCZqg21Hgr7ZAoFnHRqviQIpoN9EfnIpUwwh5gwB9vnkpq8lcYEGd0EPKqQNcuW4mzvlGZM20t5Blwc2FmlYfcqKeIi11cqbK95aUezyY+mqOwZYmcCjhLHYomNdKG5IO77dDNpKtgufb9TFg4UHCc4ULBVKzkHXMWP+KzZCIHPzbD3jFw4iobxWSiDQ9EG7EU4M/gubK9PFm3grRReh+oq3ASBwgkCmRrYNkaA3flZ4fCYkpdEnI5k2vSduKRBS+LE4huDR1ByFcyl6M2GXs2VmOJ5hsW2tWkPcZqsnVYIcAEdMiminhIAQZDiO9udESTF8oigNQonOFshwi7DE5aQc90o+tAEMaCtEH6CFm1vVAllXV6kNlUntenkujnzgZbJnIlBxdDZqxnW0iZdYpvxDC/XOJbrQOcWlOC9ImxWbGZzopk/A5+FdCqIuBKRMch7bdgEEbGlFycfPAKnYHOion3BxATDYROIYBQv3+nuYRMDMlcMMWcCvHjIwS0+QSbko4Wjwcs5YoOwTRGCcYFMymAUWk8ToSjX4UCxMGy91lqv+L+oYGf77qKoFuI4Iz/eqjIIWnDLescRg724i/PkXiU/l+b5gm9AmZfzADug51WvVMM3IZwfPzmcQrPXWdsU3oqYxZRDTI6dSW+f11ZVYbCUrZt0CyegNeHJX+o1hGcMokKQn3ZtPzfIfeqKLtKBqNP0q44Nicp1EN0w6QZS4rMQsmpnjbgJlU011wtKkB9XslpzNZDSBU4Zr07D7JiWRpzCYRATOydfudnrZiVmtoU1jFW492It4biU78gFbdW1gZleOFHM6wRy741Vikhxwg7lvC/1cHYFThSclj62HWFDamIx4rjjtHsflwA5fBCxku1EZKRgKzo2olOMDIGHvdpxojPN8eKgHQkKGoFzqGgPMccwtW3G19xMY8KVAgnF5DKM0YvxKtY1YKz6scs4VSU5pIHmg8d8ZQCOky7sU2jTMZF9MdlutIUGBUDoENuc5WzTlonCC69wZrA9A7ZpUTB/YqZLhXPdZmB7s+VtqBTEdIeRQem5A1dvwM2ICaO1mdxxejYlRsYNmR2HalpjgHMEQu1ohngFUaEtsdEMhRPvXcoITxtoqPBwXFGlR+8KsO2oiteuMR7egBOdmdqH7wq4MSOsS3B+oOBwLDHTa262jqAaZJv7w0TKHhwetwaoAEE2P2tF7IhEFgkeuwvUTO7ELkoWpUBKgZ5ho2ZozND4hnZ3SeK0oDCofrbX3IyYYPRk/8vRCdNkYq6sGv9lQqGJ043g1GScPXR3xB+IiS5ws5qFNyMmlvLJ7sDslSrdw0ahDcx02DQlUzO51b+AKWATMMUJhdxyNzjVs1a0z0hM9pb82Re5qta+NmwE+M0L/S+nYSYiFnh5I/pGnUhGDppYqmbraTSbxkR/IlQb+7M/6x19ZnnfiFFJBdyAAhFvDY5ohM/36rnT8LAaY7vOjKnt2YiJNOSk981ptr5YykxxBiQvKtYLWHngTFpJz5BejEZs2UPgUu6qPAWzEbOdctb/wTFjLJa0jML88DmgoD5nRFq3/eNJ2+Ss2Ej2ELgHjjXN9PybacxJYl7u03W8KRVwI6bVqCGbUSDnDOAkTzJlayMJczjnKDjWPNPTb6YxJ+3JU1cz6kTCLHjkM8CmqTyc/nMB1zGetPSr/UY659DciInGWSwwSOH4uIaqfeJypjaacFpbFzAV073yAilnx1jc9hzt0HJ5BJ61ZjsOT3nudI0JrYh2T6gmki3bzpiWPTQ0bkXSuuWnAmaEPe2HAjlnRjRuhE5fMaAl3fw4SAonG1vDp3BxOjHhKSFUJEjIJDYSaXskmbblwqiUmWHP+WABmk7eoahRbNmUzI5cAd+wMsMzn7JVZzrZoCm3kVuxbkqZayPmsGnT6uouupiwadV2CF5sINyY0EjJ6HYvOVXtAIrRMXJlSihyOjGhKdGWWBQGTyQt6fVTaSmztlqJzx+5NmZhKb8pNMM2L1zL9HP4yN3KiWL0g3S9y4vAJDHZ+IR9CfYihymi8fGU5T1yMVPBDC8E1meBPcdjBThAGdCxSxmFzUM3Jg7OodLIn+sA5WpM5MFhiE7OiIylLKl7UC83bbtgX94E9iz/L+BGaLqlnO4ywlpmklPgXUP2cZJnuYRDpfomyhYGM3lTSc1KD45bFbZVcHxmxUxLd4Gds8JiLp29mqlmMxE8w5nC6oywEeLmk0VCuYTDNorJuX8pzRofjFrYyVZIQxawaDAsUvrGzJqxhJVi5Zdbn7mFHA4K5BITRZuTo1KGx03jSr+eH71G8hj2DD8XFObNgfMzMKajMdtE9pA7cmUqMbM1cfCO1ru/GI3ZypUhc3V3QV0k2AUjc94YiNo6pyhz6y+Qmpxs3OZqTISJ0FZwsjC4d8z0XxkwI1TAzTG9SNjt3FXATdE5oMtD42aumYjETplbOOwSE/lxpIXcPKbeP2qGrw0XCoNvjZnKOAq4FTr7jHDfqJmb5hbEpGyg3SUm8uOTVR7s+PSMxcy4aeZfR7d8gz2DUVmg5q1xdchY1zNshPn8uRkgcA1hI2FOusQEKSd3RLK2HB+LW+lCYfDccEPZW4GZt4Ruknc8Yac4q+gWDoNr4KBQkLnEbHBf1NFvGKPxlVMYjC4Y+jI1xr/BK19GUuIcGCvkqqE7zHjcTEUTRu6kNHCwCf/JtTEn7clL/bpnJLZyCoM5mzDZoiUfsFzfBN1BUpmVU28TTdr6UNTScg6hJE7MAnILg/FDhfvbw2e1xr4RY8XUX375+Tg9/06a7tvmp1/6UIjKIjLJS9QgCBpyOQdGoJdnz7BJ3/hpXLS67h1dOTtg2LlWj13OBNBmPAts6dkGzxweELI9rjdumRYNcgyzSNMpL4ZLzQUgB6aCvXoyRRd6M3TfFr/oM4l+6j7P0prJ9hJF2NEqEY1nT3bp9PLxFF9kE218aCVhaMIqOt+jQwG6HYfdRm51ICayPSjcwJ1vjMWswXTGKjMte0Xt8UHT1JRminaBKXbbLvUZtLXRS1sg69XJiRUrGaJjMS/VGB2NMdKYxtHZr9OFa8aKdLhSaSvAsUyZoz+jsiyV8fVxC4c3uRXrQjvyH2cxi8dZa67IwmAxrJ5XMnTzRWvpU10eemR3gMqLFDHVAU3/F3tK2kxe+J3giMH243jSFr3cXzuVptdOp0Wf+JXi7MwEtkIUtBhP6zQS9IlhqPB5QMxWEHMXZYdLwV653K+beh6Nflso0FD1Sr/B9meMXnwvRR/Y6aeHdviF9lxpgA2LcSs/PpaiF4+maTS+enZS66ZkRBPWmF+VTUWS3B7tO/EfBDTF1ULfx4ExU87nWdgLAZyDb72aoDdOa6J56q8+GhEjSkQX4UXGYp47zCfC8IK/+VFMTLuAmZLWaVXBMMhiYurVJYp75mBzChsTFcQiDQQbTPVK9mqLqhvZ+F7PiEEJzWKSxqmtXhXT0RorFQr5b6/c1L7Fz/MFRu6h5ztsyNNdGTELKJ62RW/31QZZJsnnlXI7XuNihD3Z/0weri5SsnbY6jsJSb64ybRJ3/lZkjbV6XSg3UfbmzEiRRUhJjRjna+DNKMXvoBTh8kYGMOCjmgXenQ61pGhdy9kRGvt1QyPYivFQcXP593VDrgCMoiJmjgs5YpHIam1zuORV3m9OniDUScdfNGL35XpyQNB+sR9QfIqfFMuILxk39Agc/6At435Q8+wyQGbGJPS1kJqU/WQpzhMZTnERA3wCIh5mOV+lkrWlN6mGs/mkpBsxpKWzstf3k0/W0xgecdEiq//OE7feSMpnKN7t/rowR0B0aZ6IXAU6NwZlcrY9PKJNL1wxOnljp/XCiqLleEdLf6kqkgtOYdR1X4cxDxK1wdPirFqh7YFLr92Ml3eOaBX0RoBNBaa/UNrYdb5B3f5aV2ZR4xbvhnsBWyTxGs45SuC4s8fSYnxLJhjmcmjtOpSoLXWox9o82nTDo+yvANivsLyOGUHmWIe0yO7fXIsaWp9Y0YqnbHXRBdhzP/uyg6qx/ApDB7FpLJWtj/XVyk3nWk+pbroFtzCCJZO9rQv9up0kW3JFzlro2VWTvHFYqGmRB7d0+ozdzR7c3sZYfhEJ8sJEPNtlnfJKRSGSpXaG9XGfcNGjNNdo5d69XVrqT2MYTna7NuvJ6m2TKHdrSp96K6AGM2HyV4ca7vBQbpV2RtCSMhMpdmrPtGh0Y84FnmCtXPuWMC1BDYZjf1t/pF9m/yhSECuzR7GyTjJ8ia76IMe/sdi4/2r5KztXyIndBR4eFcgHQnK2u9+dSzGoYrIWuxdhIKI3ndS9FO2Ae/l/PvT9wZpc4NXzPxxMZfc+CgTEGYCyI5Zk9oaW7JzAVJyLLn70w+EKjbVe0I5vxpj+RbL/xPPyx68zPIyOQ0Pfg0HZEmKbGnw2f/+06XX/st3oy3D4xbSlmuycBjL/NGLGl0bMsVA0v1tqhiQGlDlG3dF5sybxKRdDLaHdkRue3DMWtOkZIfSLAtLqd/5ZLHdUOVRs7lxnBBoy//J8jo5CtINrEsJ1prv0/XJqNv4RWpRUAqxl1ryxhlf/1vnMuWccF+Tm9MQoB+Lc646kaHRhEn9UYM62VnBnMmxmDVl6UY6t48dqNc5l41YJKb6Yv4k5qOvaUhkN1Qqycf2hka3rfeWsuITrS5ZUMH+Jss/sVxjLopOWZM9ifjAMJMToaOfkFOfWcLk9AV8Uu3H7g0eH4ha/mjcCvCJX7N9jGArYvD98LgpluSJZJBJZ4rguItYyhazJvvZDHiJHRvdLGy1AAJeMtobfKlP3BdKKbK0PnsY2YMulm+zXGAOug0Qpi7N2a2TYDLWemhOdx+QzbG2jm++kuBYm9ZKBRQwT3z0ntC5z34gRC3rPLmz7o+zfIsJ+SfTnz/FoeEn4N5GXOn3WZ5hmZz9x0t67SfvDxZvqPV2UgEFzAOP3OU//pH9/rL11Z4NOYc7yOHY3830mhs87Sw5L7H8kOX75KhbW/VIvrtafepvPhmRQ34pwct8oZlrATcFpxsz1aXy0C8+HC7fWKeG2PlBJhH8wga0v2V5kZzY5Q2YMQTE5MRkgVMs/8xygQUzAJWyiKzev9Uf3NbkHQ8H5ExhB3UBswGKqzgk6/ds9sfaG9RyVmbuHjJ44EdYXmM5z1ybMZgrz/7G0hA/vMHyl+QQEx8WkCWq/KNfKOuvq1A0PlDQmgXMCL9XSm+q86W+9MkS5CSCLNiqA76gzfUfshxnjiVne/2c4pLsFP0xP3ycnP6ZAme6Mie+8kK8+LVT6SYqoIAcKKwtv/B4pOvj94cyrDXbcn6FsNBfMiH/4VbvMddszv9leZ4c116gZZ3a8siegHyw3XeOCiggB0/fG7rwgV1+hc29hpzDp8kxDV+cy3vMNSZ5npxiD4SPRLGHX6Xwtkavlkr702e69ehEyiqyCp2H1zSQbqwplUce2eunyhJPETs7boEGHJxXWV5jbTkyp/eay5Oy+fSXyMkModBjNw5zWqkkFJD9717M9Lx6Ku3PZGxfod/R2oQskxX0UfqpA4Gutjp1Ozs7qEqDdwy78i2W72Qf54R5kYjJCW2JWNQr5PTOlvkYdgT0/+KfDfmuDJjBdMYujPZbg6gskkd2bPBF//RXS912luCWqEZn2ccydjNnZzrmu/RiG8YZlj9j6cYBbCOSZaniC08UR+/Z7Iux116Y0rvGwGnr5AM7A+ZvPBHCigoBKaEpEQ//jyyYuJuieWBeeW/mILJCGmtJ5DbXZ19fh+Li/W1qUSJlatGYOXjssr6OClgwPn5fUFQu9WXz7fkMVkTW/dv84x/c5Zcaq1T0J3A7uBxjgfn3QpY388KCCjL4g04wOX9ATtcE1NSV+DxS1YF2f39Gt8a7R8zA8LhVQgXMG1A1H783ROURmY5eyuQ9MZurlbGn7wlqu1rUIiapW32GGDg88H9mrlylBeB2vGikK59lmQwXlYblmoNbgtVPHwydpAJWPXATfemTZae2NqklXo/kTpyAw4N09g+ZlG/TAnE7xIQtCWKi4AP2pqijqyiWiz73cHjHtvXei5GgFKMCViXWlSsjHz0YPLK9xXvAp0rh7GEs2djc+BfkpLQXjAUTM1vsgXJ4BE7/PPt/kFMK+aTwF54o8t61wa/xEp+mAlYVikPS+N1tvsynHwjWeBXyK04lOmwOKCg4xldY5uyBz4TbKvpFAp5tTXhciFHdw7KXnLbZyt3tvuKxmJmOpYzEsQ5dXe49Q0FV4rvcQ1saPMQ2sOiUVhSSqaZU4RMtiw1maF8ottWy0zE6MXsZADrHoXNHHb8fXyTRJAHLGpoUoBsbtlSgoHi2PkZVJQpVFStYXSjok0Q3ZPS2xB73K/16XgeCfV4ptW+TLwVnp7VWdbtQY/WESYfCDNiW8aziWjBuuxo9Wx1ylQmK/Cc8smbnOJU+tNPfMxo3Eyc79SLdXF5igoT8fegLT0ToucNJ+tHRFK2v8hB7lGIfj4ct975Rp1/Qs4dTTMzZHUkOj9D2ZpWe2BeglhqvIDYaJHQPm3T4fFq0dmHnj6wZuubxx9CGdYpoqrB3o08094qlLLrQY9D7nRn6+5H8nsEdCUjxD+wM2Pvb/Aigu819wQHYk19lPiyK+baoNyeT81F++DzLz7vHxuPmwBtnta4/+LvoflpGQDOiFQyIebwjw9qOCZG2xNaIM106lRfJtHuDSg0VHpJ5bfrtr4zS+R5ddFjLBa8E9NF7gmJLL/b7nLySoZ5hNCsgQXIQDVt10VXjD/52TOwXyqXnbz5ZRA/zDVLJGnOMNetPjqXE1ouWGg81VXvEvvOGKoVsVthHLmbo974+RnkC2+uRjRf+U9UZzuo0eJVJZwf4U5ZnmJTHaJGw2Pt3UGeHACtinIj2UyigFO/a4Nv04X2B9986q7VE41aYlhmttR6xc/HVUxod69BE22iVl+M3z6ZpV7OPPvtQmH7x4TB94+W4aKFtZrlZz6Td1+ajnawth8ZN+qt/itG5a7ogos3r9ivvp+hTh8K0sd5Dm9lkeGRPQLTfjvMyDS3bUOkRuyuxfL9+OiWae/WD+EzMcECmCr452DYXZkcmzxQn39iJzzwYuhQJyK2s9XObYCCm/RzLRVpELDYx0d4D5PweC/Z2BDxsHHO6yvPE/qDaO2xOZHRd4Qu5rN09fBy8hqYDObFxzAVsQ2iqB3cGaBOTq46JWMLL9EjW3mypUaiZtRk06vudGr1zQRNNC9wuGgiIv3VOE13jOAtG+zapguxgHl9Qtm+9VFvqoY4+p5Pb+/wd9OzHK7LJZJfpAhO9kU2M2zTRFhXFQSmxpdGbYFMowCaLq1jwh+F6I2zYkbuRbDGwqHZf1uDFKOn/RY63DseIlwBJuafd1/rY3qDGF3tCkaVlTVvGkiadYHvuysDUFn/oS9k5YNIRJhx6ZqJ35rrS663o2+q9gqwg8IvvpUVj1dzWLnB2YGPCVoSNBBsSwwngWEX8ktC2HlYFp7t1OnVFnyQlgJ2WcJ7QyyiTR30wvYqttzWoox/eExytLfe4tZW4UxE4h7ODjYt9tMhYdIcEzhALNrF9gZwN7Ejk4zp5PnEoWPLkgQB7tNIoLSPQpTcan7lfUEqzRHMCAJ5zVQ4xRZOtsCz6Gp1ibTdTI1U4PX1jToPYmjJFaEq2x1hLS7SB7UiV365nyBR26XSgqdbZrvzq1LF5vf/y0/eGlId2+3N3x+L6oa7yi9nrvehf+E56ymdZ/orl7ym7OYjZWcK2pvR7ny6JshbNSMu0aQhOizFLLAf7wKMxZ+lWvZIQAP9iiebvLcI7eI/ZwkHo/x5NOL+EbellLemRUcQqiT84nXH6GE0HnCC0IUSTLXOZN61gVSsvUoZ/++lI+N4tPizfrtmHJfz/sPxvIppTbeVCcMeIyXcR1A4KjFFOf9Q9XByUQ+0N3qLH9gR6WIssy5IO7SXPEpBAM2X8HjAxxiMn5AMPG2SUZUcDzhbSEO/hnfoaiGE4dyJIOlP/Tcn9nbK8Ra1QGOygGR8/GJhghy3McVu3YgiATYm6yh7pDu75uqOxRf7isD0Q30KjJKh/g+/EUHlEKf61x8KJpkpPnEMPS54ZQmjIp84898fLGrKqxDktac2x+wD8G+fwErQZPHgEyWcazQKNGmT7tCggiaUeHjtGocBsiCZMoRX5b+bfz8zM0ogztGA5uzoHfLK+o0kd+4UPRmyOFoTRLogcTYmtNV9heTtrrt0xLMWfj/pN7CFG+xnUc0Jb+NmJ2P7zh0IX+AKP0xKjkcM2CM94ZvjrkdXZVOeMXBlhj3s0fl0pDEUt4SBxylU4Qp4ZRnSVhZ2wT8CnCHsTxIR5gKW7e8hpJwNbNdd2dQFHaWOdF8soLSc4Ozb2xY9GullrbsjubgQGyema8VO0CaQ7jDtOzKxhjD/ksyw/JkdzCnzsYPCuTz8QSm9rUi/REgIOyVMcbN/dOnUqIYLjaJT1KMcfR9iGRDjn4rXrnvvPzmh0joPu69ip+fxjYfHozenZjuX5k4eC9NjegHCinn07KRwlACGnf+KMUpI17oM7ffTwLr+4CVyA5JWcovx1TgBwdoWWC5yEOPH5D0eirbXefTmH0Q0Q8crfpyXCUjXIAjkT5DhCiGE+Qk4gXuGQSpCDyWnOXUfHk0tTw4nOwQiyP84pxU11Hurl7E8o4GjBDZxiBC1AKnT+tXKsKKQs4Y3jtU1VXvqXj0boHKcwhyZMMXECsysRIgr5ZLo8YNAbTGQ9y2sQtJPDU8cvaeJ5Bzf7hTOFeCrODkwDxC/hmUO7GsswBKypSuk5tN1X3bLOm9t7H4oEG8mwS3bJfIIlIWZWa2Y4ZYkGCuggW8zyAH7F+eoIXyC5Z8gY//briYhlTx3vcieAcA1imdCcCIQnODMT4UA6CjPwwW+eS9OLnEufXoiBDM7xyzoTKsW5blssu+g6jFw3lmiO84le7mhjfZQJePFaZtK7xiO05kvH0xyn5Hx5rZcObfcLswJevpq1K948k+bvERSkXSooHPLhyEHm6ftCqS0Nak15RMaeHTEBkZwqdJDyTWkJo/5L2lKQ/7BRJifuPvyBh5xD5GdtYf3WU0VD338rmWGN4cOQdbqDGIubU4o4DrSrwpGBRsQcymffTokMzEzo6NPF60d5qX98v1PEwcue8KRhQyK4jqzOm2e1GUM+yI2DyB/Y4ae9m3xi1lAs6RRxIOj/zZcT9BBnnu7E1LbZAFIWh5SJzzwQKuKIA+wbt2uGGxpC14wlLaVfFmOGyYkl+9+x/BY52lOgo9d443e/PraNL34xLTJyizhQXfS1H8fFpIi1Dr6h9Id2BaJ/8JmSQXbqtmYPu37BF1mem8/uxsXCcgUlcCei7/sr5KQwBeorlW1P3R3ov2uDr4sKWBLct8U/8OlDoSg7Yk05h5FuRBnjy8tBSmBZugOjmxxrzU7+7zfImcqGIuMSn1cqfnBHgE+EpPeO6kP9Y1YlFXDHsG292sOZOHNjrbeMI1Ruo340vUIq+TvZxmrLgmUL42YNaWxaQgC+hxybhuorlKp9m3yh3a3qmKJIhbX2DgDpRlWx9Q/uUod3NKshDviXZ3+F840uv8jsvEnLiGWtKs8a1F9mQTc5t/JZ2VTvCf/rnysuryuX+wp7hhYfQZXSe9sCZ5+8O7yxukTJLfhFvPK/snxdWuYWk8u+vYSXdNwcGA2I6WxId8nOYcr0DBtd7AxVXbhmhM3bHEqA/DYC10gHYgovYoXpNTS30UXIL8fvbvemvvSpMow2qSDHA0d8EgrgKXIydYPSMheELnt3tuydiSoVZIXQRAE5WNQReDkuWP25h8LD2xq9t52XtSxbpBMRTEc95VokJUyjPa2e9JN3h7TSsITIiJtuRCUYwkLYGjG63KQE8qJtIJ8InQVbPzHrBbvtomiJxCm+4rvbfMqejWqSg9+LWiG9FsEp1PiB9qB2oN2PRKpbMYRaBRDy+yjMwLWgPEC+9bP8OsuPKGf/SElYbubcs8WxtiXNp69GfOqBYPeje/zs+Ii5oS5eYfkeE/JVyiPk3RZmNi6RS4etgz7dbmttq2fEnPjrH8YuvXw8tZ3tQx8VMGeEA1L6iz9X8vZDO327SsNybj0Cho1hxs5P82H5zkU+dgBGgTFCFn9DTjcH2KByZbHi/+ShYCXbneMFT33uKAopse3Nvr57Nqsbgz7ZvaFx/hCv/DuWc/lGSiDviOk2UCCnLxL2lYgwks9D6vYmteKJ/UG9ucaT8KkFct4KpWFlfEujN/bU3UEUm9T4vMKuxI1+jZxKdDicA5SHyMu5kIhv8pKOtOR/IyeXfoAlyHZH6Jc+GMLvtOePpEwME02mTX+hu/YUiLmL4aCs7WxRow/vCtAju/2wKV0PHBEOhITQ+GrEHSqab8j7K8okRIHxr7A8PHmMKHG53xx46Viy98vPx+6909VIKwkY/KR6JO2Pf6X08N5W31a2L0vpugKCtvwmy18xIefcD305sBKIibv9Uyy/zLIre9hMaraWSFv6xV5dvzpoDvWPmpneUVMZjZnqmhrYxlfQ45Gs8ois15d77NoKj7++XKnZVOexgj4pxLFLD12/zmh4hdE4aKg6QXmMvB/xzCewPzsxI5CVFhYvn/Rg0KdgY1msvd4umkjaxljckBOardjW2tKgIGbEL5llEc5uBRU1EpBRGOPPeYrbtxLbI97Kd1ICK+ICZtOWmJaBJf1JlnpybM/CEn5zwH5EPQKSFl9j+QGTspdWAFbMhc2SE3tRULz6GZbttAI0/jIDmhHVW19jQj5DKwj/HxozwUG/W+/7AAAAAElFTkSuQmCC;" vertex="1" parent="1">
          <mxGeometry x="1075.66" y="449.79999999999995" width="13.66" height="13" as="geometry" />
        </mxCell>
        <mxCell id="k-2cysHBCC-xSpzVTrcf-85" value="Agent 3" style="text;html=1;resizable=0;autosize=1;align=left;verticalAlign=middle;points=[];rounded=0;fontSize=10;fontStyle=1" vertex="1" parent="1">
          <mxGeometry x="1091.66" y="446.65" width="50" height="20" as="geometry" />
        </mxCell>
        <mxCell id="k-2cysHBCC-xSpzVTrcf-86" value="" style="ellipse;whiteSpace=wrap;html=1;fontSize=10;fontColor=#ffffff;fillColor=none;strokeColor=#CCCCCC;" vertex="1" parent="1">
          <mxGeometry x="1262" y="437" width="96" height="40" as="geometry" />
        </mxCell>
        <mxCell id="k-2cysHBCC-xSpzVTrcf-87" value="" style="ellipse;whiteSpace=wrap;html=1;fontSize=10;fontColor=#ffffff;fillColor=none;strokeColor=#CCCCCC;" vertex="1" parent="1">
          <mxGeometry x="1262" y="537" width="96" height="40" as="geometry" />
        </mxCell>
        <mxCell id="k-2cysHBCC-xSpzVTrcf-88" value="" style="endArrow=none;html=1;rounded=0;labelBackgroundColor=none;labelBorderColor=none;fontSize=10;fontColor=#ffffff;strokeColor=#CCCCCC;exitX=0;exitY=0.5;exitDx=0;exitDy=0;entryX=0.001;entryY=0.454;entryDx=0;entryDy=0;entryPerimeter=0;" edge="1" parent="1" source="k-2cysHBCC-xSpzVTrcf-87" target="k-2cysHBCC-xSpzVTrcf-86">
          <mxGeometry width="50" height="50" relative="1" as="geometry">
            <mxPoint x="1242" y="537" as="sourcePoint" />
            <mxPoint x="1292" y="487" as="targetPoint" />
          </mxGeometry>
        </mxCell>
        <mxCell id="k-2cysHBCC-xSpzVTrcf-89" value="" style="endArrow=none;html=1;rounded=0;labelBackgroundColor=none;labelBorderColor=none;fontSize=10;fontColor=#ffffff;strokeColor=#CCCCCC;exitX=1;exitY=0.5;exitDx=0;exitDy=0;entryX=1;entryY=0.5;entryDx=0;entryDy=0;" edge="1" parent="1" source="k-2cysHBCC-xSpzVTrcf-87" target="k-2cysHBCC-xSpzVTrcf-86">
          <mxGeometry width="50" height="50" relative="1" as="geometry">
            <mxPoint x="1272" y="567" as="sourcePoint" />
            <mxPoint x="1272.096" y="465.15999999999997" as="targetPoint" />
          </mxGeometry>
        </mxCell>
        <mxCell id="k-2cysHBCC-xSpzVTrcf-91" value="&lt;span&gt;&lt;/span&gt;&lt;span&gt;&lt;/span&gt;&lt;span&gt;&lt;b&gt;Vald Agent and node resourse&lt;/b&gt;&lt;/span&gt;" style="endArrow=classic;html=1;rounded=0;strokeColor=#006076;strokeWidth=2;endSize=0;fontColor=#006076;labelBackgroundColor=none;align=center;labelPosition=center;verticalLabelPosition=top;verticalAlign=bottom;spacingTop=0;labelBorderColor=none;spacing=0;spacingLeft=0;spacingBottom=20;startArrow=none;dashed=1;dashPattern=1 1;" edge="1" parent="1">
          <mxGeometry y="-8" width="50" height="50" relative="1" as="geometry">
            <mxPoint x="222" y="374" as="sourcePoint" />
            <mxPoint x="382" y="374" as="targetPoint" />
            <mxPoint as="offset" />
          </mxGeometry>
        </mxCell>
        <mxCell id="k-2cysHBCC-xSpzVTrcf-94" value="" style="group;spacingLeft=40;align=left;" vertex="1" connectable="0" parent="1">
          <mxGeometry x="400" y="342" width="172" height="36" as="geometry" />
        </mxCell>
        <mxCell id="k-2cysHBCC-xSpzVTrcf-95" value="&lt;div style=&quot;text-align: justify&quot;&gt;&lt;b&gt;&lt;span&gt;&lt;/span&gt;&lt;span&gt;&lt;/span&gt;&lt;span&gt;Agent Discoverer&lt;/span&gt;&lt;/b&gt;&lt;br&gt;&lt;/div&gt;" style="rounded=1;whiteSpace=wrap;html=1;fillColor=default;strokeColor=#CCCCCC;align=left;spacingLeft=40;arcSize=10;" vertex="1" parent="k-2cysHBCC-xSpzVTrcf-94">
          <mxGeometry width="159" height="36" as="geometry" />
        </mxCell>
        <mxCell id="k-2cysHBCC-xSpzVTrcf-96" value="" style="sketch=0;html=1;dashed=0;whitespace=wrap;fillColor=#2875E2;strokeColor=#ffffff;points=[[0.005,0.63,0],[0.1,0.2,0],[0.9,0.2,0],[0.5,0,0],[0.995,0.63,0],[0.72,0.99,0],[0.5,1,0],[0.28,0.99,0]];shape=mxgraph.kubernetes.icon;prIcon=pod;fontColor=#006600;" vertex="1" parent="k-2cysHBCC-xSpzVTrcf-94">
          <mxGeometry x="12.996153846153845" y="7.714285714285722" width="27.559692307692305" height="20.57142857142857" as="geometry" />
        </mxCell>
        <mxCell id="xtpNrOkgLzYpHderiMOa-38" value="&lt;b&gt;&lt;font color=&quot;#333333&quot;&gt;kube-api server&lt;/font&gt;&lt;/b&gt;" style="text;html=1;align=center;verticalAlign=middle;resizable=0;points=[];autosize=1;strokeColor=none;fillColor=none;fontColor=#006600;" parent="1" vertex="1">
          <mxGeometry x="90" y="355.5" width="99" height="18" as="geometry" />
        </mxCell>
        <mxCell id="xtpNrOkgLzYpHderiMOa-39" value="" style="sketch=0;html=1;dashed=0;whitespace=wrap;fillColor=#2875E2;strokeColor=#ffffff;points=[[0.005,0.63,0],[0.1,0.2,0],[0.9,0.2,0],[0.5,0,0],[0.995,0.63,0],[0.72,0.99,0],[0.5,1,0],[0.28,0.99,0]];shape=mxgraph.kubernetes.icon;prIcon=api;fontFamily=Helvetica;fontColor=#000000;" parent="1" vertex="1">
          <mxGeometry x="59" y="352" width="26.04" height="25" as="geometry" />
        </mxCell>
        <mxCell id="k-2cysHBCC-xSpzVTrcf-98" value="&lt;span&gt;&lt;/span&gt;&lt;span&gt;&lt;/span&gt;&lt;span&gt;&lt;b&gt;Vald Agent and node resourse&lt;/b&gt;&lt;/span&gt;" style="endArrow=classic;html=1;rounded=0;strokeColor=#006076;strokeWidth=2;endSize=0;fontColor=#006076;labelBackgroundColor=none;align=center;labelPosition=center;verticalLabelPosition=top;verticalAlign=bottom;spacingTop=0;labelBorderColor=none;spacing=0;spacingLeft=0;spacingBottom=20;startArrow=none;dashed=1;dashPattern=1 1;entryX=0.5;entryY=1;entryDx=0;entryDy=0;" edge="1" parent="1" target="k-2cysHBCC-xSpzVTrcf-35">
          <mxGeometry x="-0.4706" y="-8" width="50" height="50" relative="1" as="geometry">
            <mxPoint x="582" y="373.5" as="sourcePoint" />
            <mxPoint x="792" y="374" as="targetPoint" />
            <mxPoint as="offset" />
            <Array as="points">
              <mxPoint x="791" y="374" />
            </Array>
          </mxGeometry>
        </mxCell>
        <mxCell id="k-2cysHBCC-xSpzVTrcf-99" value="&lt;div style=&quot;text-align: justify&quot;&gt;&lt;b&gt;&lt;span&gt;&lt;/span&gt;&lt;span&gt;&lt;/span&gt;&lt;span&gt;Vald Index Manager&lt;/span&gt;&lt;/b&gt;&lt;br&gt;&lt;/div&gt;" style="rounded=1;whiteSpace=wrap;html=1;fillColor=default;strokeColor=#CCCCCC;align=left;spacingLeft=40;arcSize=10;" vertex="1" parent="1">
          <mxGeometry x="400" y="552" width="182" height="36" as="geometry" />
        </mxCell>
        <mxCell id="k-2cysHBCC-xSpzVTrcf-100" value="" style="sketch=0;html=1;dashed=0;whitespace=wrap;fillColor=#2875E2;strokeColor=#ffffff;points=[[0.005,0.63,0],[0.1,0.2,0],[0.9,0.2,0],[0.5,0,0],[0.995,0.63,0],[0.72,0.99,0],[0.5,1,0],[0.28,0.99,0]];shape=mxgraph.kubernetes.icon;prIcon=pod;fontColor=#006600;" vertex="1" parent="1">
          <mxGeometry x="412.99615384615385" y="559.7142857142858" width="27.559692307692305" height="20.57142857142857" as="geometry" />
        </mxCell>
        <mxCell id="k-2cysHBCC-xSpzVTrcf-101" value="" style="endArrow=none;html=1;rounded=0;strokeColor=#006076;strokeWidth=2;endSize=0;fontColor=#006076;labelBackgroundColor=none;align=center;labelPosition=center;verticalLabelPosition=top;verticalAlign=bottom;spacingTop=0;labelBorderColor=none;spacing=0;spacingLeft=0;spacingBottom=20;startArrow=none;dashed=1;dashPattern=1 1;endFill=0;" edge="1" parent="1">
          <mxGeometry y="-8" width="50" height="50" relative="1" as="geometry">
            <mxPoint x="485.52" y="392" as="sourcePoint" />
            <mxPoint x="485.52" y="537" as="targetPoint" />
            <mxPoint as="offset" />
          </mxGeometry>
        </mxCell>
        <mxCell id="k-2cysHBCC-xSpzVTrcf-102" value="&lt;span&gt;&lt;/span&gt;&lt;span&gt;&lt;/span&gt;&lt;span&gt;&lt;b&gt;CreateIndex command&lt;/b&gt;&lt;/span&gt;" style="endArrow=none;html=1;rounded=0;strokeColor=#006076;strokeWidth=2;endSize=0;fontColor=#006076;labelBackgroundColor=none;align=center;labelPosition=center;verticalLabelPosition=top;verticalAlign=bottom;spacingTop=0;labelBorderColor=none;spacing=0;spacingLeft=0;spacingBottom=20;startArrow=none;entryX=0.828;entryY=0.5;entryDx=0;entryDy=0;endFill=0;entryPerimeter=0;" edge="1" parent="1" target="k-2cysHBCC-xSpzVTrcf-63">
          <mxGeometry x="-0.4706" y="-8" width="50" height="50" relative="1" as="geometry">
            <mxPoint x="592" y="570.35" as="sourcePoint" />
            <mxPoint x="800.9999999999998" y="402" as="targetPoint" />
            <mxPoint as="offset" />
            <Array as="points">
              <mxPoint x="1230" y="571" />
            </Array>
          </mxGeometry>
        </mxCell>
        <mxCell id="k-2cysHBCC-xSpzVTrcf-107" value="" style="endArrow=classic;html=1;rounded=0;labelBackgroundColor=none;labelBorderColor=none;fontSize=10;fontColor=#ffffff;strokeColor=#006076;entryX=1;entryY=0.5;entryDx=0;entryDy=0;strokeWidth=2;endSize=1;startSize=1;" edge="1" parent="1" target="k-2cysHBCC-xSpzVTrcf-63">
          <mxGeometry width="50" height="50" relative="1" as="geometry">
            <mxPoint x="1230" y="202" as="sourcePoint" />
            <mxPoint x="1257.05" y="185.35" as="targetPoint" />
          </mxGeometry>
        </mxCell>
        <mxCell id="k-2cysHBCC-xSpzVTrcf-108" value="" style="endArrow=classic;html=1;rounded=0;labelBackgroundColor=none;labelBorderColor=none;fontSize=10;fontColor=#ffffff;strokeColor=#006076;entryX=1;entryY=0.5;entryDx=0;entryDy=0;strokeWidth=2;endSize=1;startSize=1;" edge="1" parent="1">
          <mxGeometry width="50" height="50" relative="1" as="geometry">
            <mxPoint x="1230" y="355.5" as="sourcePoint" />
            <mxPoint x="1262" y="355.5" as="targetPoint" />
          </mxGeometry>
        </mxCell>
        <mxCell id="k-2cysHBCC-xSpzVTrcf-109" value="" style="endArrow=classic;html=1;rounded=0;labelBackgroundColor=none;labelBorderColor=none;fontSize=10;fontColor=#ffffff;strokeColor=#006076;entryX=1;entryY=0.5;entryDx=0;entryDy=0;strokeWidth=2;endSize=1;startSize=1;" edge="1" parent="1">
          <mxGeometry width="50" height="50" relative="1" as="geometry">
            <mxPoint x="1230" y="510" as="sourcePoint" />
            <mxPoint x="1262" y="510" as="targetPoint" />
          </mxGeometry>
        </mxCell>
        <mxCell id="k-2cysHBCC-xSpzVTrcf-111" value="&lt;span&gt;&lt;/span&gt;&lt;span&gt;&lt;/span&gt;&lt;span&gt;&lt;b&gt;Save Index&lt;/b&gt;&lt;/span&gt;" style="endArrow=classic;html=1;rounded=0;strokeColor=#006076;strokeWidth=2;endSize=0;fontColor=#006076;labelBackgroundColor=none;align=center;labelPosition=center;verticalLabelPosition=top;verticalAlign=bottom;spacingTop=0;labelBorderColor=none;spacing=0;spacingLeft=0;spacingBottom=20;startArrow=none;exitX=0.962;exitY=0.177;exitDx=0;exitDy=0;exitPerimeter=0;" edge="1" parent="1" source="k-2cysHBCC-xSpzVTrcf-51">
          <mxGeometry x="-0.0008" y="-14" width="50" height="50" relative="1" as="geometry">
            <mxPoint x="1433.000000000004" y="205.9999999999999" as="sourcePoint" />
            <mxPoint x="1479" y="206" as="targetPoint" />
            <mxPoint as="offset" />
          </mxGeometry>
        </mxCell>
        <mxCell id="k-2cysHBCC-xSpzVTrcf-117" value="" style="shape=image;verticalLabelPosition=bottom;labelBackgroundColor=#ffffff;verticalAlign=top;aspect=fixed;imageAspect=0;image=data:image/png,iVBORw0KGgoAAAANSUhEUgAAAEoAAABJCAYAAACaRLDfAAAACXBIWXMAAAsTAAALEwEAmpwYAAAAAXNSR0IArs4c6QAAAARnQU1BAACxjwv8YQUAAARvSURBVHgB7ZvNTupAFIAPtUo0MenOlQmJiSaurjG4lTcAn+DKE3jfQLgPcK88AfAEyBOgW8Vw48boBlYuXAi68BftndN06oD8tLQz0yl8Se0wTBP6ec4wM0xjoAj1ej1DTkXTNDvkXEgmk0cwo5dGo/GTHObj46P5+vpqXl5emhcXF4cw4wsq6enpyaTMZPUxSNJMVh+jJM1k2biRNPWyvEiaWlmTSJo6WX4kTY2sICRFXlaQkiIri4ekyMniKSkyskRIUl6WSEnKypIhSTlZMiUpIysMkkIvK0ySKKGTFUZJlNDICrMkihdZsbOzsx+apv0lZePz8zO7s7PzD3yCksiptLGxAYuLixBm3t7e4Pr6Gt7f33Pb29v5oQ2JzSYu2rfbbZPcYBvFgQ9UiKR+3ESWRtollpeXwTAMWF9fN+bn52uTylIpklgWFhYAPzO599wwWRr7Ymlpicpq2DftGlUlUcbJ0vorbFlYLLmVpbokyihZ2qALUNbm5ibMzc2NlRUVSZRhsrRxF4ySFTVJFFbW+fn5L6zT3FwwSFZUJVHoveu6fkju1dDdXkDGGiUSiomPj48qEZcmb+WiKolCRgR4MvDPWFEIlXV7e5sj46NcPB6H1dVVqz6qkLEV3NzcQLfbzSeTyY4rUQhKSSQSEBStVgtOTk566jKZjDWekw2VRM4oKYd1rkUFDUrKZrM9dQ8PD3BwcAAyGSQJ0UAS5XL5W93x8THIZJgki3q9boqm2WxiL2kdJJ1Nkm7Oa5xzyuDl5cWa75HhQG6QRCkRVa1WnXIqlbL6JkqhUADRjIwkGymijo6+tl+iqN3dXed1fwfPGzeSLESnHi7BgJ1meGAaYrqxddhGBOPSjUV4RPVHEw45cEiAZQqbmrxwHUk2wkWdnp465f39fafM9lOlUgl44lWShcjUq9Vq39KOLD9bx/39fc972JYHXtKNReiAk40UTLd8vneJGus6nY5VxvRj0zEIJookisiIwjETMFEz6sCxVZBMGkkUYX0URgjO7yixWOzbwYKRFdRQwVck2QhLvUql4pTxm65YLA5st7e356QfTnP8pl8QkixEpB6Ok9hpCvm2G9oW3wMm/fxMafymG4uQ1MPJLo0SJJ1OD23LDhP8pF9gkUQREVHk5k3SBznHqCjpjz6SeqZXgowkSgxFkZ+SgSdsJ46MWwD02p4l8EiyEdKZe10ZnXQllZckRNrCXdDwlIREQhRvSYjyokRIQpQWJUoSoqwokZIQJUWJloQoJ0qGJEQpUbIkIcqIkikJUUbU3d0d7twtyZCEKCPq+fkZyNp6GSShjCh7H1YKJKGMqJWVFYjH44dedysHhTKi3Owp5YlSwwOZspQbcFJZ4GEffBAoOYVBWfShAbLcmwIBKDsppk9Y6Lpe8fugkxuUXmZhnt2p8Zal/MIdylpbWzM0TasBR1BUG+dRKmPvd+e671onP4P9vrq6+kNyHUJADCag2+3iUwZ54Ij1wfBZD+D8H+HN1tZWCzjyHwqLimQLEPDVAAAAAElFTkSuQmCC;" vertex="1" parent="1">
          <mxGeometry x="1500" y="195.35000000000002" width="37.51" height="37" as="geometry" />
        </mxCell>
        <mxCell id="k-2cysHBCC-xSpzVTrcf-118" value="" style="shape=image;verticalLabelPosition=bottom;labelBackgroundColor=#ffffff;verticalAlign=top;aspect=fixed;imageAspect=0;image=data:image/png,iVBORw0KGgoAAAANSUhEUgAAAEoAAABJCAYAAACaRLDfAAAACXBIWXMAAAsTAAALEwEAmpwYAAAAAXNSR0IArs4c6QAAAARnQU1BAACxjwv8YQUAAARLSURBVHgB7ZtLTiJBGIB/2laiiUm7cmUkMdHEFWhwK55guIHODeYGNHOAeZwA5gTjXMDHVjGgG6MLwY0LN6ALn0jN//dQTEN4NHR3VVfDl7TV9COhPv4q/6qujoAiFAqFNBY5xlgNy5/JZPIHTGinWCzu4sYeHx/Z6+sru7i4YGdnZxmY8B8u6enpiXEmsjroJmkiq4N+kiaymjiRNPayhpE0trJGkTR2stxIGhtZXkgKvSwvJYVWlh+SQifLT0mhkSVCkvKyREpSVpYMScrJkilJGVlBkBR4WUGSxAmcrCBK4gRGVpAlcYaRFTk5OYlrmvYd941Go/F5a2urBC4hSVjk19bWYHZ2FoLM29sbXF1dwfv7u7m5uZnteSHaLNOkfbVaZVjBKokDF6gQSZ04iSwNr4vNz8+DYRiwurpqTE9PH44qS6VIsjMzMwP0nbHuZi9Zmv3D3Nwcl1VsVtoxqkriDJKldR5oyqLdvFNZqkvi9JOldbuBZK2vr8PU1NRAWWGRxOklSxt0Qz9ZYZPEscs6PT39Qsc0Jzd0kxVWSRxed13XM1hXQ3d6A+YaeQzF2MfHxx8U9wlPmWGVxMGMgAqD/gwURXBZd3d3JuZHZjQahaWlJet4WMHcCq6vr6Fer2eTyWTNkSiCpMRiMfCaWq0G+/v78PDwYO0vLy9DPB63NllwSViSJNM6WCgUmAzK5TJLpVIU2103/FHY3t4eE83Ly4uVpWMnbtrlOY4oL6lUKrCzs2OV/a6hCBNJ10hqIlxUN0kYWZBOp619/A8Dx8fH1vnd3aEGB67oJ8lCdNPDyrc1sUwm0/W6XC7HRNGruUkVRX0P2Poh2TiSBAMSTq85Ojpqa3KmaYJMBjY3G0JFdXbelArIYhhJhFBRt7e3bZ/9yMucMKwkQqioIDCKJEKoqM6mFqQ8aRBCRXU2tfPzcxCFG0mEUFE0fqO5eU4+nwcRuJVECBVFkhKJROszpQvZbNaazmD/pjRaULPsN8RxiheSiAglnPg8C0RBld/Y2AB8PNY6RpG2vb0NCwsL1vlSqWRtFHFuhjFeSbKQMXtAw5NIJNJz5oBvKIqNitOM2ylS0gOcPoGbmxtrcIzCWpsd6vhHTUg9jaQmUqZZCBJxcHDQamo8VaB+jJriqMmoH5IIaaI4JMSrDN0vSURoMnM/JRGhEOW3JEJ5USIkEUqLEiWJUFaUSEmEkqJESyKUEyVDEqGUKFmSCGVEyZREKCPq/v6eVu7mZUgilBH1/PwMjUbjF0hCGVHNdVgpkIQyohYXFyEajWaGXa3sFcqIcrKm1E+USg9kylIu4eSyYIh18F6g5BCGZPGXBnBOPAUCUHZQzN+w0HX9t9sXnZyg9DSL7d2dQ79lKT9xR7JWVlYMTdMOwUdIVJXGUSrTXO9ugI/o+Kzw6+Xl5Tds6xAAIjAC9XqdHslnwUesL0bveoDPv4jfJBKJCvjIX3lmPhxsx5WYAAAAAElFTkSuQmCC;" vertex="1" parent="1">
          <mxGeometry x="1533.66" y="195.35000000000002" width="37.35" height="36.85" as="geometry" />
        </mxCell>
        <mxCell id="k-2cysHBCC-xSpzVTrcf-119" value="&lt;div style=&quot;text-align: justify&quot;&gt;&lt;br&gt;&lt;/div&gt;" style="rounded=1;whiteSpace=wrap;html=1;fillColor=none;strokeColor=#CCCCCC;align=left;spacingLeft=40;arcSize=0;" vertex="1" parent="1">
          <mxGeometry x="1486" y="178" width="97" height="80" as="geometry" />
        </mxCell>
        <mxCell id="k-2cysHBCC-xSpzVTrcf-116" value="" style="shape=image;verticalLabelPosition=bottom;labelBackgroundColor=default;verticalAlign=top;aspect=fixed;imageAspect=0;image=data:image/png,iVBORw0KGgoAAAANSUhEUgAAAIYAAACGCAYAAAAYefKRAAAACXBIWXMAAAsTAAALEwEAmpwYAAAAAXNSR0IArs4c6QAAAARnQU1BAACxjwv8YQUAACStSURBVHgB7X13dFzXeef33pt5UzHAoJMgCBAkwd7AJjarS5ZIVVuKZa9bdrXJ2mtvtF5vcrKbk921veVks0n+2cR2HNuJHcdNbopldVmNFEWKpCg2sIAEAaKXwfR5Ld/vvjcQBIEkSGIGA2B+53znzbwZDGbe+93vfvVeieYoLMuaz4dbWPawbGHB8yhLP8tzLE+xHJQkaYjmICSaQ2Ay4PcuYrmH5RMsTSwBFg+Li8V0JMGisRxn+QHLs0yQczSHMCeIwYRQ+LCR5TMsO1kaWPxkk+FK0FniLCDFLyBMkMM0BzCricGEUPmwneURsomxlKWExc1iaroVHYgaHcfbM2Z/xHL5VckIlyjGygZ3IOST6hRF8pJ9jTIsvSynWfay/ITlMJPEolmKWUkMJoSPD7ez3MqymmUNSxXZGiIzkrCG3jiezhw4nSrr6NeTAyMGpTSS3TKZqiqbNaWK2lirmFuWeRItSzxBnyqV8t9B64AgAywHWd5meZ5lLxNEp1mGWUMMZ7ooY9nFci/ZGgI2BDQEXkv1DJt9rx9LSW+eSgdaOzJW16BRohlCe3wAXjel66tdseULVLlliTuxY5VPKQ/KFZJkaxuyjVRokEMsT7O8whKfLVpkxhODCQEtUE32lLGVZZNz9InX+WZ19hvDB06n1bfPpPV3z2fUzgEjpF+GEOPhdlFmQaUrsmmpx1zXpCoti1W9OqyU84VTnbfEWPaRPcUcdI4DTBCDZjBmLDGYEJj/l5BNBLibO1hWkmNQGiZFznbpsf0nU14mROpYux4cGNFDFknX9ZtdMhnVZUps9SI13rLY7WWixBtr3GH+tKDzliTLCZbXyCbIAZYzTJAMzUDMOGIwIUJku5wrWG4me+pYxuLi10z2SKPne/T0wbMZ6c2TqdiRc1rlYNTAzZuS38ofYoWDSnTrMnfP5mZP5ZpFHq2x1uWXJeHlyGTbIafInlpeItvlPccESdMMwowhhmNQIgi1nuw4BEgBG0K2LDLSmpXsi5iZs91a7DcHkpHnDyVX8nmFcgQQRJFJv3W97+R9W/2VdRWuYF2FIvPUg+8JgmAqaWX5Z5YXWU6y9DBBEjQDUPDEYELAI6hn2UB2lPJOlrD9GmVSGUu70GdkDp1JDTxzMCUfPZ+BNsnr72JtwR6Mt/WODV7f2kZ3aWWp4goFZNWxQ2CowpP5DdkkOcZygQkSpQJGwRKDCQHVDFLAdvh3LDeRHZQC9ETaMvtHjMjB1vTQT9+I+0606/U0zWB7w1rd6G579EOB9PomTwV7MaVeVYLWygbSECx7huU7LPtZhgt1iilIYjikeJjl82QTYizMkaR5/lf7EtHvvxif3zNsVFEBYn6Fq+eTtwUu3bPFX1rilZomeAtiIH/B8kIhkqNgiOHkMTDqH2D5t2QHpsZC7x4yj//5z4bV/SczdbGkWUIzABUheej2Dd72xz8c8rAGgZE8/prDe/kOyy+ZIBepQDDtxHDiEGtZPk52Yqt23FvSrZ36of/1w+G6U52ZmnRmNH4wo8Dh9uSGJZ7z/+mjofjCKhfspfGGcTvZCbt/Yjky3YGyaSMGEwIZTdgPnyU7DjGP7EwnvAxLM6zI6Q6t9c+ejDR19Bol0aTlMiwLr83Y2ItbIa0soGSa5imRz+8JdTQvcK9wu6SsKw0vBh7LebJd3b8nO+0/LYGyvF9kJzAFVxM2BIJTi8kmBDSHxlPE0NEL6Z7vv5hccGnAkC4N6n5Ods1ILTER+EabqsvSasPu5PI6l/ngzkD3mkbXPJ8qIz6Tzccg3I6MLjK5MFafzXegLC/EcOwHeBgPkh2DQCwCUwbsBOjM1HDcHHr+YCL57Nupqo5+gwaipt8wrZzFIQoBHpeUri13JesqZdq+wjN4V4vPWxFSKsl2c7Mpf9gdCJIhH/OjfMVBckoMJ+0Nr+FusrXEOrKDUkJ98rQQv9inDbx6POM6fDbjb+3QqHvICOqGdbU6iVkFDrdr8yuU6LIFbnn9Ek9i50qvwcGyKnZ/oV1ha4yQPcUgJ4N4CKYauLom5Qg5IYZjP0AjbHcEtgS8DJG4Yk0wfL7HiB8Uia2M9m57xtszaJaa1uzWEFeDIls6a5DI6gZ3Zusyr9KyRNU5gVfKBAk4b4G2QPzjLbLzMa+zdOci7T+lxGBC4Acgh7HZEWQ54aKJG86aoL+1U8u8cjStHr2QSXNQKhSJT10eY7YAmoDd3Oiqhe7Y6kbVt32FmmheoAY4whp23oKyQ4TbQQwQBEQ5yX+XpCnClNwQJkQF2YmtVWQXx0BD2HkMVhCJpDnS3m8Yh86mtTdPZFL7W9P1GX1uTRfXCcvrpszWFb6LNy1XQ2saVbm5zu2SJSvEJMjmY2CkYmp5gexw+5mpsENuiBiOhkBiC5oBeQxMG/XOa0YsZaX6hs3M4XOZwecOJbX9p9LLqYjrAvIxnM1tfWSX39dQo5bPK5dkryp7JVsbw9Y4y/Is2Qm7o2RPMdedj7kuYjgh62ay3c3dLLexwN1CHUQqkTIz53t180BreuCp/Ukvp8HrqIipAedjWhZ7zty2XlVamrzlVWWKuywou5k4MPRhqEbITvf/imxjFRpEo2vENRPDIQU0w9fIjlgKy9ng1HcybRrsVXT/9mh66Jd74xXsdk57Yms2g+2Ojo/s9MU2LfWUV4fksN8r435mp2hUlkGDfIXl2LWSY9LEcELX0AoPsfx/ckrb2MNID0Utq3NAv/DLfQnjhcPJOo5SllIReUMV52P2bA303tHi9TVUK7U8xSjSeyF3VLc/xvIGkyM12c+8FmKg0Ba1EN+j9+odEYg6/t+/N+xjt7MmmTH9VMS0oSwgRe7Y4Lv0xEOlPk73N455qYfsKf/oZCOokyIGkwIWMDwNxO8bs6d/vjfx1jd+HWvuGdbLqIgCgUWLa11DX/1s+EzzfHXzmBcQOf0yE+PYZD5FpskBVdi3sCzInnjxUHL/3z4dax6MGUEqooAg0dkeo+xPvhtZ2jVgvj3mBdTGrnGCj1fFtRADnocwbFIZq/UrP4ys7hrSS7ViPKLwwBnoti4t9AdfH5jPbsqwcxYDGKbApAqbrkqMMQmwNdlzT76eHB6JC3uiGLEsUJhMjgt9WsWpDu3MmNMIQJZP5u8nozHgiWAKgR0BPzn95BtxxCWKpChg8I2SNJ3cv3gjOfYeI/ZUak0iJzUZYiANDKYpCG/HUmbnhR6tloqYEXjhcAKpCuRQMKih+dGkFbra302GGMiDiFC2YVgGB616zBz2axQxtRiKmWXJtNWN3huy7zeIcdXpZLLEwPIBlOHk7oHTqZzVABQx9YCt0d6n95omZVPzGOQ3RgzHtUGSTJS/pzKm8uKRVDUVMaPw+sm0kdatrE0Is+Cq9/BqGgPMWki2q8MfLiVPd+rzqYgZhb3H0hWcx8pO/8hf1TjVdZfF1YgBEoAYsC9SkbjRk0hZASpiRuFEu1af1iwk0WCAorcWXuYVDdCrEQOkEPZFIm3p7BMPUhEzDmwC+Idj5kXTtOCdYEqBAXrF6eRqxECvRyMeJDn1cvS8NtlIaREFBKiJtl59OKVRNoEGF/aKBuhlb7TT/wGVI2yKwaju3XciVSy4maHYfyrjGkmY2fuNWaDmSu+/kgaAkYKpRKxaNxSnRNegMY+KmJF482Rq4WDU9DpPMY3U8eC/bAL0SsQACYS2yOhWqi+i9VERMxaDMSscTRhR07IQz8Bgb6QP9gmP4krEwLQhiJHKkNnWrU+6+qeIwgN7lUpfxBowzdEWA8wGlzUNJiSGU5hTn/1DdlNd77TpPipiRqO1M5OKpaxs5Bp2xmVrci9XS4HEGbQFUusGuzquC71aJc1guF0SeVUJHefkkiVSFAkl+Xy0n4+FhspmUyzlhCYp0nWLMnxMZ/jxDE4IHLugBRIpUy4LiFiXGPio5Z2ok+1yxMAfwcaQDdNKRBJmLBITTUUFBVnGQq0SBX0ylfj56JH5sf0c51UWD4t4rNrvVWSbEC4FE60kiKGM05s6p5vY5xduHh6DJCBLRmNyMElSGTwm4qARu/EmxZIWcdaZ4imL2PLnx/Z7rQJbCvZ8j145EDWU+RUKEmooo4CNAbe1d/x7L0cM5O2FmuH4RbxzwOhno2VacyQ+VaZwUKKqUoXKS2Qh4RKFSrxMBD8TA4TwyhRwjtAOHpdNDA8/BolutIBEaBAmDAiR5oiATZL3iIFj1CEGjuwFEN8IZDipL2ISa14Y8jRdYNKG+Lt082Av4QECjwT3GHmwSROjkWyNQSNx0zzbZeZ9rWy3C1XPMtWUuai6TBaEqCpTaH65QrV8rA7LVMHEgFbIF7B0rFuRhASzjt9lKhA41c1kMKh32BDHSwMmOvlZdFTWi/PQLkYepyZkWi8NGEOcN3EHfQqIgXuMYNe+8e/9ADGc/hEwSWiIvhHTfbw9k5eCX6h4TAXhoEL1lS5aVKvQ2kUqrWGpDCnXuabv9MDnkWhhtUtIFtAWrM7pdKdG77Rp4nH/iE0eTE9mHpTJuW7NGIx5zaDtSsC5mGjhuAk1BuYdEMPP31NjhrnbujM5rdjCfB9g9b9kvotWLnTTrlVeQQbVNbuqB/F7muvcQnZvIYomTdp3MkP7T6boTJdOHf06DcdNtm8oZzjSli67Y9DvXVglNB00RgOi3OObkSYixmgcnQ2vyEBU15nNOSMGPIK6CoV2rPTQQzsCtKjGNaM0w42ghI3kOzd46dZ1HjrertGPfhung6czQovkSntc7DFq+iPwrVSYB0i9IzSOyvH3rRh4RWKwARXvHTKxBmXOiNFY66JP3hagD2/0kWuWaYjJAoNjbaMqBsVPX4vTP/02IeySXCCtkzqcsLrYtvGzN4YaUHibmE7eR4yJAlxIyYoEy8V+XTrbnVu78/6tPrplrXfOkmIsoEFuWeuj29d7KZfo6NNHYgkzO3XAllw8/j3vI4bTyQ6NIVoO27r00OlL2qT6EK4XF/p0Ya0XYYMTlXShN7eD8WyXprBTkR2JIMaS8e8ZrzFQKArVgpX0kl3DunswauSUGM8cSNL3XorRkXOZggsI5ROcy6AXjyTpBy/H6MDp3K7ceL5Xr+gZMrKVeFg5cYGz3ccoxtsYo3n6VNoaGRrh6J1JOS3lS7C//9q7aersN2lTsyqM0BX1bhGhnAtAgOxIW4bT4hl643haxDlAklwiEreC/SNmigdiQrL3WcnaGaM7RI4nBlbWy8YvUvlQ8XewVe5xy3ToTIZ+9nqCXj2aEjGMLcs9wnWFCzubSIJbjnD5CfZCWjme8eapNF3sM6iHCVERkoW9xdlseu7QlK2z9gFouuUeGDG6khnL7fdIIAbuOe79B4nhZFQRChcrw10a0N09w7knxqoGD21cotLGpSqr0DQd5cDPXr5YmGfL+ULNr3DRknkuQZaacpmjni7yehAMmxlkweiPcqj80iAHszgszgEmDmxxBHTQEOHyXj7XyN7I7i1+auFrUMrh/deP534zgov9mfRA1EN+j1hhE7PE++yMsRojW38hMqoclSthQyjnNZ4BNsCX1rloMWuG9U2qIMQ59oRaO3QYSXT4XILCHBov5YwgEmUIk2NkVXNYvIbD5GVBfo0lHJCEVe/35r8sFTGHOAerIgmL8yKGnSeJWSKi2TvMQSt+zIlI8RryJ2lOwDWxm76Of28z//aFVW5axOSv4PwPq3gOhOWeGJzmUNt7DLW+UhBDtKGOzbSOJQYMT3gjEqeao/3DhsTzf95aBRAVrK9yCQ2xptGkdiYIJ++onb2Wi312fgEXlb0k2D2jofMSJ5saYtIgehr02s89Y5JoXpFII/EY0xKyqRC+CHaWVbLD8dmgEo4Y6XbSzM6uIv0ukmcsKZbMaBLNEhHMWPL92dVsEo3VNf82EiH96lI7xD+/HKFyRQT2FvBv9nOCMN8K8GK/EW7vN7AaDogA/3ieIyKeMZYYmGMEEaIJa4ijbx5n26m8AjeslLXCGpEjIVELAZcWbhyCPl2DpjhG4vbNQAiZw/bCiE1pJr+fVR40B+cqfEwOL5PDx2TxOc+RAMum2kEGEBIrZkLPZIkBIhhIt1uWQ4r3SAAR/4uPSJTZj01R7+Hn/xPgm4ypDiStDStMXmg4heYh+cfPF/CUiKM8zfX20YRR0hfRo/zbojw4YD5AsHjvB4iBpRkFEc73aHrXkFkQjcsIfC2e5xaSBUbtcOw9goyAIFE+x6NUEIZT4Bq/R+MbimOajwlW0Rj19g23jUDUXIjsJghg2fUZ2RsGAmVHMVY6c7mQ00GNBwntBLWPDDDeF2K7ALZBCUu5M7VhiqsqxXlFaKVCA7b36B82o4MxI82aDKSAu4pNjLHSn00M1gy46phKxK5BbF94uwf1SS3JMx3AlFDDow4yEUCcOApnMKJZrUOzJJwRnhGEsUSiCmRIOwU1IA0MWsX5SLuoB8VAtpbBVAQtBBF1Hx5bCwVYO+H1mQh2LgxO3BmY4sieLdZlX8tqDPSPwGUBQYwz3VpZf8SY1E7GhQhRnONGQQ8VcQVwOMJzgT2kFjsgDo2xDEoCa4JmZzpMI0JDsLHV1zNkmSmdchuwL2LawS5z+Yn2TCVrTBigUBvwToTbmiUGWuMFEdj6j4wkjGKrwBwAKwE3Z1o1trP6nVNQDmKttQ9ojHOXNGlgpLg2ylzB4Iie6o3oEecp6rqwkR82phMZVagPYVOc6tBL2f8u9pDMEbAXJ3EWPWvFv09jwEWBm4qMarStNxOKFdfAmDPoG7H8x9u17AY5UA4wQCuyxBD2Bbt1fZGomTRn+SZ1RbyHRMr0dQ4aPjZAR5xTmC1WZ4khiNDZa8Q43n/Ne1sUMXPBhqfCwcIUx3sGnFOYTjaCGNg7XWiMQ20ZD2cAi9pijoFtSq2tT8/uhgSNsR3EQHALgS7jVKce5rBy0fCcYxiK6a5j59PZSDeO60EMaAvOqFJ/R68WTKaM4p4jcwxDUTNw9JxoWocZASWxcDTHx7GL3ngaaaW50tVRRBZJjTzYKp2Vw5BzyjVKjNZLmWQ8RXnvUc0uN1CEDUuk+vN8QVgbcIJR7x3Ru7KnRomx92Q6MJIw8773SJ/T9Fskh10Pgq541JfYyN9FwYIqR86lRz3SLDH0d9u0+SnNVCnPePloil55Ny3qK3RzbrJDrMOhW5zU0unVd1N08Ey2fSB/s3o0YboPndWDztex0+6aQd08ams1nfKuMc5c0ulbz0RFB/jHbw1Q0zz3nNsIBaWKxy5q9O1nY6IgGnUj+UYibXneOZeGh4pEmSyI0Nmvd2u6Bat0WraxQm3kz/cm6KUjSVrX5KHdW/20a5VHrH0xm0mCWtFnDybpqf1JMTBQHzpdMCxSInHLk85YFz2q1CCIcKFX1zVj+tU4qqxfYVX66rGUKJdbt0ilXau9tH2lhypLZVHIO5OJgiqxVtaQB1rT9Br/TnS4gwz4TYUwifL3M/keDFVniTEQNeVCmt5hiI4kLdp/Kk3vtGXom7+RqDYsU0ON3YC0sMpFDdUuqi1X7GJeKjygSLhjQKf2Hp3OsZzt1MXzwai9SAqWasouu1Qol56vuxVNmVo1m56CGD5Vsgqt2ctipmLLHJTqAyNxkzWbwaMNtZYyf2cSbQIowsV6XFiKKVwiUXkQvSZ2DwrqMwN4r+e9wt4b/Zmih4S/GGpJOe4jWgbQSJTtGekTj1GUbIjXUHeK1f7wXqzHbhSAZr48LMnnlkRKRBCjqcYtu12FotAmRsrp54jE8cx251DRje8tinU5YYw+EjyHFkFltstpFVD56BUksftM8HdYkyJrw2BpR9WxrtAmgEpyEEDT7ZgC2gfsdgG7qBjPdeO91oKM02+ijfaeiK3NHRc8e00LfxLk6yCFS2SRgheXo75anudVZUPiy2HNoN0RUemN0ZgmVIJf/n34QYJALqfRiGxSgRDisSSNLumom3aQSTQdmbbmwkXRnCUd9WsOAc6My+l1Symeooe9qiSa2gUx/B65cutSd9cLCaM2mrRmXRJNNBJjEVd9oleKAMqCsn7vZt+QZK+eZGUDXN5P3Rmk5fXuKKvh3DdOFlFQKPFJic3N6vDdLf5sJZfdmYcHDdXu+Q9s82fqq1xYM6FYDTxHwHaYvnKhOrJ7s9/weyWhLVjELr6nWBIsnjtbfL7bW3yZ6jIlWVSzsx8SW0/VpXL8vpt8tKnZk12AD5b9PhDjv7KcY8mwpV7x6dsCxq7VvhgHmHK3ckcRBQCLasKu+Ed2+uN3sULgWcJDtjZ4jeVLbJBLT/KDf2ARxaBslc5/7GZfdMcKbw+7gXlPwxeRH7AXot290Tf0yM6gzhFldAkgs9rO8lfMicNZ4/MvWX7GMsxiNda4l3zs1oC6ZpG7W5KL9sZsA+yKj+wKnvvYh4JSwCdhQxsogAss32RS/BzvEcTgJ8jzYkp5hewN4ml1g1p531a/q7ZMLm55NcuwusF9YfcmT3l1WM7ucIROtJdZ/jz7ntFCHSYHtib4Y5bnyDZA1D1b/f7P7Sk1Obw8QkXMCtRVui599q5gaFm9R6yeRLYigDnxx2PXEx+/rgs8lL9jOSpelCi4fYVH/d07g/1FF3bmgwOZ8SceLLU2LPGgABzBTdzTvSxfZxka+973EcNZmOsZlm+xvIvXSwNS2YPbAsEHt/laqYgZCx7k5hfvD15qWaKGOGeEFlRoi5fIti+PjN/+6gMrQfEbEPn8FcuPWXr4uRLwyeUPbw+EWXucpCJmJPj+te5c5SvlgY6UB+77cZafsLw80Z5ol1siDG4LvBSsxxTnBJNraZ0a/tQdwRAnWi5RETMKG5rU1t+5JVhaWSpj1RxMIXAofsDyNJMiOtHfTEgMfjMCHSfItjeeZjE4M+le06hWfPmR0jRrkBgVMSNQV6F0/+dHS70LqpRKzjDDtsC9w2zwfbIVwIS47KKCjnp5m+UfyY6GSRz8cm9b7qn4nV3+HrlojBY02ICwPG4p+bt3lSSa69y1qjJqbMKG/BFLh6MAJsQVV5vkP4Sb+gbLd1k6yS5dCPE/U9Y2ubs5ejZnI6OoCPOqRPdt4TzDEo/YtbFwYGHNUf2ODb7++7f5EdVEWwi+IAY6otyHsQDblT7hqsuQ8gf08OGXLN9mEWs1+TxS459+IjyyYqF7gNXTnCQHSiGxse1/+2SYHr05IBaXLRSUBuTUTcs9/X/0aAglm9n9cpEP+wbLa3xPI1f7jMmuTztI9pz0CxYRBGEjdPknbgv2LapRhjnWXtyJpkCA/NayBerwFx8oi3DcYqFzGkTA/YOxOTCZz5kUMZy56DTL/yN76wIxN9261tu8Z2sg5vdSQirm6acdMue15lcoiYd3+IYWVMrLndPQ6C+SrS06J/tZk24wYnIYlmWd4Yf/muXXLA0s6mM3B8ra+7TYC4dSylBMrK0xrToVtZ3VpbIo2h2KTmwfoygYFeYJZ5flsX2zPqdo2OXUg6L2E2WBqApP64XLfQzM2rBr5K4Wb+TODf4m5zS+MAby4yzDVzI2x+OaOs+cZNtxJggSbjBiwNKyP3igdHA4arleOpL0oKOJpgmoDl9e76Zv/8dKeulIir72w+EJybF1uYf+8NFSsSHul745JJaUzmJLs0of3RmgZQvcYqF4tAJgB6InX4+L7bn0Ap00mdCJD632pH/v3hCimtnaCkz7n5vs9DEW19WSyP/oe0yOFrK1R4i/VNMXHyjhPIuVeP5wqoGmCRjZaFDCnic7V3uo6mlFbA8x9mbWlClMHlUUBr99JvM+UjzxUIge2h4Q7QD7W9NivxEsbr+l2SO64n72Rpy++1xMVJIXEthVNO7fFoj8+/tKdPaWsnYFHIU/4nv1Fl0HbqRX9ctk7896H46ctVvGkdELvRHjwjtt2rSRA3jqzQR9/r4Q3bzWI0b82D1Mm1kTrGtyY4tJ2nvCrnuGplnT6KZ/dVtQbH/xH/5mQJALhIJbes8mHz1+Twndtt4nXv/1W4VV3Hb7ek/HZ+8QnlH2unewfJ1J8Xd0nbiRXTMwbr7Ksp9F9O2zNVz78I6gq77KPa1h85feSQnb4KblXtGplgWaj9iLErsLdfQbYlMcAB1r2JsNQIMx9oIzHK0A+wOaBXu21bK24cwkFRI2LFbbWFtI5SElW1uBLClyXV+nG8B1E8MxZM6T7akgfK67FFJ3rfIEH93lV0r88rTVcHTyTT95URM9rgtrlNE94rGvWlOtW2xGd6w9g50ixXmsK8SkFpPysfMZ0XU21iDFltqdA7poUsKuROhmKwQsqHJ1Pbwj4Fq3yF3J8Qpof9gUCGKBFP10A7ihfXacsDnC5X/BcgDnyoJy8NZ1XvUztweGXPL0BL9gazz7dkIEoTYt9YhNZYDVPF1gKsFNPnI2M+pfoyMN+6wB2NRufIM3phTsaZZkL8br7JQ03WCvKvr43SXmbeu8YTaS4Q3iWsOe+L8sx67FA5kIN7wBE38BTLj/THayDe6sUhtWAvduDrh3rfF20TThtWNpivPIb1miUhlPJ9iYZgUbndhsr61bo55xW4fqjit6uTU5XM6GNpazR9p0golsPLzdP7ypWQ1yKD4bIsiGu/dNlEa/VkzJzlz8RaC2UB6G+MYgG2xqRalc/tgtAXNFvXvSQZWpBDbYO92hiT3JGmsVoSkaqhWxhxp2aEyMWaQEDcpdDlHqKxURwxgLkAqfgykJW2Vi77XpxI6Vnkv3bPK6qssUkALhgWyZxK/5XgzTFGBKiAHwF0LF19+TXTOKGg7vynp3zef2hDK15UreC4qh/l8+mhTLFm1kg/HuFp/YqA4r1yAuMRboosdep6ADPA9MPfKYZROw/SfnhcSaHScvZkibxuzQusXuC+yWmk3z1DAa9smurUCq4sd8D6ZsEE4ZMRygVvSHZGdkdY5veDcu9cy7f6t/xK9KCcoz4Elgw9v1iz0iqIXpoK3HXsBkLGBs7mViYJ9X7IUKDwVT0Comw7YVHvowu6sNbMhCA711Krf7rl8JFSXy0O/fWxpno7qODX24Ubimz7P8lOwk2ZRhStfcQiqXA1+Iy6MCGQt9rfC4yf3gNn/FmUv6wMvvJL2mvbJQXqw3uKS42R9u8VKJX2FNkRY7JWfGJZxhM5znuMWPX4nTnq1+emRXQHg2CI7NYy8Eyz5d5OfPvJ2kw+emp+dbdVGGv1sPR2axtwymD8xnh8jW0vtu1NgcjylfjA0pXSbHb5zP/gpLDc+Fga9+qmzk3/yl3n+uRytndzFvi8BhecQQG5yVJTI9fwiLoF1+Hvjxawk6263TzWu8NL/cXpWna8BgQzbFn5MWcQ9zjHmBCOnB07amyeXCauxOa9uWe3u/cH8IGxpml9xERf//xk906nSnFDkbuUwO7Pr7JyyfJntbcGrvMw588a8HlrBhWEZFTApsyFsrGzyD3/hC+QB7IM3OaZRBgBTfYVLkxH6bahtjFPyF4ar+Ddn2hsDCKmXT43cFW4NeqbgZ3yTB7nX6Tz9eem4MKQAU8v4kV6QAckYMB8dYPs8y2pOy+yb/xnu2BM5yZLRYUHwV1ITl4SceDh1ZPM+1ecxp1Gx+jeyoc86QU2KghoMPbSy/R3bDNKD84SOhOk4Rj3COIk5FTAiOxA7t2Rro373Z3zLmNAbYx8ju98lpcUiuNQY5Raewnr9Ezuo9bNiEnni4VN+8zJuUi2WBHwAWSrtljS/9sQ8FkL3OVndDw/4+ywhf05xH2HJODAfwtxGEgWsFzSFz1rPmsZv9iVUN6pRE6mYLMFD4miQ+fWfQKC8RDUJwEHD9/g/L/nyQQnwPygOgNZwqov9BdkAmzrEmz/omT8VHt/tiS+vc3VSEwMalah9HNgfZXYZrms2YIluK+oq8Tb350hgC/MNgb/wV2VE6ze2iwI7V3tDuzT6Nw+Y3lCaeDeB8TveD2wKpZfXuKnZTsQcqqrtfZflWLj2QiZBXYjjYx/I/yc7E6pycCn94k7/kgZv86cAcNkZrwsrAY7cGMjtWeSo8brH0EaYPpNG/xqQ4QXlG3okxZqkF2BtnWayqUjlw96aA//YN3thc7IutLJUH92zxJ29q9oRLvBI2k4EdgW50xCv20jRgWvYnYXIMcWQUPbFYnhhzabihSvY/sqvEYOMr8lZrOt3Zr1fMoNWrrwso4m2a5xq8dZ1HY60Z4NQBIsT40SiNRGLsV05lft4xrVeeybGWD/+F5S6yE29aPGPF3jyRGnzmYLKaM6PxSNSQOS2u3OhXLYyOEItcLtn0uSwzHFKk2jKX9yM7fT1L6tRqzj6XkK3BETFGN/qfMSk6aJow7UOSyfEoHz7Dsp2l1D5HRtqwei/2GD2nL+lKb0TzkDULtAfHpHyqbFSWSNqyhao0L6w0KLIgRPbHwdhEwc1fMyn20zSiEIiBFDJaED7Hsouc7cTnGGBToEQSSynCLX2VphkFMQwdcqxk+QLLbrKzsShbg8s2HZ5TPqA7Ak8MKybCpvhbJsUFKgAUlH5mgkCtwu54gGy7o54lTDeOQpuHYPIgqId4zlNk94GcyUVdxfXiXwD6FffS3iEuQAAAAABJRU5ErkJggg==;" vertex="1" parent="1">
          <mxGeometry x="1490" y="162" width="26.85" height="26.85" as="geometry" />
        </mxCell>
      </root>
    </mxGraphModel>
  </diagram>
</mxfile>
